<?xml version="1.0" standalone="no"?>
<!DOCTYPE svg PUBLIC "-//W3C//DTD SVG 1.1//EN" "http://www.w3.org/Graphics/SVG/1.1/DTD/svg11.dtd" >
<svg>
<metadata>
Created by FontForge 20090914 at Wed Jan  9 23:33:45 2013
 By www-data
Digitised data (c) 2004 Monotype Imaging. All Rights Reserved. Neo Sans is designed by Sebastian Lester.
</metadata>
<defs>
<font id="NeoSansPro-Light" horiz-adv-x="580" >
  <font-face 
    font-family="Neo Sans Pro Light"
    font-weight="300"
    font-stretch="normal"
    units-per-em="1000"
    panose-1="2 11 3 4 3 5 4 4 2 4"
    ascent="765"
    descent="-235"
    x-height="536.998"
    cap-height="743"
    bbox="-86.999 -216.003 1285 979.998"
    underline-thickness="42"
    underline-position="-35"
    unicode-range="U+0020-U+FB04"
  />
<missing-glyph horiz-adv-x="500" 
d="M12 665h475v-665h-475v665zM250 375l161 243h-323zM60 91l7 10l18 27l25.5 39l29.5 45l81 121l-161 242v-484zM278 333l162 -243v485zM250 290l-162 -242h323z" />
    <glyph glyph-name="f_b" unicode="fb" horiz-adv-x="881" 
d="M303 709c-20 0 -36.5 -0.831055 -49.5 -2.49805s-23.333 -5.33398 -31 -11.001s-13 -13.667 -16 -24s-4.5 -24.166 -4.5 -41.499v-93h119c12.667 0 19 -5.33301 19 -16v-9c0 -10.667 -6.33301 -16 -19 -16h-119v-477c0 -5.33301 -1.66699 -9.83301 -5 -13.5
s-7.66602 -5.5 -12.999 -5.5h-7c-5.33301 0 -9.83301 1.83301 -13.5 5.5s-5.5 8.16699 -5.5 13.5v477h-99c-12.667 0 -19 5.33301 -19 16v9c0 10.667 6.33301 16 19 16h99v93c0 23.333 2.66699 42.5 8 57.5s13.833 27 25.5 36s26.5 15.333 44.5 19s39.667 5.5 65 5.5
c77.333 0 135 -1 173 -3c5.33301 0 9.5 -1.83301 12.5 -5.5s4.5 -8.16699 4.5 -13.5v-199c10 2 21 4 33 6s24.333 3.66699 37 5s24.834 2.33301 36.501 3s22.5 1 32.5 1c130.667 0 196 -79.667 196 -239v-66c0 -36 -3.66699 -68.833 -11 -98.5s-19 -55.334 -35 -77.001
s-36.333 -38.334 -61 -50.001s-54.334 -17.5 -89.001 -17.5c-28.667 0 -58.334 2 -89.001 6s-57 8.33301 -79 13c-6 1.33301 -10 3.33301 -12 6s-3 7 -3 13v677h-144zM782 303.002c0 66.667 -11.5 116.666 -34.5 149.999s-62.167 50 -117.5 50c-10 0 -21 -0.333008 -33 -1
s-24.333 -1.5 -37 -2.5s-25 -2.33301 -37 -4s-22.667 -3.5 -32 -5.5v-444c18 -3.33301 39.667 -6.33301 65 -9s50 -4 74 -4c56 0 95.333 17.833 118 53.5s34 85.834 34 150.501v66z" />
    <glyph glyph-name="f_f_b" unicode="ffb" horiz-adv-x="1170" 
d="M202 496l-0.000976562 -476.999c0 -5.33301 -1.66699 -9.83301 -5 -13.5s-7.66602 -5.5 -12.999 -5.5h-7c-5.33301 0 -9.83301 1.83301 -13.5 5.5s-5.5 8.16699 -5.5 13.5v477h-99c-12.667 0 -19 5.33301 -19 16v9c0 10.667 6.33301 16 19 16h99v93
c0 43.333 9.83301 73.833 29.5 91.5s47.5 26.5 83.5 26.5c15.333 0 26.166 -0.166992 32.499 -0.5s12.833 -1.16602 19.5 -2.49902c7.33301 -1.33301 12.333 -3.33301 15 -6s4 -6 4 -10v-7c0 -8.66699 -7 -13 -21 -13h-50c-23.333 0 -40.666 -5.66699 -51.999 -17
s-17 -32 -17 -62v-93h245v93c0 23.333 2.66699 42.5 8 57.5s13.833 27 25.5 36s26.5 15.333 44.5 19s39.667 5.5 65 5.5c77.333 0 135 -1 173 -3c5.33301 0 9.5 -1.83301 12.5 -5.5s4.5 -8.16699 4.5 -13.5v-199c10 2 21 4 33 6s24.333 3.66699 37 5
s24.834 2.33301 36.501 3s22.5 1 32.5 1c130.667 0 196 -79.667 196 -239v-66c0 -36 -3.66699 -68.833 -11 -98.5s-19 -55.334 -35 -77.001s-36.333 -38.334 -61 -50.001s-54.334 -17.5 -89.001 -17.5c-28.667 0 -58.334 2 -89.001 6s-57 8.33301 -79 13
c-6 1.33301 -10 3.33301 -12 6s-3 7 -3 13v677h-144c-20 0 -36.5 -0.833008 -49.5 -2.5s-23.333 -5.33398 -31 -11.001s-13 -13.667 -16 -24s-4.5 -24.166 -4.5 -41.499v-93h119c12.667 0 19 -5.33301 19 -16v-9c0 -10.667 -6.33301 -16 -19 -16h-119v-477
c0 -5.33301 -1.66699 -9.83301 -5 -13.5s-7.66602 -5.5 -12.999 -5.5h-7c-5.33301 -0 -9.83301 1.83301 -13.5 5.5s-5.5 8.16699 -5.5 13.5v477h-245zM1071 303.001c0 66.667 -11.5 116.666 -34.5 149.999s-62.167 50 -117.5 50c-10 0 -21 -0.333008 -33 -1
s-24.333 -1.5 -37 -2.5s-25 -2.33301 -37 -4s-22.667 -3.5 -32 -5.5v-444c18 -3.33301 39.667 -6.33301 65 -9s50 -4 74 -4c56 0 95.333 17.833 118 53.5s34 85.834 34 150.501v66z" />
    <glyph glyph-name="f_f_h" unicode="ffh" horiz-adv-x="1171" 
d="M202 496l-0.00195312 -477.004c0 -5.33301 -1.66699 -9.83301 -5 -13.5s-7.66602 -5.5 -12.999 -5.5h-7c-5.33301 0 -9.83301 1.83301 -13.5 5.5s-5.5 8.16699 -5.5 13.5v477h-99c-12.667 0 -19 5.33301 -19 16v9c0 10.667 6.33301 16 19 16h99v93
c0 43.333 9.83301 73.833 29.5 91.5s47.5 26.5 83.5 26.5c15.333 0 26.166 -0.166992 32.499 -0.5s12.833 -1.16602 19.5 -2.49902c7.33301 -1.33301 12.333 -3.33301 15 -6s4 -6 4 -10v-7c0 -8.66699 -7 -13 -21 -13h-50c-23.333 0 -40.666 -5.66699 -51.999 -17
s-17 -32 -17 -62v-93h245v93c0 23.333 2.66699 42.5 8 57.5s13.833 27 25.5 36s26.5 15.333 44.5 19s39.667 5.5 65 5.5c38.667 0 72.334 -0.166992 101.001 -0.5s52.667 -1.16602 72 -2.49902c7.33301 -0.666992 12 -2.66699 14 -6s3 -7.66602 3 -12.999v-202
c19.333 5.33301 41.166 9.66602 65.499 12.999s47.5 5 69.5 5c34.667 0 64.167 -4.83301 88.5 -14.5s44 -23 59 -40s26 -37.167 33 -60.5s10.5 -49 10.5 -77v-337c0 -5.33301 -1.5 -9.83301 -4.5 -13.5s-7.16699 -5.5 -12.5 -5.5h-10c-5.33301 0 -9.33301 1.83301 -12 5.5
s-4 8.16699 -4 13.5v337c0 48.667 -11.333 86.334 -34 113.001s-60.667 40 -114 40c-21.333 0 -44.333 -1.66699 -69 -5s-46.667 -7.66602 -66 -12.999v-472c0 -5.33301 -1.5 -9.83301 -4.5 -13.5s-7.16699 -5.5 -12.5 -5.5h-10c-5.33301 0 -9.5 1.83301 -12.5 5.5
s-4.5 8.16699 -4.5 13.5v696h-144c-20 0 -36.5 -0.833008 -49.5 -2.5s-23.333 -5.33398 -31 -11.001s-13 -13.667 -16 -24s-4.5 -24.166 -4.5 -41.499v-93h119c12.667 0 19 -5.33301 19 -16v-9c0 -10.667 -6.33301 -16 -19 -16h-119v-477
c0 -5.33301 -1.66699 -9.83301 -5 -13.5s-7.66602 -5.5 -12.999 -5.5h-7c-5.33301 -0 -9.83301 1.83301 -13.5 5.5s-5.5 8.16699 -5.5 13.5v477h-245z" />
    <glyph glyph-name="f_f_j" unicode="ffj" horiz-adv-x="870" 
d="M790 -86c0 -21.333 -2.16895 -39.002 -6.50195 -53.002s-10.833 -25.167 -19.5 -33.5s-19.5 -14.166 -32.5 -17.499s-27.833 -5 -44.5 -5c-8.66699 0 -16 0.166992 -22 0.5s-12.667 1.16602 -20 2.49902s-12 3 -14 5s-3 5 -3 9v9c0 8 7 12 21 12h38
c22 0 37.333 4.33301 46 13s13 28 13 58v582h-255v-477c0 -5.33301 -1.66699 -9.83301 -5 -13.5s-7.66602 -5.5 -12.999 -5.5h-7c-5.33301 0 -9.83301 1.83301 -13.5 5.5s-5.5 8.16699 -5.5 13.5v477h-245v-477c0 -5.33301 -1.66699 -9.83301 -5 -13.5
s-7.66602 -5.5 -12.999 -5.5h-7c-5.33301 0 -9.83301 1.83301 -13.5 5.5s-5.5 8.16699 -5.5 13.5v477h-99c-12.667 0 -19 5.33301 -19 16v9c0 10.667 6.33301 16 19 16h99v93c0 43.333 9.83301 73.833 29.5 91.5s47.5 26.5 83.5 26.5c15.333 0 26.166 -0.166992 32.499 -0.5
s12.833 -1.16602 19.5 -2.49902c7.33301 -1.33301 12.333 -3.33301 15 -6s4 -6 4 -10v-7c0 -8.66699 -7 -13 -21 -13h-50c-23.333 0 -40.666 -5.66699 -51.999 -17s-17 -32 -17 -62v-93h245v93c0 43.333 9.83301 73.833 29.5 91.5s47.5 26.5 83.5 26.5
c15.333 0 26.166 -0.166992 32.499 -0.5s12.833 -1.16602 19.5 -2.49902c7.33301 -1.33301 12.333 -3.33301 15 -6s4 -6 4 -10v-7c0 -8.66699 -7 -13 -21 -13h-50c-23.333 0 -40.666 -5.66699 -51.999 -17s-17 -32 -17 -62v-93h282c5.33301 0 9.5 -1.83301 12.5 -5.5
s4.5 -8.16699 4.5 -13.5v-604zM789.998 654.998c0 -5.33301 -1.83301 -9.83301 -5.5 -13.5s-8.16699 -5.5 -13.5 -5.5h-6c-5.33301 0 -9.83301 1.83301 -13.5 5.5s-5.5 8.16699 -5.5 13.5v74c0 5.33301 1.83301 9.83301 5.5 13.5s8.16699 5.5 13.5 5.5h6
c5.33301 0 9.83301 -1.83301 13.5 -5.5s5.5 -8.16699 5.5 -13.5v-74z" />
    <glyph glyph-name="f_f_k" unicode="ffk" horiz-adv-x="1111" 
d="M202 496l-0.00488281 -477.002c0 -5.33301 -1.66699 -9.83301 -5 -13.5s-7.66602 -5.5 -12.999 -5.5h-7c-5.33301 0 -9.83301 1.83301 -13.5 5.5s-5.5 8.16699 -5.5 13.5v477h-99c-12.667 0 -19 5.33301 -19 16v9c0 10.667 6.33301 16 19 16h99v93
c0 43.333 9.83301 73.833 29.5 91.5s47.5 26.5 83.5 26.5c15.333 0 26.166 -0.166992 32.499 -0.5s12.833 -1.16602 19.5 -2.49902c7.33301 -1.33301 12.333 -3.33301 15 -6s4 -6 4 -10v-7c0 -8.66699 -7 -13 -21 -13h-50c-23.333 0 -40.666 -5.66699 -51.999 -17
s-17 -32 -17 -62v-93h245v93c0 23.333 2.66699 42.5 8 57.5s13.833 27 25.5 36s26.5 15.333 44.5 19s39.667 5.5 65 5.5c38.667 0 72.334 -0.166992 101.001 -0.5s52.667 -1.16602 72 -2.49902c7.33301 -0.666992 12 -2.66699 14 -6s3 -7.66602 3 -12.999v-423l246 230
c6.66699 6 14.667 9 24 9c12 0 19 -4 21 -12s-0.666992 -15 -8 -21l-245 -224l246 -260c6 -6.66699 7.83301 -13.5 5.5 -20.5s-8.16602 -10.5 -17.499 -10.5c-6 0 -11.167 0.666992 -15.5 2s-9.16602 4.66602 -14.499 9.99902l-242 259v-252
c0 -5.33301 -1.83301 -9.83301 -5.5 -13.5s-8.16699 -5.5 -13.5 -5.5h-6c-5.33301 0 -9.83301 1.83301 -13.5 5.5s-5.5 8.16699 -5.5 13.5v696h-144c-20 0 -36.5 -0.833008 -49.5 -2.5s-23.333 -5.33398 -31 -11.001s-13 -13.667 -16 -24s-4.5 -24.166 -4.5 -41.499v-93h119
c12.667 0 19 -5.33301 19 -16v-9c0 -10.667 -6.33301 -16 -19 -16h-119v-477c0 -5.33301 -1.66699 -9.83301 -5 -13.5s-7.66602 -5.5 -12.999 -5.5h-7c-5.33301 -0 -9.83301 1.83301 -13.5 5.5s-5.5 8.16699 -5.5 13.5v477h-245z" />
    <glyph glyph-name="f_h" unicode="fh" horiz-adv-x="882" 
d="M491 524c19.333 5.33301 41.165 9.66309 65.498 12.9961s47.5 5 69.5 5c34.667 0 64.167 -4.83301 88.5 -14.5s44 -23 59 -40s26 -37.167 33 -60.5s10.5 -49 10.5 -77v-337c0 -5.33301 -1.5 -9.83301 -4.5 -13.5s-7.16699 -5.5 -12.5 -5.5h-10
c-5.33301 0 -9.33301 1.83301 -12 5.5s-4 8.16699 -4 13.5v337c0 48.667 -11.333 86.334 -34 113.001s-60.667 40 -114 40c-21.333 0 -44.333 -1.66699 -69 -5s-46.667 -7.66602 -66 -12.999v-472c0 -5.33301 -1.5 -9.83301 -4.5 -13.5s-7.16699 -5.5 -12.5 -5.5h-10
c-5.33301 0 -9.5 1.83301 -12.5 5.5s-4.5 8.16699 -4.5 13.5v696h-144c-20 0 -36.5 -0.833008 -49.5 -2.5s-23.333 -5.33398 -31 -11.001s-13 -13.667 -16 -24s-4.5 -24.166 -4.5 -41.499v-93h119c12.667 0 19 -5.33301 19 -16v-9c0 -10.667 -6.33301 -16 -19 -16h-119v-477
c0 -5.33301 -1.66699 -9.83301 -5 -13.5s-7.66602 -5.5 -12.999 -5.5h-7c-5.33301 0 -9.83301 1.83301 -13.5 5.5s-5.5 8.16699 -5.5 13.5v477h-99c-12.667 0 -19 5.33301 -19 16v9c0 10.667 6.33301 16 19 16h99v93c0 23.333 2.66699 42.5 8 57.5s13.833 27 25.5 36
s26.5 15.333 44.5 19s39.667 5.5 65 5.5c38.667 0 72.334 -0.166992 101.001 -0.5s52.667 -1.16602 72 -2.49902c7.33301 -0.666992 12 -2.66699 14 -6s3 -7.66602 3 -12.999v-202z" />
    <glyph glyph-name="f_j" unicode="fj" horiz-adv-x="581" 
d="M501 -86c0 -21.333 -2.16797 -39.001 -6.50098 -53.001s-10.833 -25.167 -19.5 -33.5s-19.5 -14.166 -32.5 -17.499s-27.833 -5 -44.5 -5c-8.66699 0 -16 0.166992 -22 0.5s-12.667 1.16602 -20 2.49902s-12 3 -14 5s-3 5 -3 9v9c0 8 7 12 21 12h38
c22 0 37.333 4.33301 46 13s13 28 13 58v582h-255v-477c0 -5.33301 -1.66699 -9.83301 -5 -13.5s-7.66602 -5.5 -12.999 -5.5h-7c-5.33301 0 -9.83301 1.83301 -13.5 5.5s-5.5 8.16699 -5.5 13.5v477h-99c-12.667 0 -19 5.33301 -19 16v9c0 10.667 6.33301 16 19 16h99v93
c0 43.333 9.83301 73.833 29.5 91.5s47.5 26.5 83.5 26.5c15.333 0 26.166 -0.166992 32.499 -0.5s12.833 -1.16602 19.5 -2.49902c7.33301 -1.33301 12.333 -3.33301 15 -6s4 -6 4 -10v-7c0 -8.66699 -7 -13 -21 -13h-50c-23.333 0 -40.666 -5.66699 -51.999 -17
s-17 -32 -17 -62v-93h282c5.33301 0 9.5 -1.83301 12.5 -5.5s4.5 -8.16699 4.5 -13.5v-604zM500.999 654.999c0 -5.33301 -1.83301 -9.83301 -5.5 -13.5s-8.16699 -5.5 -13.5 -5.5h-6c-5.33301 0 -9.83301 1.83301 -13.5 5.5s-5.5 8.16699 -5.5 13.5v74
c0 5.33301 1.83301 9.83301 5.5 13.5s8.16699 5.5 13.5 5.5h6c5.33301 0 9.83301 -1.83301 13.5 -5.5s5.5 -8.16699 5.5 -13.5v-74z" />
    <glyph glyph-name="f_k" unicode="fk" horiz-adv-x="822" 
d="M303 709c-20 0 -36.5039 -0.833984 -49.5039 -2.50098s-23.333 -5.33398 -31 -11.001s-13 -13.667 -16 -24s-4.5 -24.166 -4.5 -41.499v-93h119c12.667 0 19 -5.33301 19 -16v-9c0 -10.667 -6.33301 -16 -19 -16h-119v-477c0 -5.33301 -1.66699 -9.83301 -5 -13.5
s-7.66602 -5.5 -12.999 -5.5h-7c-5.33301 0 -9.83301 1.83301 -13.5 5.5s-5.5 8.16699 -5.5 13.5v477h-99c-12.667 0 -19 5.33301 -19 16v9c0 10.667 6.33301 16 19 16h99v93c0 23.333 2.66699 42.5 8 57.5s13.833 27 25.5 36s26.5 15.333 44.5 19s39.667 5.5 65 5.5
c38.667 0 72.334 -0.166992 101.001 -0.5s52.667 -1.16602 72 -2.49902c7.33301 -0.666992 12 -2.66699 14 -6s3 -7.66602 3 -12.999v-423l246 230c6.66699 6 14.667 9 24 9c12 0 19 -4 21 -12s-0.666992 -15 -8 -21l-245 -224l246 -260c6 -6.66699 7.83301 -13.5 5.5 -20.5
s-8.16602 -10.5 -17.499 -10.5c-6 0 -11.167 0.666992 -15.5 2s-9.16602 4.66602 -14.499 9.99902l-242 259v-252c0 -5.33301 -1.83301 -9.83301 -5.5 -13.5s-8.16699 -5.5 -13.5 -5.5h-6c-5.33301 0 -9.83301 1.83301 -13.5 5.5s-5.5 8.16699 -5.5 13.5v696h-144z" />
    <glyph glyph-name="f_f" unicode="ff" horiz-adv-x="666" 
d="M631 722c0 -8.66699 -7.00195 -13.002 -21.002 -13.002h-50c-23.333 0 -40.666 -5.66699 -51.999 -17s-17 -32 -17 -62v-93h119c12.667 0 19 -5.33301 19 -16v-9c0 -10.667 -6.33301 -16 -19 -16h-119v-477c0 -5.33301 -1.66699 -9.83301 -5 -13.5
s-7.66602 -5.5 -12.999 -5.5h-7c-5.33301 0 -9.83301 1.83301 -13.5 5.5s-5.5 8.16699 -5.5 13.5v477h-245v-477c0 -5.33301 -1.66699 -9.83301 -5 -13.5s-7.66602 -5.5 -12.999 -5.5h-7c-5.33301 0 -9.83301 1.83301 -13.5 5.5s-5.5 8.16699 -5.5 13.5v477h-99
c-12.667 0 -19 5.33301 -19 16v9c0 10.667 6.33301 16 19 16h99v93c0 43.333 9.83301 73.833 29.5 91.5s47.5 26.5 83.5 26.5c15.333 0 26.166 -0.166992 32.499 -0.5s12.833 -1.16602 19.5 -2.49902c7.33301 -1.33301 12.333 -3.33301 15 -6s4 -6 4 -10v-7
c0 -8.66699 -7 -13 -21 -13h-50c-23.333 0 -40.666 -5.66699 -51.999 -17s-17 -32 -17 -62v-93h245v93c0 43.333 9.83301 73.833 29.5 91.5s47.5 26.5 83.5 26.5c15.333 0 26.166 -0.166992 32.499 -0.5s12.833 -1.16602 19.5 -2.49902
c7.33301 -1.33301 12.333 -3.33301 15 -6s4 -6 4 -10v-7v0z" />
    <glyph glyph-name="fi" unicode="fi" horiz-adv-x="571" 
d="M342 722c0 -8.66699 -7.00098 -13.001 -21.001 -13.001h-50c-23.333 0 -40.666 -5.66699 -51.999 -17s-17 -32 -17 -62v-93h270c5.33301 0 9.83301 -1.83301 13.5 -5.5s5.5 -8.16699 5.5 -13.5v-499c0 -5.33301 -1.83301 -9.83301 -5.5 -13.5s-8.16699 -5.5 -13.5 -5.5
h-6c-5.33301 0 -9.83301 1.83301 -13.5 5.5s-5.5 8.16699 -5.5 13.5v477h-245v-477c0 -5.33301 -1.66699 -9.83301 -5 -13.5s-7.66602 -5.5 -12.999 -5.5h-7c-5.33301 0 -9.83301 1.83301 -13.5 5.5s-5.5 8.16699 -5.5 13.5v477h-99c-12.667 0 -19 5.33301 -19 16v9
c0 10.667 6.33301 16 19 16h99v93c0 43.333 9.83301 73.833 29.5 91.5s47.5 26.5 83.5 26.5c15.333 0 26.166 -0.166992 32.499 -0.5s12.833 -1.16602 19.5 -2.49902c7.33301 -1.33301 12.333 -3.33301 15 -6s4 -6 4 -10v-7zM490.999 654.999
c0 -5.33301 -1.83301 -9.83301 -5.5 -13.5s-8.16699 -5.5 -13.5 -5.5h-6c-5.33301 0 -9.83301 1.83301 -13.5 5.5s-5.5 8.16699 -5.5 13.5v74c0 5.33301 1.83301 9.83301 5.5 13.5s8.16699 5.5 13.5 5.5h6c5.33301 0 9.83301 -1.83301 13.5 -5.5s5.5 -8.16699 5.5 -13.5v-74
z" />
    <glyph glyph-name="fl" unicode="fl" horiz-adv-x="571" 
d="M491 19c0 -5.33301 -1.50098 -9.83301 -4.50098 -13.5s-7.16699 -5.5 -12.5 -5.5h-10c-5.33301 -0 -9.5 1.83301 -12.5 5.5s-4.5 8.16699 -4.5 13.5v690h-144c-20 0 -36.5 -0.833008 -49.5 -2.5s-23.333 -5.33398 -31 -11.001s-13 -13.667 -16 -24
s-4.5 -24.166 -4.5 -41.499v-93h119c12.667 0 19 -5.33301 19 -16v-9c0 -10.667 -6.33301 -16 -19 -16h-119v-477c0 -5.33301 -1.66699 -9.83301 -5 -13.5s-7.66602 -5.5 -12.999 -5.5h-7c-5.33301 -0 -9.83301 1.83301 -13.5 5.5s-5.5 8.16699 -5.5 13.5v477h-99
c-12.667 0 -19 5.33301 -19 16v9c0 10.667 6.33301 16 19 16h99v93c0 23.333 2.66699 42.5 8 57.5s13.833 27 25.5 36s26.5 15.333 44.5 19s39.667 5.5 65 5.5c77.333 0 135 -1 173 -3c5.33301 0 9.5 -1.83301 12.5 -5.5s4.5 -8.16699 4.5 -13.5v-707v0z" />
    <glyph glyph-name="f_f_i" unicode="ffi" horiz-adv-x="870" 
d="M790 19c0 -5.33301 -1.83496 -9.83496 -5.50195 -13.502s-8.16699 -5.5 -13.5 -5.5h-6c-5.33301 0 -9.83301 1.83301 -13.5 5.5s-5.5 8.16699 -5.5 13.5v477h-255v-477c0 -5.33301 -1.66699 -9.83301 -5 -13.5s-7.66602 -5.5 -12.999 -5.5h-7
c-5.33301 0 -9.83301 1.83301 -13.5 5.5s-5.5 8.16699 -5.5 13.5v477h-245v-477c0 -5.33301 -1.66699 -9.83301 -5 -13.5s-7.66602 -5.5 -12.999 -5.5h-7c-5.33301 0 -9.83301 1.83301 -13.5 5.5s-5.5 8.16699 -5.5 13.5v477h-99c-12.667 0 -19 5.33301 -19 16v9
c0 10.667 6.33301 16 19 16h99v93c0 43.333 9.83301 73.833 29.5 91.5s47.5 26.5 83.5 26.5c15.333 0 26.166 -0.166992 32.499 -0.5s12.833 -1.16602 19.5 -2.49902c7.33301 -1.33301 12.333 -3.33301 15 -6s4 -6 4 -10v-7c0 -8.66699 -7 -13 -21 -13h-50
c-23.333 0 -40.666 -5.66699 -51.999 -17s-17 -32 -17 -62v-93h245v93c0 43.333 9.83301 73.833 29.5 91.5s47.5 26.5 83.5 26.5c15.333 0 26.166 -0.166992 32.499 -0.5s12.833 -1.16602 19.5 -2.49902c7.33301 -1.33301 12.333 -3.33301 15 -6s4 -6 4 -10v-7
c0 -8.66699 -7 -13 -21 -13h-50c-23.333 0 -40.666 -5.66699 -51.999 -17s-17 -32 -17 -62v-93h280c7.33301 0 12.333 -1.83301 15 -5.5s4 -8.16699 4 -13.5v-499zM789.998 654.998c0 -5.33301 -1.83301 -9.83301 -5.5 -13.5s-8.16699 -5.5 -13.5 -5.5h-6
c-5.33301 0 -9.83301 1.83301 -13.5 5.5s-5.5 8.16699 -5.5 13.5v74c0 5.33301 1.83301 9.83301 5.5 13.5s8.16699 5.5 13.5 5.5h6c5.33301 0 9.83301 -1.83301 13.5 -5.5s5.5 -8.16699 5.5 -13.5v-74z" />
    <glyph glyph-name="f_f_l" unicode="ffl" horiz-adv-x="860" 
d="M342 722c0 -8.66699 -7.00195 -13.001 -21.002 -13.001h-50c-23.333 0 -40.666 -5.66699 -51.999 -17s-17 -32 -17 -62v-93h245v93c0 23.333 2.66699 42.5 8 57.5s13.833 27 25.5 36s26.5 15.333 44.5 19s39.667 5.5 65 5.5c77.333 0 135 -1 173 -3
c5.33301 0 9.5 -1.83301 12.5 -5.5s4.5 -8.16699 4.5 -13.5v-707c0 -5.33301 -1.5 -9.83301 -4.5 -13.5s-7.16699 -5.5 -12.5 -5.5h-10c-5.33301 0 -9.5 1.83301 -12.5 5.5s-4.5 8.16699 -4.5 13.5v690h-144c-20 0 -36.5 -0.833008 -49.5 -2.5s-23.333 -5.33398 -31 -11.001
s-13 -13.667 -16 -24s-4.5 -24.166 -4.5 -41.499v-93h119c12.667 0 19 -5.33301 19 -16v-9c0 -10.667 -6.33301 -16 -19 -16h-119v-477c0 -5.33301 -1.66699 -9.83301 -5 -13.5s-7.66602 -5.5 -12.999 -5.5h-7c-5.33301 0 -9.83301 1.83301 -13.5 5.5
s-5.5 8.16699 -5.5 13.5v477h-245v-477c0 -5.33301 -1.66699 -9.83301 -5 -13.5s-7.66602 -5.5 -12.999 -5.5h-7c-5.33301 0 -9.83301 1.83301 -13.5 5.5s-5.5 8.16699 -5.5 13.5v477h-99c-12.667 0 -19 5.33301 -19 16v9c0 10.667 6.33301 16 19 16h99v93
c0 43.333 9.83301 73.833 29.5 91.5s47.5 26.5 83.5 26.5c15.333 0 26.166 -0.166992 32.499 -0.5s12.833 -1.16602 19.5 -2.49902c7.33301 -1.33301 12.333 -3.33301 15 -6s4 -6 4 -10v-7v0z" />
    <glyph glyph-name=".notdef" horiz-adv-x="500" 
d="M12 665h475v-665h-475v665zM250 375l161 243h-323zM60 91l7 10l18 27l25.5 39l29.5 45l81 121l-161 242v-484zM278 333l162 -243v485zM250 290l-162 -242h323z" />
    <glyph glyph-name="space" unicode=" " horiz-adv-x="215" 
 />
    <glyph glyph-name="exclam" unicode="!" horiz-adv-x="204" 
d="M124 192c0 -5.33301 -1.83301 -9.83301 -5.5 -13.5s-8.16699 -5.5 -13.5 -5.5h-6c-5.33301 0 -9.83301 1.83301 -13.5 5.5s-5.5 8.16699 -5.5 13.5v532c0 5.33301 1.83301 9.83301 5.5 13.5s8.16699 5.5 13.5 5.5h6c5.33301 0 9.83301 -1.83301 13.5 -5.5
s5.5 -8.16699 5.5 -13.5v-532zM124 13c0 -5.33301 -1.83301 -9.83301 -5.5 -13.5s-8.16699 -5.5 -13.5 -5.5h-6c-5.33301 0 -9.83301 1.83301 -13.5 5.5s-5.5 8.16699 -5.5 13.5v74c0 5.33301 1.83301 9.83301 5.5 13.5s8.16699 5.5 13.5 5.5h6
c5.33301 0 9.83301 -1.83301 13.5 -5.5s5.5 -8.16699 5.5 -13.5v-74z" />
    <glyph glyph-name="quotedbl" unicode="&#x22;" horiz-adv-x="295" 
d="M256 732c0 -3.33301 -0.334961 -6 -1.00195 -8l-48 -172c-3.33301 -12.667 -9.66602 -19 -18.999 -19h-15c-6 0 -9 3.33301 -9 10v4.5c0 1.66699 0.333008 3.16699 1 4.5l41 172c2.66699 12.667 9.33398 19 20.001 19h19c7.33301 0 11 -3.66699 11 -11zM130.998 732
c0 -3.33301 -0.334961 -6 -1.00195 -8l-48 -172c-3.33301 -12.667 -9.66602 -19 -18.999 -19h-15c-6 0 -9 3.33301 -9 10v4.5c0 1.66699 0.333008 3.16699 1 4.5l41 172c2.66699 12.667 9.33398 19 20.001 19h19c7.33301 0 11 -3.66699 11 -11z" />
    <glyph glyph-name="numbersign" unicode="#" horiz-adv-x="636" 
d="M586 497c0 -5.33301 -1.99805 -9.5 -5.99805 -12.5s-8.66699 -4.5 -14 -4.5h-104l-20 -226h104c11.333 0 17 -5.66699 17 -17v-3c0 -5.33301 -2 -9.5 -6 -12.5s-8.66699 -4.5 -14 -4.5h-105l-17 -198c-0.666992 -5.33301 -2.5 -9.83301 -5.5 -13.5
s-7.16699 -5.5 -12.5 -5.5h-9c-5.33301 0 -9.33301 1.66699 -12 5s-4 7.33301 -4 12v2l17 198h-180l-17 -198c-0.666992 -5.33301 -2.5 -9.83301 -5.5 -13.5s-7.16699 -5.5 -12.5 -5.5h-10c-4.66699 0 -8.5 1.66699 -11.5 5s-4.5 7.33301 -4.5 12v2l17 198h-103
c-5.33301 0 -9.66602 1.5 -12.999 4.5s-5 7.16699 -5 12.5v3c0 5.33301 2.16699 9.5 6.5 12.5s9.16602 4.5 14.499 4.5h104l20 226h-104c-5.33301 0 -9.66602 1.5 -12.999 4.5s-5 7.16699 -5 12.5v4c0 5.33301 2.16699 9.5 6.5 12.5s9.16602 4.5 14.499 4.5h104l18 206
c0.666992 5.33301 2.66699 9.83301 6 13.5s7.66602 5.5 12.999 5.5h10c4.66699 0 8.33398 -1.66699 11.001 -5s4 -7.33301 4 -12v-2l-18 -206h180l18 206c0.666992 5.33301 2.66699 9.83301 6 13.5s7.66602 5.5 12.999 5.5h9c5.33301 0 9.16602 -1.66699 11.499 -5
s3.5 -7.33301 3.5 -12v-2l-18 -206h104c11.333 0 17 -5.66699 17 -17v-4zM239.002 480l-20 -226h180l20 226h-180z" />
    <glyph glyph-name="dollar" unicode="$" 
d="M500 184c0 -21.333 -2.49902 -42.3379 -7.49902 -63.0049s-14.5 -39.667 -28.5 -57s-33.167 -32.166 -57.5 -44.499s-55.833 -20.166 -94.5 -23.499v-105c0 -5.33301 -1.33301 -9.83301 -4 -13.5s-6.66699 -5.5 -12 -5.5h-10c-5.33301 0 -9.33301 1.83301 -12 5.5
s-4 8.16699 -4 13.5v103h-2c-32.667 0 -61.667 1.33301 -87 4l-68 7c-4.66699 0.666992 -8.83398 2.16699 -12.501 4.5s-5.5 6.16602 -5.5 11.499v13c0 5.33301 1.83301 8.83301 5.5 10.5s8.16699 2.5 13.5 2.5h4c26 -2 50.5 -4.33301 73.5 -7s48.5 -4 76.5 -4
c38 0 69 3.83301 93 11.5s42.833 18.167 56.5 31.5s23.167 29 28.5 47s8 37.333 8 58c0 16.667 -2 31.167 -6 43.5s-11 24.333 -21 36s-23.833 23.667 -41.5 36s-39.834 26.833 -66.501 43.5l-100 62c-27.333 16.667 -50 32.334 -68 47.001s-32.167 29 -42.5 43
s-17.666 28.333 -21.999 43s-6.5 30.667 -6.5 48c0 28.667 5.16699 52.834 15.5 72.501s24.166 35.667 41.499 48s37.5 21.5 60.5 27.5s47.167 10 72.5 12v87c0 5.33301 1.33301 9.83301 4 13.5s6.66699 5.5 12 5.5h10c5.33301 0 9.33301 -1.83301 12 -5.5
s4 -8.16699 4 -13.5v-85h2c26.667 0 52.834 -1.16699 78.501 -3.5l70.5 -6.5c11.333 -1.33301 17 -6.33301 17 -15v-13c0 -9.33301 -6.33301 -14 -19 -14c-5.33301 0 -13.666 0.5 -24.999 1.5l-38 3.5c-14 1.33301 -28.5 2.5 -43.5 3.5s-28.833 1.5 -41.5 1.5
c-66 0 -113.667 -9.66699 -143 -29s-44 -49.666 -44 -90.999c0 -14.667 1.83301 -27.667 5.5 -39s10.167 -22.5 19.5 -33.5s21.666 -22.167 36.999 -33.5s35 -24.333 59 -39l98 -60c32 -19.333 58 -37.166 78 -53.499s35.833 -32 47.5 -47s19.5 -30.333 23.5 -46
s6 -32.5 6 -50.5z" />
    <glyph glyph-name="percent" unicode="%" horiz-adv-x="757" 
d="M697 150c0 -52.667 -11.167 -91.834 -33.5 -117.501s-53.166 -38.5 -92.499 -38.5s-70.333 12.833 -93 38.5s-34 64.834 -34 117.501v104c0 52.667 11.333 91.667 34 117s53.667 38 93 38s70.166 -12.667 92.499 -38s33.5 -64.333 33.5 -117v-104zM617 738
c0 -3.33301 -2 -8 -6 -14l-420 -711c-4 -7.33301 -7.16699 -12.333 -9.5 -15s-6.16602 -4 -11.499 -4h-27c-4.66699 0 -7 1.66699 -7 5s2 8 6 14l420 711c4 7.33301 7.16699 12.333 9.5 15s6.16602 4 11.499 4h26c5.33301 0 8 -1.66699 8 -5zM313 489
c0 -52.667 -11.167 -91.834 -33.5 -117.501s-53.166 -38.5 -92.499 -38.5s-70.333 12.833 -93 38.5s-34 64.834 -34 117.501v104c0 52.667 11.333 91.667 34 117s53.667 38 93 38s70.166 -12.667 92.499 -38s33.5 -64.333 33.5 -117v-104zM658 254
c0 40.667 -7.5 70.334 -22.5 89.001s-36.5 28 -64.5 28s-49.667 -9.33301 -65 -28s-23 -48.334 -23 -89.001v-104c0 -40.667 7.66699 -70.334 23 -89.001s37 -28 65 -28s49.5 9.33301 64.5 28s22.5 48.334 22.5 89.001v104zM274 593c0 40.667 -7.5 70.334 -22.5 89.001
s-36.5 28 -64.5 28s-49.667 -9.33301 -65 -28s-23 -48.334 -23 -89.001v-104c0 -40.667 7.66699 -70.334 23 -89.001s37 -28 65 -28s49.5 9.33301 64.5 28s22.5 48.334 22.5 89.001v104z" />
    <glyph glyph-name="ampersand" unicode="&#x26;" horiz-adv-x="637" 
d="M599 7c0 -4.66699 -2.66504 -7.00195 -7.99805 -7.00195h-32c-3.33301 0 -6 0.333008 -8 1s-4.66699 2.66699 -8 6l-63 67c-24 -25.333 -52.833 -45 -86.5 -59s-72.834 -21 -117.501 -21c-25.333 0 -51.333 2.66699 -78 8s-51 14.5 -73 27.5s-40 30.667 -54 53
s-21 50.5 -21 84.5v6c0 20.667 2.5 39.5 7.5 56.5s13.5 33.5 25.5 49.5s27.667 32 47 48s43.333 33 72 51c-27.333 32 -49 58.833 -65 80.5s-28 40.334 -36 56.001s-13.167 29.167 -15.5 40.5s-3.5 22.666 -3.5 33.999v6c0 28 5 51.833 15 71.5s23.5 35.5 40.5 47.5
s37.167 20.667 60.5 26s48.333 8 75 8c22.667 0 45 -2.66699 67 -8s41.5 -14 58.5 -26s30.833 -27.833 41.5 -47.5s16 -43.5 16 -71.5v-6c0 -19.333 -2.66699 -37.166 -8 -53.499s-14.333 -32.5 -27 -48.5s-29 -32 -49 -48s-44.333 -32.667 -73 -50l-33 -20l43.5 -47
l50.5 -54l119 -128c18 28 31 59.833 39 95.5s12 73.167 12 112.5v11c0 12.667 5 19 15 19h14c10.667 0 16 -6.33301 16 -19v-11c0 -45.333 -5.33301 -88.666 -16 -129.999s-27.334 -78 -50.001 -110l88 -95c1.33301 -2.66699 2 -4.66699 2 -6zM410.002 594.998
c0 22 -3.49707 40.168 -10.4971 54.501s-16.833 25.833 -29.5 34.5s-27.334 14.834 -44.001 18.501s-34.334 5.5 -53.001 5.5c-21.333 0 -40.833 -1.66699 -58.5 -5s-33 -9.16602 -46 -17.499s-23 -19.833 -30 -34.5s-10.5 -33.334 -10.5 -56.001v-6
c0 -10 1 -19.833 3 -29.5s6.66699 -21.334 14 -35.001s18.333 -30.334 33 -50.001s35 -44.167 61 -73.5l37 22c27.333 16 49.666 30.833 66.999 44.5s31 26.834 41 39.501s16.833 25.667 20.5 39s5.5 27.666 5.5 42.999v6zM328.005 237.999l-54.001 58.502l-45 49.5
c-25.333 -16 -46.5 -30.5 -63.5 -43.5s-30.5 -25.833 -40.5 -38.5s-17.167 -26.334 -21.5 -41.001s-6.5 -31.334 -6.5 -50.001v-6c0 -24.667 5.16699 -45.5 15.5 -62.5s23.833 -30.667 40.5 -41s35.834 -17.833 57.501 -22.5s43.5 -7 65.5 -7c39.333 0 73.5 6.5 102.5 19.5
s53.5 30.167 73.5 51.5z" />
    <glyph glyph-name="quotesingle" unicode="'" horiz-adv-x="170" 
d="M131 732c0 -3.33301 -0.334961 -6 -1.00195 -8l-48 -172c-3.33301 -12.667 -9.66602 -19 -18.999 -19h-15c-6 0 -9 3.33301 -9 10v4.5c0 1.66699 0.333008 3.16699 1 4.5l41 172c2.66699 12.667 9.33398 19 20.001 19h19c7.33301 0 11 -3.66699 11 -11z" />
    <glyph glyph-name="parenleft" unicode="(" horiz-adv-x="265" 
d="M245 -190c0 -3.33301 -2.66699 -5 -8 -5h-30c-7.33301 0 -13 2.33301 -17 7c-23.333 28.667 -43.333 61.5 -60 98.5s-30.167 75.167 -40.5 114.5s-17.833 78.333 -22.5 117s-7 73.667 -7 105v54c0 31.333 2.33301 66.333 7 105s12.167 77.667 22.5 117
s23.833 77.5 40.5 114.5s36.667 69.833 60 98.5c4 4.66699 9.66699 7 17 7h30c5.33301 0 8 -1.66699 8 -5c0 -2.66699 -1.66699 -5.66699 -5 -9c-23.333 -24.667 -43.333 -54.834 -60 -90.501s-30.667 -73.167 -42 -112.5s-19.666 -78.666 -24.999 -117.999s-8 -75 -8 -107
v-54c0 -32 2.66699 -67.667 8 -107s13.666 -78.666 24.999 -117.999s25.333 -76.833 42 -112.5s36.667 -65.834 60 -90.501c3.33301 -3.33301 5 -6.33301 5 -9z" />
    <glyph glyph-name="parenright" unicode=")" horiz-adv-x="265" 
d="M205 247c0 -31.333 -2.33301 -66.333 -7 -105s-12.167 -77.667 -22.5 -117s-23.833 -77.5 -40.5 -114.5s-36.667 -69.833 -60 -98.5c-4 -4.66699 -9.66699 -7 -17 -7h-30c-5.33301 0 -8 1.66699 -8 5c0 2.66699 1.66699 5.66699 5 9
c22.667 24.667 42.5 54.834 59.5 90.501s31.167 73.167 42.5 112.5s19.666 78.666 24.999 117.999s8 75 8 107v54c0 32 -2.66699 67.667 -8 107s-13.666 78.666 -24.999 117.999s-25.5 76.833 -42.5 112.5s-36.833 65.834 -59.5 90.501c-3.33301 3.33301 -5 6.33301 -5 9
c0 3.33301 2.66699 5 8 5h30c7.33301 0 13 -2.33301 17 -7c23.333 -28.667 43.333 -61.5 60 -98.5s30.167 -75.167 40.5 -114.5s17.833 -78.333 22.5 -117s7 -73.667 7 -105v-54v0z" />
    <glyph glyph-name="asterisk" unicode="*" horiz-adv-x="417" 
d="M383 615c0 -8.66699 -4.66602 -13.999 -13.999 -15.999l-130 -42l80 -111c3.33301 -4.66699 5 -8.66699 5 -12c0 -4.66699 -2 -8.33398 -6 -11.001l-7 -5c-3.33301 -2 -6 -3 -8 -3c-4.66699 0 -9.33398 3 -14.001 9l-81 111l-80 -111c-4 -5.33301 -8.66699 -8 -14 -8
c-3.33301 0 -6 0.666992 -8 2l-8 5c-4 2 -6 5.33301 -6 10c0 4 1.66699 8.33301 5 13l81 111l-130 42c-9.33301 2 -14 7.33301 -14 16c0 2 0.333008 3.33301 1 4l3 8c2 6 6.66699 9 14 9c2.66699 0 5 -0.333008 7 -1l131 -42v137c0 5.33301 1 9.66602 3 12.999
s5.66699 5 11 5h9c5.33301 0 9 -1.66699 11 -5s3 -7.66602 3 -12.999v-137l131 42c2 0.666992 4.33301 1 7 1c7.33301 0 12 -3 14 -9l3 -8c0.666992 -0.666992 1 -2 1 -4z" />
    <glyph glyph-name="plus" unicode="+" 
d="M513 386c0 -5.33301 -2 -9.33301 -6 -12s-8.66699 -4 -14 -4h-182v-181c0 -5.33301 -1.33301 -10 -4 -14s-6.66699 -6 -12 -6h-10c-5.33301 0 -9.33301 2 -12 6s-4 8.66699 -4 14v181h-181c-5.33301 0 -10 1.33301 -14 4s-6 6.66699 -6 12v10c0 5.33301 2 9.33301 6 12
s8.66699 4 14 4h181v182c0 5.33301 1.33301 10 4 14s6.66699 6 12 6h10c5.33301 0 9.33301 -2 12 -6s4 -8.66699 4 -14v-182h182c5.33301 0 10 -1.33301 14 -4s6 -6.66699 6 -12v-10v0z" />
    <glyph glyph-name="comma" unicode="," horiz-adv-x="168" 
d="M130 95c0 -1.33301 -0.667969 -4 -2.00098 -8l-63 -168c-2.66699 -6.66699 -5.16699 -11.5 -7.5 -14.5s-6.16602 -4.5 -11.499 -4.5h-12c-6.66699 0 -10 3.33301 -10 10c0 2 0.666992 5 2 9l53 168c3.33301 12.667 10 19 20 19h19c8 0 12 -3.66699 12 -11z" />
    <glyph glyph-name="hyphen" unicode="-" horiz-adv-x="344" 
d="M292 273c0 -10.667 -6.33301 -16 -19 -16h-202c-12.667 0 -19 5.33301 -19 16v8c0 5.33301 1.83301 9.66602 5.5 12.999s8.16699 5 13.5 5h202c5.33301 0 9.83301 -1.66699 13.5 -5s5.5 -7.66602 5.5 -12.999v-8v0z" />
    <glyph glyph-name="period" unicode="." horiz-adv-x="168" 
d="M106 13c0 -5.33301 -1.83301 -9.83301 -5.5 -13.5s-8.16699 -5.5 -13.5 -5.5h-6c-5.33301 0 -9.83301 1.83301 -13.5 5.5s-5.5 8.16699 -5.5 13.5v74c0 5.33301 1.83301 9.83301 5.5 13.5s8.16699 5.5 13.5 5.5h6c5.33301 0 9.83301 -1.83301 13.5 -5.5
s5.5 -8.16699 5.5 -13.5v-74v0z" />
    <glyph glyph-name="slash" unicode="/" horiz-adv-x="312" 
d="M298 736c0 -3.33301 -0.333008 -5.66699 -1 -7l-235 -716c-1.33301 -4.66699 -3 -9 -5 -13s-5.66699 -6 -11 -6h-22c-6.66699 0 -10 4 -10 12c0 3.33301 0.333008 5.66602 1 6.99902l235 716c1.33301 4.66699 3 9 5 13s5.66699 6 11 6h21c4 0 6.83301 -1.16699 8.5 -3.5
s2.5 -5.16602 2.5 -8.49902z" />
    <glyph glyph-name="zero" unicode="0" 
d="M520 273c0 -48 -5.5 -89.667 -16.5 -125s-26.5 -64.333 -46.5 -87s-44.167 -39.5 -72.5 -50.5s-59.833 -16.5 -94.5 -16.5c-35.333 0 -67.166 5.5 -95.499 16.5s-52.5 27.833 -72.5 50.5s-35.333 51.667 -46 87s-16 77 -16 125v197c0 48 5.33301 89.5 16 124.5
s26 63.833 46 86.5s44.167 39.5 72.5 50.5s60.166 16.5 95.499 16.5c34.667 0 66.167 -5.5 94.5 -16.5s52.5 -27.833 72.5 -50.5s35.5 -51.5 46.5 -86.5s16.5 -76.5 16.5 -124.5v-197zM476 470c0 79.333 -15.833 138.833 -47.5 178.5s-77.834 59.5 -138.501 59.5
s-106.834 -19.833 -138.501 -59.5s-47.5 -99.167 -47.5 -178.5v-197c0 -79.333 15.833 -139 47.5 -179s77.834 -60 138.501 -60s106.834 20 138.501 60s47.5 99.667 47.5 179v197z" />
    <glyph glyph-name="one" unicode="1" 
d="M256 41v659.002l-172 -22h-5c-6 0 -10 1.33301 -12 4s-3 5.66699 -3 9v5c0 7.33301 2 12.166 6 14.499s8.66699 4.16602 14 5.49902l193 27h5c12 0 18 -6.66699 18 -20v-682h171c5.33301 0 10 -1.16699 14 -3.5s6 -6.16602 6 -11.499v-11
c0 -5.33301 -2 -9.16602 -6 -11.499s-8.66699 -3.5 -14 -3.5h-386c-5.33301 0 -10 1.16699 -14 3.5s-6 6.16602 -6 11.499v11c0 5.33301 2 9.16602 6 11.499s8.66699 3.5 14 3.5h171z" />
    <glyph glyph-name="two" unicode="2" 
d="M500 573c0 -18.667 -2.17188 -35.832 -6.50488 -51.499s-11.666 -31 -21.999 -46s-24.166 -30.167 -41.499 -45.5s-39 -31.666 -65 -48.999l-102 -69c-32 -22 -57.333 -42.167 -76 -60.5s-32.5 -36.333 -41.5 -54s-14.667 -35.834 -17 -54.501s-3.5 -39.334 -3.5 -62.001
v-40h346c5.33301 0 10 -1.16699 14 -3.5s6 -6.16602 6 -11.499v-11c0 -5.33301 -2 -9.16602 -6 -11.499s-8.66699 -3.5 -14 -3.5h-371c-6 0 -10.833 2 -14.5 6s-5.5 8.66699 -5.5 14v61c0 24.667 1.66699 48 5 70s10.5 43.667 21.5 65s26.667 42.666 47 63.999
s47.5 43.333 81.5 66l102 69c22.667 15.333 41.334 29.166 56.001 41.499s26.334 24.5 35.001 36.5s14.834 24.333 18.501 37s5.5 27 5.5 43c0 45.333 -14 78.833 -42 100.5s-75.333 32.5 -142 32.5c-23.333 0 -48.333 -1.16699 -75 -3.5s-52.667 -6.16602 -78 -11.499
c-1.33301 0 -2.33301 -0.166992 -3 -0.5s-1.33398 -0.5 -2.00098 -0.5c-10.667 0 -16 5.33301 -16 16v11c0 5.33301 1.83301 9 5.5 11s8.16699 3.66699 13.5 5c25.333 5.33301 50.833 9.16602 76.5 11.499s51.834 3.5 78.501 3.5c75.333 0 132.833 -14 172.5 -42
s59.5 -72.333 59.5 -133z" />
    <glyph glyph-name="three" unicode="3" 
d="M496 206c0 -38 -5.83398 -70.3301 -17.501 -96.9971s-28.334 -48.5 -50.001 -65.5s-47.834 -29.5 -78.501 -37.5s-64.667 -12 -102 -12c-26.667 0 -52.834 1.5 -78.501 4.5s-48.167 6.5 -67.5 10.5c-5.33301 1.33301 -9.66602 3.5 -12.999 6.5s-5 6.83301 -5 11.5v6
c0 10.667 5.33301 16 16 16h4c21.333 -3.33301 44.833 -6.33301 70.5 -9s50.167 -4 73.5 -4c68.667 0 119.334 13.167 152.001 39.5s49 69.833 49 130.5v20c0 13.333 -2.5 28.333 -7.5 45s-13 32.167 -24 46.5s-25.667 26.5 -44 36.5s-40.5 15 -66.5 15h-187
c-5.33301 0 -9.83301 1.66699 -13.5 5s-5.5 7.66602 -5.5 12.999v7c0 12 6.33301 18 19 18h187c28.667 0 52.334 4.83301 71.001 14.5s33.167 21.667 43.5 36s17.5 29.666 21.5 45.999s6 31.166 6 44.499v12c0 28 -4.16699 51.167 -12.5 69.5s-20.833 32.833 -37.5 43.5
s-37.667 18 -63 22s-54.666 6 -87.999 6c-23.333 0 -47.833 -1.66699 -73.5 -5s-49.167 -6.66602 -70.5 -9.99902h-4c-10.667 0 -16 5.33301 -16 16v8c0 4.66699 1.66699 8.5 5 11.5s7.66602 5.16699 12.999 6.5c19.333 3.33301 41.833 6.66602 67.5 9.99902
s51.834 5 78.501 5c38.667 0 73.334 -2.66699 104.001 -8s56.667 -15 78 -29s37.666 -32.833 48.999 -56.5s17 -53.5 17 -89.5v-12c0 -16 -1.83301 -32 -5.5 -48s-9.5 -31.333 -17.5 -46s-18.667 -28 -32 -40s-29.666 -22.333 -48.999 -31
c19.333 -8.66699 35.666 -19.667 48.999 -33s24 -27.333 32 -42s13.833 -29.667 17.5 -45s5.5 -29.333 5.5 -42v-20v0z" />
    <glyph glyph-name="four" unicode="4" 
d="M542 233c0 -5.33301 -1.83203 -9.49902 -5.49902 -12.499s-8.16699 -4.5 -13.5 -4.5h-100v-197c0 -5.33301 -1.33301 -9.83301 -4 -13.5s-6.66699 -5.5 -12 -5.5h-12c-5.33301 0 -9.33301 1.83301 -12 5.5s-4 8.16699 -4 13.5v197h-277
c-20.667 0 -36.5 5.16699 -47.5 15.5s-16.5 23.166 -16.5 38.499c0 8 1 15.167 3 21.5s5.66699 13.166 11 20.499l280 411c7.33301 11.333 15.666 18.333 24.999 21s18 4 26 4c11.333 0 20.833 -3.66699 28.5 -11s11.5 -19.666 11.5 -36.999v-442h100
c5.33301 0 9.83301 -1.33301 13.5 -4s5.5 -6.66699 5.5 -12v-9zM379.001 694.001c0 5.33301 -2 8 -6 8c-2.66699 0 -6 -2.66699 -10 -8l-273 -401c-2.66699 -4 -5 -8 -7 -12s-3 -7.66699 -3 -11c0 -8 7.33301 -12 22 -12h277v436z" />
    <glyph glyph-name="five" unicode="5" 
d="M503 215c0 -36 -6.16797 -67.832 -18.501 -95.499s-29.666 -50.834 -51.999 -69.501s-49 -32.667 -80 -42s-65.167 -14 -102.5 -14c-35.333 0 -64.5 1.66699 -87.5 5s-45.167 7.66602 -66.5 12.999c-12.667 2 -19 8.33301 -19 19v11c0 8.66699 4.33301 13 13 13
c3.33301 0 6 -0.333008 8 -1c23.333 -5.33301 48 -9.66602 74 -12.999s52 -5 78 -5c66.667 0 118.167 14.667 154.5 44s54.5 74.333 54.5 135v25c0 29.333 -4.66699 54 -14 74s-23.833 36 -43.5 48s-44.667 20.5 -75 25.5s-66.5 7.5 -108.5 7.5h-106
c-13.333 0 -20 6.66699 -20 20v2l23 309c0.666992 5.33301 3 9.5 7 12.5s8.33301 4.5 13 4.5h326c5.33301 0 10 -1.33301 14 -4s6 -6.66699 6 -12v-11c0 -5.33301 -2 -9 -6 -11s-8.66699 -3 -14 -3h-303l-18 -266h78c54.667 0 100.167 -4.16699 136.5 -12.5
s65.5 -20.833 87.5 -37.5s37.667 -37.167 47 -61.5s14 -52.5 14 -84.5v-25v0z" />
    <glyph glyph-name="six" unicode="6" 
d="M516 251c0 -85.333 -18.1709 -149.499 -54.5039 -192.499s-95.166 -64.5 -176.499 -64.5c-75.333 0 -131 21.167 -167 63.5s-54 107.5 -54 195.5v235c0 46.667 5.33301 86.5 16 119.5s26.334 60 47.001 81s46.167 36.167 76.5 45.5s65.5 14 105.5 14
c18 0 34 -0.5 48 -1.5s27.167 -2.33301 39.5 -4s24.333 -3.66699 36 -6s23.5 -4.83301 35.5 -7.5c5.33301 -1.33301 10.333 -3.33301 15 -6s7 -6.66699 7 -12v-10c0 -9.33301 -5.33301 -14 -16 -14c-3.33301 0 -6 0.333008 -8 1l-37.5 7.5
c-11.667 2.33301 -23.5 4.16602 -35.5 5.49902s-24.833 2.5 -38.5 3.5s-28.834 1.5 -45.501 1.5c-34 0 -63.667 -3.66699 -89 -11s-46.166 -19.5 -62.499 -36.5s-28.666 -39.5 -36.999 -67.5s-12.5 -62.333 -12.5 -103v-62c25.333 6.66699 53.833 12.667 85.5 18
s64.834 8 99.501 8c27.333 0 54.333 -3.16699 81 -9.5s50.5 -17 71.5 -32s38 -35 51 -60s19.5 -56.5 19.5 -94.5v-5zM471.996 256.001c0 30.667 -5.33691 55.999 -16.0039 75.999s-24.5 35.833 -41.5 47.5s-36.167 19.834 -57.5 24.501s-42.666 7 -63.999 7
c-17.333 0 -34.666 -0.666992 -51.999 -2s-34.166 -3.16602 -50.499 -5.49902s-31.5 -5 -45.5 -8s-26.333 -5.83301 -37 -8.5v-134c0 -80 14.333 -136.5 43 -169.5s73.334 -49.5 134.001 -49.5c30 0 56.5 3.83301 79.5 11.5s42.5 20.167 58.5 37.5
s28.167 39.666 36.5 66.999s12.5 61 12.5 101v5z" />
    <glyph glyph-name="seven" unicode="7" 
d="M517 708c0 -8 -1.66699 -15.333 -5 -22l-320 -676c-1.33301 -2.66699 -3.83301 -5 -7.5 -7s-7.16699 -3 -10.5 -3h-15c-5.33301 0 -9.16602 1.5 -11.499 4.5s-3.5 6.5 -3.5 10.5s1 8 3 12l316 659c0.666992 1.33301 1 3.33301 1 6c0 5.33301 -2.66699 8 -8 8h-374
c-5.33301 0 -10 1.33301 -14 4s-6 6.66699 -6 12v8c0 5.33301 2 9.83301 6 13.5s8.66699 5.5 14 5.5h396c11.333 0 20.666 -3.16699 27.999 -9.5s11 -14.833 11 -25.5z" />
    <glyph glyph-name="eight" unicode="8" 
d="M524 197c0 -34.667 -5.83691 -64.667 -17.5039 -90s-28 -46.333 -49 -63s-45.667 -29.167 -74 -37.5s-59.5 -12.5 -93.5 -12.5s-65.167 4.16699 -93.5 12.5s-53 20.833 -74 37.5s-37.333 37.667 -49 63s-17.5 55.333 -17.5 90v30c0 14 2 28.667 6 44s10.333 30.5 19 45.5
s19.5 28.833 32.5 41.5s28.5 23 46.5 31c-32.667 11.333 -58.167 31.333 -76.5 60s-27.5 60.334 -27.5 95.001v22c0 31.333 5.66699 58.5 17 81.5s27.333 42 48 57s45.334 26 74.001 33s60.334 10.5 95.001 10.5s66.334 -3.5 95.001 -10.5s53.334 -18 74.001 -33
s36.667 -34 48 -57s17 -50.167 17 -81.5v-22c0 -34.667 -9.16699 -66.334 -27.5 -95.001s-43.833 -48.667 -76.5 -60c18 -8 33.5 -18.333 46.5 -31s23.833 -26.5 32.5 -41.5s15 -30.167 19 -45.5s6 -30 6 -44v-30zM476.996 566c0 49.333 -16.1689 85 -48.502 107
s-78.5 33 -138.5 33s-106.167 -11 -138.5 -33s-48.5 -57.667 -48.5 -107v-22c0 -14 2.33301 -28.833 7 -44.5s12.5 -30 23.5 -43s25.833 -23.667 44.5 -32s42.334 -12.5 71.001 -12.5h82c28.667 0 52.334 4.16699 71.001 12.5s33.5 19 44.5 32s18.833 27.333 23.5 43
s7 30.5 7 44.5v22zM476.994 227c0 11.333 -2.16699 25.166 -6.5 41.499s-12 32 -23 47s-26 27.667 -45 38s-42.833 15.5 -71.5 15.5h-82c-28.667 0 -52.5 -5.16699 -71.5 -15.5s-34 -23 -45 -38s-18.667 -30.667 -23 -47s-6.5 -30.166 -6.5 -41.499v-30
c0 -53.333 16.167 -93.5 48.5 -120.5s78.5 -40.5 138.5 -40.5s106.167 13.5 138.5 40.5s48.5 67.167 48.5 120.5v30z" />
    <glyph glyph-name="nine" unicode="9" 
d="M516 254c0 -47.333 -5.3291 -87.334 -15.9961 -120.001s-26.334 -59.5 -47.001 -80.5s-46.167 -36.167 -76.5 -45.5s-65.5 -14 -105.5 -14c-18 0 -34 0.5 -48 1.5s-27.167 2.33301 -39.5 4s-24.333 3.66699 -36 6s-23.5 4.83301 -35.5 7.5
c-5.33301 1.33301 -10.333 3.33301 -15 6s-7 6.66699 -7 12v10c0 9.33301 5.33301 14 16 14c3.33301 0 6 -0.333008 8 -1l37.5 -7.5c11.667 -2.33301 23.5 -4.16602 35.5 -5.49902s24.833 -2.5 38.5 -3.5s28.834 -1.5 45.501 -1.5c34 0 63.667 3.66699 89 11
s46.166 19.5 62.499 36.5s28.666 39.5 36.999 67.5s12.5 62.333 12.5 103v62c-25.333 -6.66699 -53.833 -12.667 -85.5 -18s-64.834 -8 -99.501 -8c-27.333 0 -54.333 3.16699 -81 9.5s-50.5 17 -71.5 32s-38 35 -51 60s-19.5 56.5 -19.5 94.5v5
c0 85.333 18.167 149.5 54.5 192.5s95.166 64.5 176.499 64.5c75.333 0 131 -21.167 167 -63.5s54 -107.5 54 -195.5v-235zM472.004 488.999c0 80 -14.332 136.501 -42.999 169.501s-73.334 49.5 -134.001 49.5c-30 0 -56.5 -3.83301 -79.5 -11.5s-42.5 -20.167 -58.5 -37.5
s-28.167 -39.666 -36.5 -66.999s-12.5 -61 -12.5 -101v-5c0 -30.667 5.33301 -56 16 -76s24.5 -35.833 41.5 -47.5s36.167 -19.834 57.5 -24.501s42.666 -7 63.999 -7c16.667 0 33.834 0.666992 51.501 2s34.667 3.16602 51 5.49902s31.5 5 45.5 8s26.333 5.83301 37 8.5
v134z" />
    <glyph glyph-name="colon" unicode=":" horiz-adv-x="178" 
d="M111 449c0 -5.33301 -1.83301 -9.83301 -5.5 -13.5s-8.16699 -5.5 -13.5 -5.5h-6c-5.33301 0 -9.83301 1.83301 -13.5 5.5s-5.5 8.16699 -5.5 13.5v74c0 5.33301 1.83301 9.83301 5.5 13.5s8.16699 5.5 13.5 5.5h6c5.33301 0 9.83301 -1.83301 13.5 -5.5
s5.5 -8.16699 5.5 -13.5v-74zM111 13c0 -5.33301 -1.83301 -9.83301 -5.5 -13.5s-8.16699 -5.5 -13.5 -5.5h-6c-5.33301 0 -9.83301 1.83301 -13.5 5.5s-5.5 8.16699 -5.5 13.5v74c0 5.33301 1.83301 9.83301 5.5 13.5s8.16699 5.5 13.5 5.5h6
c5.33301 0 9.83301 -1.83301 13.5 -5.5s5.5 -8.16699 5.5 -13.5v-74z" />
    <glyph glyph-name="semicolon" unicode=";" horiz-adv-x="178" 
d="M111 449c0 -5.33301 -1.83301 -9.83301 -5.5 -13.5s-8.16699 -5.5 -13.5 -5.5h-6c-5.33301 0 -9.83301 1.83301 -13.5 5.5s-5.5 8.16699 -5.5 13.5v74c0 5.33301 1.83301 9.83301 5.5 13.5s8.16699 5.5 13.5 5.5h6c5.33301 0 9.83301 -1.83301 13.5 -5.5
s5.5 -8.16699 5.5 -13.5v-74zM118 95c0 -1.33301 -0.667969 -4 -2.00098 -8l-63 -168c-2.66699 -6.66699 -5.16699 -11.5 -7.5 -14.5s-6.16602 -4.5 -11.499 -4.5h-12c-6.66699 0 -10 3.33301 -10 10c0 2 0.666992 5 2 9l53 168c3.33301 12.667 10 19 20 19h19
c8 0 12 -3.66699 12 -11z" />
    <glyph glyph-name="less" unicode="&#x3c;" 
d="M431 159c0 -4 -1.66699 -7.66699 -5 -11l-7 -7c-2.66699 -2.66699 -6 -4 -10 -4c-4.66699 0 -10 2.33301 -16 7l-266 218c-10 8 -15 17.667 -15 29s5 21 15 29l266 218c6 4.66699 11.333 7 16 7c4 0 7.33301 -1.33301 10 -4l7 -7c3.33301 -3.33301 5 -7 5 -11
c0 -6 -2.66699 -11 -8 -15l-265 -217l265 -217c5.33301 -4 8 -9 8 -15z" />
    <glyph glyph-name="equal" unicode="=" 
d="M493 486c0 -5.33301 -2 -9.33301 -6 -12s-8.66699 -4 -14 -4h-365c-5.33301 0 -10 1.33301 -14 4s-6 6.66699 -6 12v10c0 5.33301 2 9.33301 6 12s8.66699 4 14 4h365c5.33301 0 10 -1.33301 14 -4s6 -6.66699 6 -12v-10zM493 286c0 -5.33301 -2 -9.33301 -6 -12
s-8.66699 -4 -14 -4h-365c-5.33301 0 -10 1.33301 -14 4s-6 6.66699 -6 12v10c0 5.33301 2 9.33301 6 12s8.66699 4 14 4h365c5.33301 0 10 -1.33301 14 -4s6 -6.66699 6 -12v-10z" />
    <glyph glyph-name="greater" unicode="&#x3e;" 
d="M482 391c0 -11.333 -5 -21 -15 -29l-266 -218c-6 -4.66699 -11.333 -7 -16 -7c-4 0 -7.33301 1.33301 -10 4l-7 7c-3.33301 3.33301 -5 7 -5 11c0 6 2.66699 11 8 15l265 217l-265 217c-5.33301 4 -8 9 -8 15c0 4 1.66699 7.66699 5 11l7 7c2.66699 2.66699 6 4 10 4
c4.66699 0 10 -2.33301 16 -7l266 -218c10 -8 15 -17.667 15 -29z" />
    <glyph glyph-name="question" unicode="?" horiz-adv-x="424" 
d="M364 595c0 -15.333 -1.66797 -29.667 -5.00098 -43s-9.16602 -27.166 -17.499 -41.499s-19.5 -29.833 -33.5 -46.5s-32 -36 -54 -58l-30 -30c-12.667 -12.667 -22.834 -23.667 -30.501 -33s-13.667 -18.5 -18 -27.5s-7.33301 -18.333 -9 -28s-2.5 -21.5 -2.5 -35.5v-60
c0 -5.33301 -1.83301 -9.83301 -5.5 -13.5s-8.16699 -5.5 -13.5 -5.5h-6c-5.33301 0 -9.83301 1.83301 -13.5 5.5s-5.5 8.16699 -5.5 13.5v60c0 16 1.16699 30.5 3.5 43.5s6.33301 25.333 12 37s13.167 23.5 22.5 35.5s21.333 25.333 36 40l28 28c20 20 36 37.167 48 51.5
s21.5 27.5 28.5 39.5s11.667 23.333 14 34s3.5 22 3.5 34v8c0 38 -12 65.167 -36 81.5s-60.333 24.5 -109 24.5c-23.333 0 -43.5 -0.666992 -60.5 -2s-37.167 -3 -60.5 -5h-2c-8.66699 0 -13 4 -13 12v8c0 4.66699 1 8.66699 3 12s6.66699 5.66602 14 6.99902
c20.667 2.66699 40.834 4.5 60.501 5.5s39.167 1.5 58.5 1.5c24.667 0 48.5 -2.33301 71.5 -7s43.5 -12.667 61.5 -24s32.5 -26.333 43.5 -45s16.5 -41.667 16.5 -69v-8zM162.999 12.999c0 -5.33301 -1.83301 -9.83301 -5.5 -13.5s-8.16699 -5.5 -13.5 -5.5h-6
c-5.33301 0 -9.83301 1.83301 -13.5 5.5s-5.5 8.16699 -5.5 13.5v74c0 5.33301 1.83301 9.83301 5.5 13.5s8.16699 5.5 13.5 5.5h6c5.33301 0 9.83301 -1.83301 13.5 -5.5s5.5 -8.16699 5.5 -13.5v-74z" />
    <glyph glyph-name="at" unicode="@" horiz-adv-x="758" 
d="M708 373c0 -34 -1.49902 -64.333 -4.49902 -91s-7.83301 -50 -14.5 -70s-15 -37.333 -25 -52s-22.333 -27.334 -37 -38.001c-28 -20.667 -64.333 -35.334 -109 -44.001s-99 -13 -163 -13c-48.667 0 -84.334 12.5 -107.001 37.5s-34 56.167 -34 93.5v9
c0 2.66699 0.333008 5.66699 1 9l11 118c2 20.667 6.66699 40 14 58s17.5 33.5 30.5 46.5s29.167 23.333 48.5 31s42 11.5 68 11.5c21.333 0 43.166 -1.5 65.499 -4.5s41.5 -6.16699 57.5 -9.5c4 -1.33301 7.33301 -2.83301 10 -4.5s4 -4.5 4 -8.5v-2l-31 -339
c42 4.66699 74.5 14.5 97.5 29.5s40 34 51 57s17.667 49.333 20 79s3.5 61.834 3.5 96.501c0 33.333 -5.66699 64.333 -17 93s-27.666 53.667 -48.999 75s-48 38 -80 50s-68.333 18 -109 18c-44 0 -83.667 -6.83301 -119 -20.5s-66 -32.5 -92 -56.5s-46.833 -52 -62.5 -84
s-25.167 -66.333 -28.5 -103l-14 -142c-0.666992 -5.33301 -1 -10.333 -1 -15v-14c0 -31.333 5 -61.333 15 -90s25.5 -53.667 46.5 -75s47.5 -38.333 79.5 -51s70 -19 114 -19c10.667 0 22 0.166992 34 0.5l35 1c11.333 0.333008 21.833 0.833008 31.5 1.5
s18.167 1.33398 25.5 2.00098h1h3c4.66699 0 8.33398 -0.666992 11.001 -2s4 -4.66602 4 -9.99902c0 -2.66699 -0.333008 -5 -1 -7c-2 -8.66699 -8.66699 -14 -20 -16c-8 -1.33301 -17.167 -2.33301 -27.5 -3s-21.333 -1.5 -33 -2.5s-23.334 -1.66699 -35.001 -2
s-22.5 -0.5 -32.5 -0.5c-48 0 -90.333 7.5 -127 22.5s-67.334 35 -92.001 60s-43.334 54 -56.001 87s-19 67.5 -19 103.5v14.5c0 4.33301 0.333008 9.16602 1 14.499l14 143c4 42 14.833 81.333 32.5 118s41.334 68.667 71.001 96s65 48.833 106 64.5
s87.167 23.5 138.5 23.5c48 0 90.5 -7.66699 127.5 -23s67.833 -35.833 92.5 -61.5s43.334 -55 56.001 -88s19 -67.167 19 -102.5zM479.001 431c-13.333 2 -28.335 4.00098 -45.002 6.00098s-33 3 -49 3c-38 0 -66.167 -9.83301 -84.5 -29.5s-29.166 -46.167 -32.499 -79.5
l-11 -117c-0.666992 -3.33301 -1 -6.33301 -1 -9v-8c0 -28 7.83301 -50.333 23.5 -67s40.834 -25 75.501 -25h34c11.333 0 22 0.166992 32 0.5s19.667 1.16602 29 2.49902z" />
    <glyph glyph-name="A" unicode="A" horiz-adv-x="619" 
d="M579 22c2 -7.33301 2 -13.334 0 -18.001s-6.66699 -7 -14 -7h-12c-8 0 -13.333 4.33301 -16 13l-84 271h-288l-82 -271c-1.33301 -3.33301 -3.5 -6.33301 -6.5 -9s-6.16699 -4 -9.5 -4h-13c-6.66699 0 -11.167 2.33301 -13.5 7s-2.5 10.667 -0.5 18l205 677
c4.66699 15.333 12.5 27.333 23.5 36s24.833 13 41.5 13c16 0 29.5 -4.16699 40.5 -12.5s18.833 -20.166 23.5 -35.499zM333 687.999c-1.33301 5.33301 -3.66992 10 -7.00293 14s-8.66602 6 -15.999 6s-12.666 -1.83301 -15.999 -5.5s-5.66602 -8.16699 -6.99902 -13.5
l-110 -364h265z" />
    <glyph glyph-name="B" unicode="B" 
d="M528 203c0 -44 -8.66699 -79.8301 -26 -107.497s-39.5 -49 -66.5 -64s-57 -25.167 -90 -30.5s-65.167 -8 -96.5 -8c-26 0 -51.833 0.666992 -77.5 2s-49.834 3.33301 -72.501 6c-12.667 0.666992 -19 7 -19 19v703c0 5.33301 1.83301 9.66602 5.5 12.999
s8.16699 5.33301 13.5 6c20.667 1.33301 44.5 2.66602 71.5 3.99902s53.167 2 78.5 2c34 0 67.5 -2.33301 100.5 -7s62.5 -13.667 88.5 -27s46.833 -31.833 62.5 -55.5s23.5 -54.167 23.5 -91.5v-11c0 -42 -10.5 -76.833 -31.5 -104.5s-50.167 -48.167 -87.5 -61.5
c38.667 -11.333 68.834 -31.333 90.501 -60s32.5 -65.334 32.5 -110.001v-17zM480 567.003c0 30.667 -6.5 55.334 -19.5 74.001s-30.333 33 -52 43s-46.334 16.667 -74.001 20s-56.167 5 -85.5 5c-22 0 -44 -0.5 -66 -1.5s-41.667 -1.83301 -59 -2.5v-293h181
c34.667 0 63.334 4 86.001 12s40.667 18.667 54 32s22.5 28.666 27.5 45.999s7.5 35.333 7.5 54v11zM484 220.003c0 19.333 -2.66797 38 -8.00098 56s-14.833 33.833 -28.5 47.5s-32 24.667 -55 33s-52.167 12.5 -87.5 12.5h-181v-330
c21.333 -1.33301 41.333 -2.66602 60 -3.99902s40.334 -2 65.001 -2c30 0 59.167 2 87.5 6s53.333 12.167 75 24.5s39.167 29.666 52.5 51.999s20 51.5 20 87.5v17z" />
    <glyph glyph-name="C" unicode="C" horiz-adv-x="537" 
d="M497 21c0 -5.33301 -2 -9.33301 -6 -12s-8.33301 -4.33398 -13 -5.00098l-62 -6c-28 -2.66699 -65 -4 -111 -4c-31.333 0 -61.666 5 -90.999 15s-55.5 27 -78.5 51s-41.333 55.833 -55 95.5s-20.5 89.5 -20.5 149.5v132c0 60 6.83301 109.833 20.5 149.5s32 71.5 55 95.5
s49.167 41 78.5 51s59.666 15 90.999 15c46 0 83 -1.33301 111 -4l62 -6c4.66699 -0.666992 9 -2.33398 13 -5.00098s6 -6.66699 6 -12v-12c0 -6 -1.83301 -9.66699 -5.5 -11s-8.16699 -1.66602 -13.5 -0.999023c-9.33301 0.666992 -20.666 1.66699 -33.999 3
s-27.666 2.33301 -42.999 3l-48 2c-16.667 0.666992 -32.667 1 -48 1c-28 0 -54.167 -4.83301 -78.5 -14.5s-45.666 -25.167 -63.999 -46.5s-32.666 -49 -42.999 -83s-15.5 -75.667 -15.5 -125v-132c0 -49.333 5.16699 -91 15.5 -125s24.666 -61.667 42.999 -83
s39.666 -36.833 63.999 -46.5s50.5 -14.5 78.5 -14.5c15.333 0 31.333 0.333008 48 1l48 2c15.333 0.666992 29.666 1.5 42.999 2.5s24.666 2.16699 33.999 3.5c5.33301 0.666992 9.83301 0.333984 13.5 -0.999023s5.5 -5 5.5 -11v-12v0z" />
    <glyph glyph-name="D" unicode="D" horiz-adv-x="613" 
d="M553 309c0 -57.333 -7.16699 -105.998 -21.5 -145.998s-34.5 -72.5 -60.5 -97.5s-56.833 -43.167 -92.5 -54.5s-74.834 -17 -117.501 -17c-78.667 0 -133.334 2.66699 -164.001 8c-4.66699 1.33301 -8.66699 3.66602 -12 6.99902s-5 7.33301 -5 12v700
c0 4.66699 1.66699 8.66699 5 12s7.33301 5.66602 12 6.99902c30.667 5.33301 85.334 8 164.001 8c42.667 0 81.834 -5.5 117.501 -16.5s66.5 -28.833 92.5 -53.5s46.167 -57 60.5 -97s21.5 -89.333 21.5 -148v-124zM509 433.002c0 53.333 -6.33301 97.6689 -19 133.002
s-30.167 63.666 -52.5 84.999s-48.666 36.333 -78.999 45s-62.833 13 -97.5 13c-29.333 0 -54 -0.666992 -74 -2l-63 -4v-666c22 -1.33301 43 -2.33301 63 -3s44.667 -1 74 -1c34.667 0 67.167 4.5 97.5 13.5s56.666 24.167 78.999 45.5s39.833 49.666 52.5 84.999
s19 79.333 19 132v124z" />
    <glyph glyph-name="E" unicode="E" horiz-adv-x="533" 
d="M478 17c0 -11.333 -6.33301 -17.002 -19 -17.002h-258c-38 0 -67.667 8.16699 -89 24.5s-32 45.5 -32 87.5v519c0 42 10.667 71.167 32 87.5s51 24.5 89 24.5h258c12.667 0 19 -5.66699 19 -17v-8c0 -10.667 -6.33301 -16 -19 -16h-258
c-12 0 -22.833 -0.833008 -32.5 -2.5s-17.667 -5 -24 -10s-11.333 -12.167 -15 -21.5s-5.5 -21.666 -5.5 -36.999v-220h335c12.667 0 19 -5.33301 19 -16v-10c0 -11.333 -6.33301 -17 -19 -17h-335v-256c0 -15.333 1.83301 -27.666 5.5 -36.999s8.66699 -16.5 15 -21.5
s14.333 -8.33301 24 -10s20.5 -2.5 32.5 -2.5h258c12.667 0 19 -5.33301 19 -16v-8v0z" />
    <glyph glyph-name="F" unicode="F" horiz-adv-x="518" 
d="M478 385c0 -11.333 -6.33301 -17.001 -19 -17.001h-335v-349c0 -5.33301 -1.5 -9.83301 -4.5 -13.5s-7.16699 -5.5 -12.5 -5.5h-10c-5.33301 0 -9.5 1.83301 -12.5 5.5s-4.5 8.16699 -4.5 13.5v612c0 42 10.667 71.167 32 87.5s51 24.5 89 24.5h258
c12.667 0 19 -5.66699 19 -17v-8c0 -10.667 -6.33301 -16 -19 -16h-258c-12 0 -22.833 -0.833008 -32.5 -2.5s-17.667 -5 -24 -10s-11.333 -12.167 -15 -21.5s-5.5 -21.666 -5.5 -36.999v-220h335c12.667 0 19 -5.33301 19 -16v-10v0z" />
    <glyph glyph-name="G" unicode="G" horiz-adv-x="588" 
d="M508 712c0 -12 -6.99805 -17.002 -20.998 -15.002c-18 2 -33.833 3.5 -47.5 4.5l-40 3c-13 1 -26.5 1.66699 -40.5 2s-30 0.5 -48 0.5c-25.333 0 -50.333 -4 -75 -12s-46.667 -22.333 -66 -43s-35.166 -48.667 -47.499 -84s-18.5 -80.333 -18.5 -135v-124
c0 -94.667 18.667 -163.834 56 -207.501s87.666 -65.5 150.999 -65.5c42.667 0 76.667 1.16699 102 3.5s42 4.16602 50 5.49902v318c0 12.667 5.66699 19 17 19h10c11.333 0 17 -6.33301 17 -19v-337c0 -5.33301 -1.66699 -9.66602 -5 -12.999s-7.33301 -5.33301 -12 -6
c-12 -1.33301 -24.167 -2.83301 -36.5 -4.5s-25.5 -3.16699 -39.5 -4.5s-29.333 -2.33301 -46 -3s-35.667 -1 -57 -1c-35.333 0 -68.333 6 -99 18s-57.334 30.833 -80.001 56.5s-40.334 58.334 -53.001 98.001s-19 87.167 -19 142.5v124
c0 62.667 7.66699 114.334 23 155.001s35 72.834 59 96.501s50.833 40.167 80.5 49.5s59.167 14 88.5 14c44.667 0 80.5 -1 107.5 -3s51.167 -4.33301 72.5 -7c4.66699 -0.666992 8.66699 -2 12 -4s5 -6 5 -12v-10v0z" />
    <glyph glyph-name="H" unicode="H" horiz-adv-x="647" 
d="M567 19c0 -5.33301 -1.5 -9.83301 -4.5 -13.5s-7.16699 -5.5 -12.5 -5.5h-9c-5.33301 -0 -9.5 1.83301 -12.5 5.5s-4.5 8.16699 -4.5 13.5v358h-400v-358c0 -5.33301 -1.5 -9.83301 -4.5 -13.5s-7.16699 -5.5 -12.5 -5.5h-10c-5.33301 -0 -9.5 1.83301 -12.5 5.5
s-4.5 8.16699 -4.5 13.5v705c0 5.33301 1.5 9.83301 4.5 13.5s7.16699 5.5 12.5 5.5h10c5.33301 0 9.5 -1.83301 12.5 -5.5s4.5 -8.16699 4.5 -13.5v-306h400v306c0 5.33301 1.5 9.83301 4.5 13.5s7.16699 5.5 12.5 5.5h9c5.33301 0 9.5 -1.83301 12.5 -5.5
s4.5 -8.16699 4.5 -13.5v-705v0z" />
    <glyph glyph-name="I" unicode="I" horiz-adv-x="224" 
d="M134 19c0 -5.33301 -1.5 -9.83301 -4.5 -13.5s-7.16699 -5.5 -12.5 -5.5h-10c-5.33301 -0 -9.5 1.83301 -12.5 5.5s-4.5 8.16699 -4.5 13.5v705c0 5.33301 1.5 9.83301 4.5 13.5s7.16699 5.5 12.5 5.5h10c5.33301 0 9.5 -1.83301 12.5 -5.5s4.5 -8.16699 4.5 -13.5v-705
v0z" />
    <glyph glyph-name="J" unicode="J" horiz-adv-x="224" 
d="M134 -60c0 -23.333 -2.33301 -43.499 -7 -60.499s-12.5 -31 -23.5 -42s-25.833 -19.167 -44.5 -24.5s-41.667 -8 -69 -8h-14c-5.33301 0 -10 1 -14 3s-6 5.66699 -6 11v10c0 5.33301 2 9.16602 6 11.499s8.66699 3.5 14 3.5h14c20.667 0 37.5 1.33301 50.5 4
s23.167 7.5 30.5 14.5s12.333 16.667 15 29s4 28.5 4 48.5v784c0 5.33301 1.5 9.83301 4.5 13.5s7.16699 5.5 12.5 5.5h10c5.33301 0 9.5 -1.83301 12.5 -5.5s4.5 -8.16699 4.5 -13.5v-784v0z" />
    <glyph glyph-name="K" unicode="K" horiz-adv-x="542" 
d="M506 730c0 -6.66699 -2.66699 -12.667 -8 -18l-336 -326l343 -356c7.33301 -7.33301 9.5 -14.5 6.5 -21.5s-9.16699 -10.5 -18.5 -10.5c-3.33301 0 -7.16602 0.5 -11.499 1.5s-8.16602 3.16699 -11.499 6.5l-346 360v-347c0 -5.33301 -1.5 -9.83301 -4.5 -13.5
s-7.16699 -5.5 -12.5 -5.5h-10c-5.33301 -0 -9.5 1.83301 -12.5 5.5s-4.5 8.16699 -4.5 13.5v705c0 5.33301 1.83301 9.83301 5.5 13.5s8.16699 5.5 13.5 5.5h6c5.33301 0 9.83301 -1.83301 13.5 -5.5s5.5 -8.16699 5.5 -13.5v-320l340 332
c5.33301 4.66699 9.66602 7.66699 12.999 9s6.66602 2 9.99902 2c5.33301 0 9.83301 -1.83301 13.5 -5.5s5.5 -7.5 5.5 -11.5z" />
    <glyph glyph-name="L" unicode="L" horiz-adv-x="483" 
d="M448 17c0 -11.333 -6.33301 -17.001 -19 -17.001h-228c-38 0 -67.667 8.16699 -89 24.5s-32 45.5 -32 87.5v612c0 5.33301 1.5 9.83301 4.5 13.5s7.16699 5.5 12.5 5.5h10c5.33301 0 9.5 -1.83301 12.5 -5.5s4.5 -8.16699 4.5 -13.5v-612
c0 -15.333 1.83301 -27.666 5.5 -36.999s8.66699 -16.5 15 -21.5s14.333 -8.33301 24 -10s20.5 -2.5 32.5 -2.5h228c12.667 0 19 -5.33301 19 -16v-8v0z" />
    <glyph glyph-name="M" unicode="M" horiz-adv-x="730" 
d="M650 19c0 -5.33301 -1.5 -9.83301 -4.5 -13.5s-7.16699 -5.5 -12.5 -5.5h-10c-5.33301 -0 -9.5 1.83301 -12.5 5.5s-4.5 8.16699 -4.5 13.5v680c0 4.66699 -2.33301 7 -7 7c-3.33301 0 -6.66602 -3 -9.99902 -9l-173 -365
c-7.33301 -14.667 -14.833 -24.334 -22.5 -29.001s-17.167 -7 -28.5 -7s-20.833 2.33301 -28.5 7s-15.167 14.334 -22.5 29.001l-173 365c-3.33301 6 -6.66602 9 -9.99902 9c-4.66699 0 -7 -2.33301 -7 -7v-680c0 -5.33301 -1.5 -9.83301 -4.5 -13.5
s-7.16699 -5.5 -12.5 -5.5h-10c-5.33301 -0 -9.5 1.83301 -12.5 5.5s-4.5 8.16699 -4.5 13.5v680c0 16.667 4.66699 29 14 37s21.666 12 36.999 12c12 0 21.667 -3 29 -9s13 -13.333 17 -22l175 -367c4 -8.66699 8.33301 -13 13 -13s9 4.33301 13 13l175 367
c4 8.66699 9.66699 16 17 22s17 9 29 9c15.333 0 27.666 -4 36.999 -12s14 -20.333 14 -37v-680v0z" />
    <glyph glyph-name="N" unicode="N" horiz-adv-x="651" 
d="M571 45c0 -16 -4.33301 -28.5 -13 -37.5s-19.334 -13.5 -32.001 -13.5c-7.33301 0 -13.666 0.333008 -18.999 1s-10.333 2.66699 -15 6c-7.33301 6 -13.333 13.667 -18 23l-337 675c-2.66699 4.66699 -5.33398 7 -8.00098 7c-3.33301 0 -5 -2.33301 -5 -7v-680
c0 -5.33301 -1.5 -9.83301 -4.5 -13.5s-7.16699 -5.5 -12.5 -5.5h-10c-5.33301 -0 -9.5 1.83301 -12.5 5.5s-4.5 8.16699 -4.5 13.5v680c0 15.333 4.5 27.333 13.5 36s20.833 13 35.5 13c14 0 24.333 -2.83301 31 -8.5s12.334 -13.167 17.001 -22.5l336 -674
c2 -4.66699 4.66699 -7 8 -7c2 0 3.33301 1 4 3s1 4 1 6v679c0 5.33301 1.33301 9.83301 4 13.5s6.66699 5.5 12 5.5h12c5.33301 0 9.5 -1.83301 12.5 -5.5s4.5 -8.16699 4.5 -13.5v-679v0z" />
    <glyph glyph-name="O" unicode="O" horiz-adv-x="632" 
d="M572 309c0 -56 -6.33301 -103.833 -19 -143.5s-30.334 -72.167 -53.001 -97.5s-49.667 -44 -81 -56s-65.666 -18 -102.999 -18s-71.666 6 -102.999 18s-58.333 30.667 -81 56s-40.334 57.833 -53.001 97.5s-19 87.5 -19 143.5v124c0 56 6.33301 103.833 19 143.5
s30.334 72.167 53.001 97.5s49.667 44 81 56s65.666 18 102.999 18s71.666 -6 102.999 -18s58.333 -30.667 81 -56s40.334 -57.833 53.001 -97.5s19 -87.5 19 -143.5v-124zM528 433c0 50.667 -5.33301 93.5 -16 128.5s-25.5 63.167 -44.5 84.5s-41.5 36.666 -67.5 45.999
s-54 14 -84 14s-58 -4.66699 -84 -14s-48.5 -24.666 -67.5 -45.999s-33.833 -49.5 -44.5 -84.5s-16 -77.833 -16 -128.5v-124c0 -51.333 5.33301 -94.333 16 -129s25.5 -62.667 44.5 -84s41.5 -36.666 67.5 -45.999s54 -14 84 -14s58 4.66699 84 14s48.5 24.666 67.5 45.999
s33.833 49.333 44.5 84s16 77.667 16 129v124z" />
    <glyph glyph-name="P" unicode="P" horiz-adv-x="540" 
d="M505 528c0 -39.333 -6.16699 -72.502 -18.5 -99.502s-30.166 -49 -53.499 -66s-51.833 -29.333 -85.5 -37s-71.834 -11.5 -114.501 -11.5c-19.333 0 -38.833 0.333008 -58.5 1s-36.5 1.66699 -50.5 3v-299c0 -5.33301 -1.5 -9.83301 -4.5 -13.5s-7.16699 -5.5 -12.5 -5.5
h-10c-5.33301 0 -9.5 1.83301 -12.5 5.5s-4.5 8.16699 -4.5 13.5v705c0 4.66699 1.66699 8.83398 5 12.501s7.33301 5.83398 12 6.50098c17.333 1.33301 39 2.5 65 3.5s49.667 1.5 71 1.5c42.667 0 80.834 -3.83301 114.501 -11.5s62.167 -19.667 85.5 -36
s41.166 -37.333 53.499 -63s18.5 -56.5 18.5 -92.5v-17zM461 544.998c0 30.667 -4.83496 56.499 -14.502 77.499s-24.167 38 -43.5 51s-43.166 22.167 -71.499 27.5s-61.166 8 -98.499 8c-21.333 0 -41.166 -0.166992 -59.499 -0.5s-34.833 -1.16602 -49.5 -2.49902v-349
c15.333 -1.33301 33 -2.33301 53 -3s38.667 -1 56 -1c77.333 0 134.666 13.333 171.999 40s56 71.667 56 135v17z" />
    <glyph glyph-name="Q" unicode="Q" horiz-adv-x="632" 
d="M572 309c0 -53.333 -5.82617 -99.166 -17.4932 -137.499s-27.834 -70.333 -48.501 -96s-45.334 -45 -74.001 -58s-60.334 -20.5 -95.001 -22.5v-67c0 -18 0.833008 -32.5 2.5 -43.5s5.66699 -19.5 12 -25.5s15.666 -10 27.999 -12s29.166 -3 50.499 -3h21
c5.33301 0 10 -1.33301 14 -4s6 -6.66699 6 -12v-7c0 -5.33301 -2 -9.33301 -6 -12s-8.66699 -4 -14 -4h-21c-22.667 0 -42.5 1.16699 -59.5 3.5s-31.333 7.83301 -43 16.5s-20.334 21.167 -26.001 37.5s-8.5 38.166 -8.5 65.499v67c-34 2 -65.333 9.66699 -94 23
s-53.334 32.666 -74.001 57.999s-36.667 57.333 -48 96s-17 84.334 -17 137.001v124c0 56 6.33301 103.833 19 143.5s30.334 72.167 53.001 97.5s49.667 44 81 56s65.666 18 102.999 18s71.666 -6 102.999 -18s58.333 -30.667 81 -56s40.334 -57.833 53.001 -97.5
s19 -87.5 19 -143.5v-124zM528.007 433c0 50.667 -5.33301 93.5 -16 128.5s-25.5 63.167 -44.5 84.5s-41.5 36.666 -67.5 45.999s-54 14 -84 14s-58 -4.66699 -84 -14s-48.5 -24.666 -67.5 -45.999s-33.833 -49.5 -44.5 -84.5s-16 -77.833 -16 -128.5v-124
c0 -51.333 5.33301 -94.333 16 -129s25.5 -62.667 44.5 -84s41.5 -36.666 67.5 -45.999s54 -14 84 -14s58 4.66699 84 14s48.5 24.666 67.5 45.999s33.833 49.333 44.5 84s16 77.667 16 129v124z" />
    <glyph glyph-name="R" unicode="R" horiz-adv-x="598" 
d="M548 29c4 -6.66699 5.33203 -13.168 3.99902 -19.501s-6.33301 -9.5 -15 -9.5h-13c-2.66699 0 -5.5 1 -8.5 3s-5.16699 4 -6.5 6l-213 326c-9.33301 -0.666992 -16.666 -0.833984 -21.999 -0.500977s-12.333 0.5 -21 0.5h-79c-16 0 -32.667 0.333008 -50 1v-317
c0 -5.33301 -1.5 -9.83301 -4.5 -13.5s-7.16699 -5.5 -12.5 -5.5h-10c-5.33301 0 -9.5 1.83301 -12.5 5.5s-4.5 8.16699 -4.5 13.5v706c0 4.66699 1.66699 8.83398 5 12.501s7.33301 5.83398 12 6.50098c8.66699 0.666992 19.667 1.16699 33 1.5l42 1l43.5 1
c14.333 0.333008 26.833 0.5 37.5 0.5c44.667 0 84 -3.5 118 -10.5s62.5 -18.5 85.5 -34.5s40.167 -37 51.5 -63s17 -58 17 -96v-5c0 -61.333 -15 -107.333 -45 -138s-74.667 -51 -134 -61zM480.999 543.999c0 31.333 -4.83887 57.332 -14.5059 77.999
s-24.167 37.334 -43.5 50.001s-43.166 21.5 -71.499 26.5s-61.166 7.5 -98.499 7.5c-21.333 0 -44.333 -0.333008 -69 -1s-44.667 -1.66699 -60 -3v-324h27.5c11.667 0 23.834 -0.166992 36.501 -0.5s24.834 -0.5 36.501 -0.5h28.5c38.667 0 72.334 2.5 101.001 7.5
s52.334 13.5 71.001 25.5s32.667 28.5 42 49.5s14 47.5 14 79.5v5z" />
    <glyph glyph-name="S" unicode="S" horiz-adv-x="530" 
d="M475 185c0 -22.667 -2.99512 -45.3359 -8.99512 -68.0029s-17.5 -43.167 -34.5 -61.5s-40.667 -33.166 -71 -44.499s-69.5 -17 -117.5 -17c-32.667 0 -61.334 1 -86.001 3s-44.667 4.33301 -60 7c-9.33301 1.33301 -16.166 3.33301 -20.499 6s-6.5 7.66699 -6.5 15v4
c0 8 2.5 13 7.5 15s10.167 2.66699 15.5 2c8 -1.33301 17.667 -2.5 29 -3.5s23.666 -2 36.999 -3s27.166 -1.83301 41.499 -2.5s28.5 -1 42.5 -1c38 0 69 3.83301 93 11.5s42.833 18.334 56.5 32.001s23.167 29.5 28.5 47.5s8 37.333 8 58c0 18.667 -2.83301 34.667 -8.5 48
s-14.667 26.166 -27 38.499s-28.166 24.833 -47.499 37.5l-71 45l-63 39c-22.667 14 -43.667 27.667 -63 41s-36 27.833 -50 43.5s-24.833 32.834 -32.5 51.501s-11.5 40 -11.5 64c0 30.667 6.66699 56 20 76s31 35.833 53 47.5s47 19.834 75 24.501s56.667 7 86 7
c10.667 0 22.5 -0.333008 35.5 -1l39 -2c13 -0.666992 25.167 -1.66699 36.5 -3s20.666 -2.33301 27.999 -3c10 -1.33301 17 -3.33301 21 -6s6 -7.33398 6 -14.001v-5c0 -7.33301 -2.66699 -12.166 -8 -14.499s-13 -2.83301 -23 -1.5c-2 0 -8.33301 0.5 -19 1.5
s-22.834 2 -36.501 3s-27.834 1.83301 -42.501 2.5s-27.334 1 -38.001 1c-66.667 0 -114.667 -9.5 -144 -28.5s-44 -47.167 -44 -84.5c0 -18 2.83301 -33.833 8.5 -47.5s14.167 -26.667 25.5 -39s25.5 -24.5 42.5 -36.5s36.5 -24.667 58.5 -38l64 -39
c29.333 -18 55 -34.5 77 -49.5s40.333 -30.5 55 -46.5s25.667 -33 33 -51s11 -38.333 11 -61z" />
    <glyph glyph-name="T" unicode="T" horiz-adv-x="571" 
d="M541 717c0 -10 -6.33301 -15 -19 -15h-214v-683c0 -5.33301 -1.5 -9.83301 -4.5 -13.5s-7.16699 -5.5 -12.5 -5.5h-10c-5.33301 -0 -9.5 1.83301 -12.5 5.5s-4.5 8.16699 -4.5 13.5v683h-215c-12.667 0 -19 5 -19 15v9c0 11.333 6.33301 17 19 17h473
c12.667 0 19 -5.66699 19 -17v-9v0z" />
    <glyph glyph-name="U" unicode="U" horiz-adv-x="633" 
d="M553 264c0 -84.667 -19.001 -150.834 -57.001 -198.501s-97.667 -71.5 -179 -71.5s-141.166 23.833 -179.499 71.5s-57.5 113.834 -57.5 198.501v460c0 5.33301 1.5 9.83301 4.5 13.5s7.16699 5.5 12.5 5.5h10c5.33301 0 9.5 -1.83301 12.5 -5.5s4.5 -8.16699 4.5 -13.5
v-460c0 -72.667 14.667 -129 44 -169s79 -60 149 -60s119.5 20 148.5 60s43.5 96.333 43.5 169v460c0 5.33301 1.5 9.83301 4.5 13.5s7.16699 5.5 12.5 5.5h10c5.33301 0 9.5 -1.83301 12.5 -5.5s4.5 -8.16699 4.5 -13.5v-460v0z" />
    <glyph glyph-name="V" unicode="V" horiz-adv-x="630" 
d="M380 43c-5.33301 -17.333 -13.502 -29.833 -24.502 -37.5s-24.5 -11.5 -40.5 -11.5s-29.5 3.83301 -40.5 11.5s-19.167 20.167 -24.5 37.5l-205 675c-2 6.66699 -1.5 12.5 1.5 17.5s7.83301 7.5 14.5 7.5h11c8 0 13.333 -4.66699 16 -14l204 -673
c2.66699 -8 5.83398 -13.333 9.50098 -16s8.16699 -4 13.5 -4s9.83301 1.33301 13.5 4s6.83398 8 9.50098 16l204 673c2 9.33301 7.33301 14 16 14h11c6.66699 0 11.5 -2.5 14.5 -7.5s3.5 -10.833 1.5 -17.5z" />
    <glyph glyph-name="W" unicode="W" horiz-adv-x="788" 
d="M620 41c-6 -31.333 -22.0029 -46.999 -48.0029 -46.999c-15.333 0 -26.333 4.5 -33 13.5s-11.667 19.5 -15 31.5l-122 387c-1.33301 5.33301 -2.66602 8.66602 -3.99902 9.99902s-2.66602 2 -3.99902 2s-2.66602 -0.666992 -3.99902 -2
s-2.66602 -4.66602 -3.99902 -9.99902l-122 -387c-3.33301 -12 -8.33301 -22.5 -15 -31.5s-17.667 -13.5 -33 -13.5c-26 0 -42 15.667 -48 47l-123 679c-1.33301 6 -0.5 11.333 2.5 16s7.5 7 13.5 7h10c4 0 7.66699 -1.33301 11 -4s5.66602 -6.66699 6.99902 -12l121 -677
c2 -10 4 -15 6 -15s3.5 1.16699 4.5 3.5s2.16699 6.16602 3.5 11.499l125 389c4.66699 14.667 11 24.834 19 30.501s16.667 8.5 26 8.5s18 -2.83301 26 -8.5s14.333 -15.834 19 -30.501l125 -389c2.66699 -10 5.33398 -15 8.00098 -15c2 0 4 5 6 15l121 677
c1.33301 5.33301 3.66602 9.33301 6.99902 12s7 4 11 4h10c6 0 10.5 -2.33301 13.5 -7s3.83301 -10 2.5 -16z" />
    <glyph glyph-name="X" unicode="X" horiz-adv-x="602" 
d="M557 29c4.66699 -6.66699 5.83301 -13.167 3.5 -19.5s-7.5 -9.5 -15.5 -9.5h-8c-2.66699 0 -5.66699 1 -9 3s-5.66602 4 -6.99902 6l-220 333l-220 -333c-1.33301 -2 -3.83301 -4 -7.5 -6s-6.5 -3 -8.5 -3h-9c-8 0 -13.167 3.16699 -15.5 9.5
s-1.16602 12.833 3.50098 19.5l231 351l-220 333c-4 6.66699 -5.33301 13.334 -4 20.001s6 10 14 10h11c2.66699 0 5.66699 -1 9 -3s5.66602 -4 6.99902 -6l208 -316l209 316c1.33301 2 3.83301 4 7.5 6s6.5 3 8.5 3h9c8 0 13.167 -3.33301 15.5 -10
s1.16602 -13.334 -3.50098 -20.001l-220 -334l231 -350v0z" />
    <glyph glyph-name="Y" unicode="Y" horiz-adv-x="551" 
d="M344 367c-8.66699 -18.667 -16.834 -32.167 -24.501 -40.5s-15.167 -14.166 -22.5 -17.499v-290c0 -5.33301 -1.5 -9.83301 -4.5 -13.5s-7.16699 -5.5 -12.5 -5.5h-10c-5.33301 0 -9.5 1.83301 -12.5 5.5s-4.5 8.16699 -4.5 13.5v290
c-7.33301 3.33301 -14.833 9.16602 -22.5 17.499s-15.834 21.833 -24.501 40.5l-158 349c-4 9.33301 -4.5 16.166 -1.5 20.499s8.16699 6.5 15.5 6.5h10c3.33301 0 6.5 -1.16699 9.5 -3.5s5.16699 -5.16602 6.5 -8.49902l157 -350
c6.66699 -14.667 11.834 -24.167 15.501 -28.5s8.5 -6.5 14.5 -6.5s10.833 2.16699 14.5 6.5s8.83398 13.833 15.501 28.5l157 350c1.33301 3.33301 3.5 6.16602 6.5 8.49902s6.16699 3.5 9.5 3.5h10c7.33301 0 12.5 -2.16699 15.5 -6.5s2.5 -11.166 -1.5 -20.499z" />
    <glyph glyph-name="Z" unicode="Z" horiz-adv-x="595" 
d="M535 16c0 -5.33301 -2.16699 -9.33203 -6.5 -11.999s-9.16602 -4 -14.499 -4h-392c-36 0 -54 14.333 -54 43c0 5.33301 0.833008 11.166 2.5 17.499s4.5 12.5 8.5 18.5l379 610c1.33301 2 2 4.33301 2 7c0 4 -2.66699 6 -8 6h-362
c-5.33301 0 -10.166 1.16699 -14.499 3.5s-6.5 6.16602 -6.5 11.499v10c0 5.33301 2.16699 9.33301 6.5 12s9.16602 4 14.499 4h362c19.333 0 33 -2.66699 41 -8c11.333 -6.66699 17 -17.334 17 -32.001c0 -8.66699 -1.33301 -15.667 -4 -21s-5 -9.66602 -7 -12.999
l-382 -617c-1.33301 -2.66699 -2 -5 -2 -7c0 -2.66699 2.33301 -4 7 -4h392c5.33301 0 10.166 -1.16699 14.499 -3.5s6.5 -6.16602 6.5 -11.499v-10v0z" />
    <glyph glyph-name="bracketleft" unicode="[" horiz-adv-x="298" 
d="M278 -179c0 -10.667 -6.33301 -16 -19 -16h-152c-5.33301 0 -9.5 1.83301 -12.5 5.5s-4.5 8.16699 -4.5 13.5v900c0 5.33301 1.5 9.83301 4.5 13.5s7.16699 5.5 12.5 5.5h152c12.667 0 19 -5.66699 19 -17v-8c0 -10.667 -6.33301 -16 -19 -16h-125v-856h125
c12.667 0 19 -5.66699 19 -17v-8v0z" />
    <glyph glyph-name="backslash" unicode="\" horiz-adv-x="325" 
d="M305 6c0 -8 -3.33301 -11.999 -10 -11.999h-22c-5.33301 0 -9 2 -11 6s-3.66699 8.33301 -5 13l-235 716c-0.666992 1.33301 -1 3.66602 -1 6.99902s0.833008 6.16602 2.5 8.49902s4.5 3.5 8.5 3.5h21c5.33301 0 9 -2 11 -6s3.66699 -8.33301 5 -13l235 -716
c0.666992 -1.33301 1 -3.66602 1 -6.99902z" />
    <glyph glyph-name="bracketright" unicode="]" horiz-adv-x="298" 
d="M208 -176c0 -5.33301 -1.5 -9.83301 -4.5 -13.5s-7.16699 -5.5 -12.5 -5.5h-152c-12.667 0 -19 5.33301 -19 16v8c0 11.333 6.33301 17 19 17h125v856h-125c-12.667 0 -19 5.33301 -19 16v8c0 11.333 6.33301 17 19 17h152c5.33301 0 9.5 -1.83301 12.5 -5.5
s4.5 -8.16699 4.5 -13.5v-900v0z" />
    <glyph glyph-name="asciicircum" unicode="^" 
d="M462 569c0 -6 -3.66504 -9 -10.998 -9h-18c-6 0 -10.5 1.66699 -13.5 5s-7.16699 8.33301 -12.5 15l-117 139l-117 -139c-5.33301 -6.66699 -9.5 -11.667 -12.5 -15s-7.5 -5 -13.5 -5h-18c-7.33301 0 -11 3 -11 9c0 2.66699 1.66699 6.33398 5 11.001l117 150
c5.33301 6.66699 9.66602 11.334 12.999 14.001s8 4 14 4h46c6 0 10.667 -1.33301 14 -4s7.66602 -7.33398 12.999 -14.001l117 -150c3.33301 -4.66699 5 -8.33398 5 -11.001z" />
    <glyph glyph-name="underscore" unicode="_" horiz-adv-x="465" 
d="M495 -82c0 -5.33301 -2 -9.33301 -6 -12s-8.66699 -4 -14 -4h-485c-5.33301 0 -10 1.33301 -14 4s-6 6.66699 -6 12v10c0 5.33301 2 9.33301 6 12s8.66699 4 14 4h485c5.33301 0 10 -1.33301 14 -4s6 -6.66699 6 -12v-10v0z" />
    <glyph glyph-name="grave" unicode="`" horiz-adv-x="330" 
d="M212 625c0 -4.66699 -3.00195 -7.00195 -9.00195 -7.00195h-22c-5.33301 0 -9.16602 1.5 -11.499 4.5s-5.83301 7.16699 -10.5 12.5l-107 128c-2.66699 2.66699 -4 5.33398 -4 8.00098c0 4.66699 3.66699 7 11 7h26c5.33301 0 9.33301 -1.16699 12 -3.5
s6.33398 -6.16602 11.001 -11.499l100 -128c2.66699 -2.66699 4 -6 4 -10z" />
    <glyph glyph-name="a" unicode="a" horiz-adv-x="488" 
d="M418 20c0 -5.33301 -2.00098 -10 -6.00098 -14s-8.66699 -6 -14 -6h-5c-5.33301 0 -10 2 -14 6s-6 8.66699 -6 14v25c-24.667 -13.333 -51.334 -25.166 -80.001 -35.499s-58.667 -15.5 -90 -15.5c-18.667 0 -37.167 2.5 -55.5 7.5s-34.666 13.667 -48.999 26
s-26 28.833 -35 49.5s-13.5 46.667 -13.5 78v13c0 26 4.33301 48.5 13 67.5s22.667 35 42 48s44.833 22.667 76.5 29s70.167 9.5 115.5 9.5h77v36c0 26 -2 48.167 -6 66.5s-10.833 33.333 -20.5 45s-22.667 20.167 -39 25.5s-36.5 8 -60.5 8
c-16.667 0 -31.167 -0.166992 -43.5 -0.5s-23.833 -1 -34.5 -2l-31 -3c-10 -1 -21 -2.16699 -33 -3.5c-5.33301 -0.666992 -10.5 -0.166992 -15.5 1.5s-7.5 6.16699 -7.5 13.5v6c0 6.66699 2 11 6 13s9.66699 3.66699 17 5c10.667 1.33301 20.834 2.5 30.501 3.5s20 2 31 3
s23 1.66699 36 2s27.833 0.5 44.5 0.5c34 0 61.833 -4.5 83.5 -13.5s39 -21.667 52 -38s22 -35.833 27 -58.5s7.5 -47.334 7.5 -74.001v-338zM373.999 283h-76.999c-38 0 -69.833 -2 -95.5 -6s-46.5 -10.5 -62.5 -19.5s-27.5 -20.833 -34.5 -35.5s-10.5 -32.667 -10.5 -54
v-13c0 -23.333 2.83301 -42.833 8.5 -58.5s13.5 -28.167 23.5 -37.5s21.5 -16 34.5 -20s27.167 -6 42.5 -6c28 0 55.167 4 81.5 12s56.166 21 89.499 39v199z" />
    <glyph glyph-name="b" unicode="b" horiz-adv-x="504" 
d="M449 237c0 -36 -3.66602 -68.8311 -10.999 -98.498s-19 -55.334 -35 -77.001s-36.333 -38.334 -61 -50.001s-54.334 -17.5 -89.001 -17.5c-28.667 0 -58.334 2 -89.001 6s-57 8.33301 -79 13c-6 1.33301 -10 3.33301 -12 6s-3 7 -3 13v692
c0 5.33301 1.5 9.83301 4.5 13.5s7.16699 5.5 12.5 5.5h10c5.33301 0 9.5 -1.83301 12.5 -5.5s4.5 -8.16699 4.5 -13.5v-197c10 2 21 4 33 6s24.333 3.66699 37 5s24.834 2.33301 36.501 3s22.5 1 32.5 1c130.667 0 196 -79.667 196 -239v-66zM405.001 303.002
c0 66.667 -11.5 116.666 -34.5 149.999s-62.167 50 -117.5 50c-10 0 -21 -0.333008 -33 -1s-24.333 -1.5 -37 -2.5s-25 -2.33301 -37 -4s-22.667 -3.5 -32 -5.5v-444c18 -3.33301 39.667 -6.33301 65 -9s50 -4 74 -4c56 0 95.333 17.833 118 53.5s34 85.834 34 150.501v66z
" />
    <glyph glyph-name="c" unicode="c" horiz-adv-x="437" 
d="M393 21c0 -5.33301 -1.33301 -9.32812 -4 -11.9951s-7.66699 -4.66699 -15 -6c-21.333 -2.66699 -42.833 -4.83398 -64.5 -6.50098s-40.5 -2.5 -56.5 -2.5c-36 0 -66.5 6.5 -91.5 19.5s-45.333 30.5 -61 52.5s-27.167 47.667 -34.5 77s-11 60.333 -11 93v67
c0 33.333 3.66699 64.5 11 93.5s18.833 54.333 34.5 76s36 38.667 61 51s55.5 18.5 91.5 18.5c16 0 34.833 -0.833008 56.5 -2.5s43.167 -3.83398 64.5 -6.50098c7.33301 -1.33301 12.333 -3.33301 15 -6s4 -6.66699 4 -12v-7c0 -5.33301 -2 -9.33301 -6 -12
s-9 -3.33398 -15 -2.00098c-47.333 6 -87 9 -119 9c-28.667 0 -52.834 -4.66699 -72.501 -14s-35.5 -22.833 -47.5 -40.5s-20.667 -38.834 -26 -63.501s-8 -52 -8 -82v-67c0 -30 2.66699 -57.5 8 -82.5s14 -46.5 26 -64.5s27.833 -31.833 47.5 -41.5
s43.834 -14.5 72.501 -14.5c32 0 71.667 3 119 9c6 1.33301 11 0.666016 15 -2.00098s6 -6.66699 6 -12v-7v0z" />
    <glyph glyph-name="d" unicode="d" horiz-adv-x="504" 
d="M434 32c0 -6 -0.999023 -10.335 -2.99902 -13.002s-6 -4.66699 -12 -6c-22 -4.66699 -48.333 -9 -79 -13s-60.334 -6 -89.001 -6c-34.667 0 -64.334 5.83301 -89.001 17.5s-45 28.334 -61 50.001s-27.667 47.334 -35 77.001s-11 62.5 -11 98.5v66
c0 159.333 65.333 239 196 239c10 0 20.833 -0.333008 32.5 -1s23.834 -1.66699 36.501 -3s25 -3 37 -5s23 -4 33 -6v197c0 5.33301 1.5 9.83301 4.5 13.5s7.16699 5.5 12.5 5.5h10c5.33301 0 9.5 -1.83301 12.5 -5.5s4.5 -8.16699 4.5 -13.5v-692zM390.001 489.998
c-9.33301 2 -20 3.83398 -32 5.50098s-24.333 3 -37 4s-25 1.83301 -37 2.5s-23 1 -33 1c-55.333 0 -94.5 -16.667 -117.5 -50s-34.5 -83.333 -34.5 -150v-66c0 -64.667 11.333 -114.834 34 -150.501s62 -53.5 118 -53.5c24 0 48.667 1.33301 74 4s47 5.66699 65 9v444z" />
    <glyph glyph-name="e" unicode="e" horiz-adv-x="511" 
d="M456 277c0 -5.33301 -1.83105 -9.83008 -5.49805 -13.4971s-8.16699 -5.5 -13.5 -5.5h-338v-21c0 -42 4.66699 -76.333 14 -103s22.333 -47.5 39 -62.5s35.834 -25.167 57.501 -30.5s45.167 -8 70.5 -8c22 0 46 1.5 72 4.5s51.333 7.16699 76 12.5
c5.33301 1.33301 10.166 1.16602 14.499 -0.500977s6.5 -5.83398 6.5 -12.501v-7c0 -5.33301 -1.33301 -9.5 -4 -12.5s-7.66699 -5.16699 -15 -6.5c-24 -5.33301 -49.333 -9.5 -76 -12.5s-51.334 -4.5 -74.001 -4.5c-31.333 0 -60.5 3.83301 -87.5 11.5
s-50.833 20.667 -71.5 39s-36.834 43.166 -48.501 74.499s-17.5 70.666 -17.5 117.999v66c0 34.667 4.33301 66.5 13 95.5s21.5 54.167 38.5 75.5s38 38 63 50s54.167 18 87.5 18c34.667 0 64.5 -5.66699 89.5 -17s45.667 -27.5 62 -48.5s28.333 -46.167 36 -75.5
s11.5 -61.666 11.5 -96.999v-27zM412.002 304.003c0 63.333 -11.667 112.334 -35 147.001s-63.333 52 -120 52c-28 0 -51.833 -4.83301 -71.5 -14.5s-36 -23.334 -49 -41.001s-22.5 -38.667 -28.5 -63s-9 -51.5 -9 -81.5v-5h313v6z" />
    <glyph glyph-name="f" unicode="f" horiz-adv-x="377" 
d="M342 722c0 -8.66699 -7.00098 -13.001 -21.001 -13.001h-50c-23.333 0 -40.666 -5.66699 -51.999 -17s-17 -32 -17 -62v-93h119c12.667 0 19 -5.33301 19 -16v-9c0 -10.667 -6.33301 -16 -19 -16h-119v-477c0 -5.33301 -1.66699 -9.83301 -5 -13.5
s-7.66602 -5.5 -12.999 -5.5h-7c-5.33301 0 -9.83301 1.83301 -13.5 5.5s-5.5 8.16699 -5.5 13.5v477h-99c-12.667 0 -19 5.33301 -19 16v9c0 10.667 6.33301 16 19 16h99v93c0 43.333 9.83301 73.833 29.5 91.5s47.5 26.5 83.5 26.5c15.333 0 26.166 -0.166992 32.499 -0.5
s12.833 -1.16602 19.5 -2.49902c7.33301 -1.33301 12.333 -3.33301 15 -6s4 -6 4 -10v-7v0z" />
    <glyph glyph-name="g" unicode="g" horiz-adv-x="534" 
d="M489 510c0 -5.33301 -1.83594 -9.33301 -5.50293 -12s-8.16699 -4 -13.5 -4h-52c4.66699 -4 10.334 -9.33301 17.001 -16s12.667 -15 18 -25s10 -21.833 14 -35.5s6 -29.5 6 -47.5v-8c0 -22.667 -3.5 -44 -10.5 -64s-18.5 -37.333 -34.5 -52s-37.167 -26.167 -63.5 -34.5
s-59.166 -12.5 -98.499 -12.5c-26 0 -48.167 2 -66.5 6s-36.833 9.66699 -55.5 17c-10.667 -4.66699 -19 -10.5 -25 -17.5s-9 -15.5 -9 -25.5c0 -6.66699 2 -12.667 6 -18s11.667 -9.66602 23 -12.999l180 -47c26 -6.66699 48.833 -13.5 68.5 -20.5
s36.334 -15.5 50.001 -25.5s24 -22.333 31 -37s10.5 -32.667 10.5 -54v-7c0 -22.667 -3.66699 -43.5 -11 -62.5s-19.333 -35.333 -36 -49s-38.5 -24.334 -65.5 -32.001s-60.167 -11.5 -99.5 -11.5c-38.667 0 -71.334 3.83301 -98.001 11.5s-48.5 18.334 -65.5 32.001
s-29.333 30 -37 49s-11.5 39.833 -11.5 62.5v9c0 17.333 2.33301 33.666 7 48.999s10.667 29.166 18 41.499s15.5 23 24.5 32s17.5 16.167 25.5 21.5l-7 2c-18.667 5.33301 -32.167 14 -40.5 26s-12.5 25.667 -12.5 41c0 12 3.33301 24 10 36s17.334 21.333 32.001 28
c-16.667 13.333 -29.5 29.833 -38.5 49.5s-13.5 42.834 -13.5 69.501v8c0 19.333 2.66699 38.833 8 58.5s15.5 37.5 30.5 53.5s36 29.167 63 39.5s61.833 15.5 104.5 15.5h204c5.33301 0 9.83301 -1.33301 13.5 -4s5.5 -6.66699 5.5 -12v-11zM429.997 370
c0 18 -2.49902 34.8291 -7.49902 50.4961s-13.667 29.334 -26 41.001s-29 20.834 -50 27.501s-47.833 10 -80.5 10c-34.667 0 -62.5 -3.66699 -83.5 -11s-37.333 -17.166 -49 -29.499s-19.5 -26.166 -23.5 -41.499s-6 -31 -6 -47v-8c0 -12.667 2 -26.334 6 -41.001
s11.833 -28.167 23.5 -40.5s28.167 -22.666 49.5 -30.999s49 -12.5 83 -12.5c32.667 0 59.667 3.33301 81 10s38.166 15.667 50.499 27s20.833 24.5 25.5 39.5s7 31.167 7 48.5v8zM434.998 -36.0039c0 14 -1.83301 25.8311 -5.5 35.498s-10.334 18.167 -20.001 25.5
s-22.667 13.833 -39 19.5s-36.833 11.834 -61.5 18.501l-138 36c-22 -14.667 -39.667 -32 -53 -52s-20 -47 -20 -81v-9c0 -18 2.83301 -34.333 8.5 -49s15 -27 28 -37s30.333 -17.833 52 -23.5s48.5 -8.5 80.5 -8.5c33.333 0 60.833 2.66699 82.5 8s38.834 13 51.501 23
s21.5 22.333 26.5 37s7.5 31.334 7.5 50.001v7z" />
    <glyph glyph-name="h" unicode="h" horiz-adv-x="505" 
d="M440 13c0 -5.33301 -1.49902 -9.83398 -4.49902 -13.501s-7.16699 -5.5 -12.5 -5.5h-10c-5.33301 0 -9.33301 1.83301 -12 5.5s-4 8.16699 -4 13.5v337c0 48.667 -11.333 86.334 -34 113.001s-60.667 40 -114 40c-21.333 0 -44.333 -1.66699 -69 -5
s-46.667 -7.66602 -66 -12.999v-472c0 -5.33301 -1.5 -9.83301 -4.5 -13.5s-7.16699 -5.5 -12.5 -5.5h-10c-5.33301 0 -9.5 1.83301 -12.5 5.5s-4.5 8.16699 -4.5 13.5v711c0 5.33301 1.5 9.83301 4.5 13.5s7.16699 5.5 12.5 5.5h10c5.33301 0 9.5 -1.83301 12.5 -5.5
s4.5 -8.16699 4.5 -13.5v-200c19.333 5.33301 41.166 9.66602 65.499 12.999s47.5 5 69.5 5c34.667 0 64.167 -4.83301 88.5 -14.5s44 -23 59 -40s26 -37.167 33 -60.5s10.5 -49 10.5 -77v-337v0z" />
    <glyph glyph-name="i" unicode="i" horiz-adv-x="204" 
d="M124 655c0 -5.33301 -1.83301 -9.83301 -5.5 -13.5s-8.16699 -5.5 -13.5 -5.5h-6c-5.33301 0 -9.83301 1.83301 -13.5 5.5s-5.5 8.16699 -5.5 13.5v74c0 5.33301 1.83301 9.83301 5.5 13.5s8.16699 5.5 13.5 5.5h6c5.33301 0 9.83301 -1.83301 13.5 -5.5
s5.5 -8.16699 5.5 -13.5v-74zM124 13c0 -5.33301 -1.83301 -9.83301 -5.5 -13.5s-8.16699 -5.5 -13.5 -5.5h-6c-5.33301 0 -9.83301 1.83301 -13.5 5.5s-5.5 8.16699 -5.5 13.5v505c0 5.33301 1.83301 9.83301 5.5 13.5s8.16699 5.5 13.5 5.5h6
c5.33301 0 9.83301 -1.83301 13.5 -5.5s5.5 -8.16699 5.5 -13.5v-505z" />
    <glyph glyph-name="j" unicode="j" horiz-adv-x="204" 
d="M124 655c0 -5.33301 -1.83301 -9.83301 -5.5 -13.5s-8.16699 -5.5 -13.5 -5.5h-6c-5.33301 0 -9.83301 1.83301 -13.5 5.5s-5.5 8.16699 -5.5 13.5v74c0 5.33301 1.83301 9.83301 5.5 13.5s8.16699 5.5 13.5 5.5h6c5.33301 0 9.83301 -1.83301 13.5 -5.5
s5.5 -8.16699 5.5 -13.5v-74zM124 -86c0 -21.333 -2.16699 -39 -6.5 -53s-10.833 -25.167 -19.5 -33.5s-19.5 -14.166 -32.5 -17.499s-27.833 -5 -44.5 -5c-8.66699 0 -16 0.166992 -22 0.5s-12.667 1.16602 -20 2.49902s-12 3 -14 5s-3 5 -3 9v9c0 8 7 12 21 12h38
c22 0 37.333 4.33301 46 13s13 28 13 58v604c0 5.33301 1.33301 9.83301 4 13.5s6.66699 5.5 12 5.5h11c5.33301 0 9.5 -1.83301 12.5 -5.5s4.5 -8.16699 4.5 -13.5v-604z" />
    <glyph glyph-name="k" unicode="k" horiz-adv-x="444" 
d="M398 25c6 -6.66699 7.83203 -13.499 5.49902 -20.499s-8.16602 -10.5 -17.499 -10.5c-6 0 -11.167 0.666992 -15.5 2s-9.16602 4.66602 -14.499 9.99902l-242 259v-252c0 -5.33301 -1.83301 -9.83301 -5.5 -13.5s-8.16699 -5.5 -13.5 -5.5h-6
c-5.33301 0 -9.83301 1.83301 -13.5 5.5s-5.5 8.16699 -5.5 13.5v711c0 5.33301 1.83301 9.83301 5.5 13.5s8.16699 5.5 13.5 5.5h6c5.33301 0 9.83301 -1.83301 13.5 -5.5s5.5 -8.16699 5.5 -13.5v-421l246 230c6.66699 6 14.667 9 24 9s15.666 -4 18.999 -12
s1.33301 -15 -6 -21l-245 -224l246 -260v0z" />
    <glyph glyph-name="l" unicode="l" horiz-adv-x="204" 
d="M124 13c0 -5.33301 -1.5 -9.83301 -4.5 -13.5s-7.16699 -5.5 -12.5 -5.5h-10c-5.33301 0 -9.5 1.83301 -12.5 5.5s-4.5 8.16699 -4.5 13.5v711c0 5.33301 1.5 9.83301 4.5 13.5s7.16699 5.5 12.5 5.5h10c5.33301 0 9.5 -1.83301 12.5 -5.5s4.5 -8.16699 4.5 -13.5v-711v0
z" />
    <glyph glyph-name="m" unicode="m" horiz-adv-x="746" 
d="M676 19c0 -5.33301 -1.50195 -9.83301 -4.50195 -13.5s-7.16699 -5.5 -12.5 -5.5h-10c-5.33301 -0 -9.5 1.83301 -12.5 5.5s-4.5 8.16699 -4.5 13.5v358c0 47.333 -10.333 80.166 -31 98.499s-49.334 27.5 -86.001 27.5c-22 0 -44.833 -3.16699 -68.5 -9.5
s-45.834 -14.5 -66.501 -24.5c4.66699 -11.333 8.33398 -24.333 11.001 -39s4 -31 4 -49v-362c0 -5.33301 -1.16699 -9.83301 -3.5 -13.5s-6.16602 -5.5 -11.499 -5.5h-15c-5.33301 0 -9 1.83301 -11 5.5s-3 8.16699 -3 13.5v362c0 23.333 -2.33301 42.833 -7 58.5
s-11.334 28.167 -20.001 37.5s-18.667 16 -30 20s-23.666 6 -36.999 6c-22 0 -45.5 -4.16699 -70.5 -12.5s-49.167 -18.166 -72.5 -29.499v-442c0 -5.33301 -1.16699 -9.83301 -3.5 -13.5s-6.16602 -5.5 -11.499 -5.5h-14c-5.33301 -0 -9.16602 1.83301 -11.499 5.5
s-3.5 8.16699 -3.5 13.5v498c0 5.33301 1.66699 10 5 14s7.66602 6 12.999 6h8c5.33301 0 9.66602 -2 12.999 -6s5 -8.66699 5 -14v-18c20.667 10 44.5 19.667 71.5 29s53.833 14 80.5 14c18 0 35.167 -3 51.5 -9s30.833 -16.667 43.5 -32
c25.333 12 51.833 21.833 79.5 29.5s54.834 11.5 81.501 11.5c20.667 0 40.334 -3 59.001 -9s35 -15.667 49 -29s25.167 -30.333 33.5 -51s12.5 -46 12.5 -76v-358v0z" />
    <glyph glyph-name="n" unicode="n" horiz-adv-x="521" 
d="M451 19c0 -5.33301 -1.83496 -9.83301 -5.50195 -13.5s-8.16699 -5.5 -13.5 -5.5h-7c-5.33301 -0 -9.66602 1.83301 -12.999 5.5s-5 8.16699 -5 13.5v332c0 28.667 -3.5 52.667 -10.5 72s-16.667 35 -29 47s-26.666 20.5 -42.999 25.5s-33.833 7.5 -52.5 7.5
c-25.333 0 -51.666 -3.83301 -78.999 -11.5s-53.666 -17.5 -78.999 -29.5v-443c0 -5.33301 -1.83301 -9.83301 -5.5 -13.5s-8.16699 -5.5 -13.5 -5.5h-6c-5.33301 -0 -9.83301 1.83301 -13.5 5.5s-5.5 8.16699 -5.5 13.5v498c0 5.33301 1.66699 10 5 14s7.66602 6 12.999 6
h8c5.33301 0 9.66602 -2 12.999 -6s5 -8.66699 5 -14v-16c26 12.667 52.833 22.667 80.5 30s54.5 11 80.5 11c24 0 46.667 -3.5 68 -10.5s40 -18 56 -33s28.667 -34.667 38 -59s14 -53.833 14 -88.5v-332v0z" />
    <glyph glyph-name="o" unicode="o" horiz-adv-x="522" 
d="M467 233c0 -76 -17.167 -134.833 -51.5 -176.5s-85.833 -62.5 -154.5 -62.5s-120.167 20.833 -154.5 62.5s-51.5 100.5 -51.5 176.5v70c0 76 17.167 134.833 51.5 176.5s85.833 62.5 154.5 62.5s120.167 -20.833 154.5 -62.5s51.5 -100.5 51.5 -176.5v-70zM423 303
c0 61.333 -12.333 110 -37 146s-66.334 54 -125.001 54s-100.334 -18 -125.001 -54s-37 -84.667 -37 -146v-70c0 -61.333 12.333 -110 37 -146s66.334 -54 125.001 -54s100.334 18 125.001 54s37 84.667 37 146v70z" />
    <glyph glyph-name="p" unicode="p" horiz-adv-x="504" 
d="M449 233c0 -159.333 -65.334 -238.998 -196.001 -238.998c-10 0 -20.833 0.333008 -32.5 1s-23.834 1.66699 -36.501 3s-25 3 -37 5s-23 4 -33 6v-185c0 -5.33301 -1.5 -9.83301 -4.5 -13.5s-7.16699 -5.5 -12.5 -5.5h-10c-5.33301 0 -9.5 1.83301 -12.5 5.5
s-4.5 8.16699 -4.5 13.5v680c0 6 1 10.333 3 13s6 4.66699 12 6c22 4.66699 48.333 9 79 13s60.334 6 89.001 6c34.667 0 64.334 -5.83301 89.001 -17.5s45 -28.334 61 -50.001s27.667 -47.334 35 -77.001s11 -62.5 11 -98.5v-66zM404.999 299.002
c0 64.667 -11.333 114.833 -34 150.5s-62 53.5 -118 53.5c-24 0 -48.667 -1.33301 -74 -4s-47 -5.66699 -65 -9v-444c9.33301 -2 20 -3.83301 32 -5.5s24.333 -3 37 -4s25 -1.83301 37 -2.5s23 -1 33 -1c55.333 0 94.5 16.667 117.5 50s34.5 83.333 34.5 150v66z" />
    <glyph glyph-name="q" unicode="q" horiz-adv-x="504" 
d="M434 -176c0 -5.33301 -1.50098 -9.83496 -4.50098 -13.502s-7.16699 -5.5 -12.5 -5.5h-10c-5.33301 0 -9.5 1.83301 -12.5 5.5s-4.5 8.16699 -4.5 13.5v185c-10 -2 -21 -4 -33 -6s-24.333 -3.66699 -37 -5s-24.834 -2.33301 -36.501 -3s-22.5 -1 -32.5 -1
c-130.667 0 -196 79.667 -196 239v66c0 36 3.66699 68.833 11 98.5s19 55.334 35 77.001s36.333 38.334 61 50.001s54.334 17.5 89.001 17.5c28.667 0 58.334 -2 89.001 -6s57 -8.33301 79 -13c6 -1.33301 10 -3.33301 12 -6s3 -7 3 -13v-680zM389.999 489.998
c-18 3.33301 -39.667 6.33398 -65 9.00098s-50 4 -74 4c-56 0 -95.333 -17.833 -118 -53.5s-34 -85.834 -34 -150.501v-66c0 -66.667 11.5 -116.667 34.5 -150s62.167 -50 117.5 -50c10 0 21 0.333008 33 1s24.333 1.5 37 2.5s25 2.33301 37 4s22.667 3.5 32 5.5v444z" />
    <glyph glyph-name="r" unicode="r" horiz-adv-x="309" 
d="M280 519c0 -6.66699 -2.49707 -11 -7.49707 -13s-11.5 -3 -19.5 -3c-19.333 0 -39.833 -3 -61.5 -9s-47.5 -18.333 -77.5 -37v-438c0 -5.33301 -1.83301 -9.83301 -5.5 -13.5s-8.16699 -5.5 -13.5 -5.5h-6c-5.33301 -0 -9.83301 1.83301 -13.5 5.5
s-5.5 8.16699 -5.5 13.5v498c0 5.33301 1.66699 10 5 14s7.66602 6 12.999 6h8c5.33301 0 9.66602 -2 12.999 -6s5 -8.66699 5 -14v-21c25.333 16.667 48.666 28.5 69.999 35.5s44.333 10.5 69 10.5c8 0 14.5 -1 19.5 -3s7.5 -6 7.5 -12v-8v0z" />
    <glyph glyph-name="s" unicode="s" horiz-adv-x="440" 
d="M390 133c0 -26.667 -4.66699 -49.001 -14 -67.001s-21.833 -32.333 -37.5 -43s-34 -18.167 -55 -22.5s-43.167 -6.5 -66.5 -6.5c-11.333 0 -23.5 0.333008 -36.5 1s-26 1.66699 -39 3s-25.667 2.83301 -38 4.5s-22.833 3.5 -31.5 5.5c-7.33301 1.33301 -12.833 3 -16.5 5
s-5.5 5.66699 -5.5 11v11c0 6 2.16699 10.167 6.5 12.5s9.5 2.83301 15.5 1.5c24 -4 49.333 -7.66699 76 -11s50.334 -5 71.001 -5c18 0 34.667 1.33301 50 4s28.833 7.83398 40.5 15.501s20.667 18 27 31s9.5 29.5 9.5 49.5c0 10 -1.66699 19.167 -5 27.5
s-9 16.666 -17 24.999s-18.833 17 -32.5 26s-30.834 19.167 -51.501 30.5l-64 35c-18.667 10 -35.5 19.833 -50.5 29.5s-27.667 20 -38 31s-18.333 23 -24 36s-8.5 28.167 -8.5 45.5c0 23.333 4.33301 42.833 13 58.5s20 28.334 34 38.001s30.167 16.5 48.5 20.5
s37.5 6 57.5 6c36 0 64.5 -1 85.5 -3s40.167 -4 57.5 -6c7.33301 -1.33301 12.666 -2.83301 15.999 -4.5s5 -5.83398 5 -12.501v-8c0 -8 -1.66699 -13 -5 -15s-8.66602 -2.33301 -15.999 -1c-13.333 1.33301 -32.833 3.5 -58.5 6.5s-52.5 4.5 -80.5 4.5
c-16 0 -30.833 -1 -44.5 -3s-25.667 -6 -36 -12s-18.333 -14.5 -24 -25.5s-8.5 -25.5 -8.5 -43.5c0 -22 8.5 -40.5 25.5 -55.5s40.833 -31.167 71.5 -48.5l67 -37c20.667 -11.333 39 -22.166 55 -32.499s29.333 -21.166 40 -32.499s18.667 -23.333 24 -36
s8 -27.334 8 -44.001z" />
    <glyph glyph-name="t" unicode="t" horiz-adv-x="380" 
d="M340 13c0 -4 -1.00098 -7.33398 -3.00098 -10.001s-6.66699 -4.66699 -14 -6s-15.666 -2.16602 -24.999 -2.49902s-18.333 -0.5 -27 -0.5c-18 0 -34 1.66699 -48 5s-25.833 9 -35.5 17s-17 19 -22 33s-7.5 31.667 -7.5 53v394h-99c-12.667 0 -19 5.33301 -19 16v10
c0 10 6.33301 15 19 15h99v103c0 5.33301 1.5 9.83301 4.5 13.5s7.16699 5.5 12.5 5.5h11c5.33301 0 9.33301 -1.83301 12 -5.5s4 -8.16699 4 -13.5v-103h119c12.667 0 19 -5 19 -15v-10c0 -10.667 -6.33301 -16 -19 -16h-119v-394c0 -30 6 -49 18 -57s29 -12 51 -12h48
c14 0 21 -4.66699 21 -14v-6v0z" />
    <glyph glyph-name="u" unicode="u" horiz-adv-x="521" 
d="M70 518c0 5.33301 1.83496 9.83301 5.50195 13.5s8.16699 5.5 13.5 5.5h7c5.33301 0 9.66602 -1.83301 12.999 -5.5s5 -8.16699 5 -13.5v-332c0 -28.667 3.5 -52.667 10.5 -72s16.667 -35 29 -47s26.666 -20.5 42.999 -25.5s33.833 -7.5 52.5 -7.5
c25.333 0 51.666 4 78.999 12s53.666 17.667 78.999 29v443c0 5.33301 1.83301 9.83301 5.5 13.5s8.16699 5.5 13.5 5.5h6c5.33301 0 9.83301 -1.83301 13.5 -5.5s5.5 -8.16699 5.5 -13.5v-498c0 -5.33301 -1.66699 -10 -5 -14s-7.66602 -6 -12.999 -6h-8
c-5.33301 0 -9.66602 2 -12.999 6s-5 8.66699 -5 14v16c-26 -12.667 -52.833 -22.667 -80.5 -30s-54.5 -11 -80.5 -11c-24 0 -46.667 3.5 -68 10.5s-40 18.167 -56 33.5s-28.667 35 -38 59s-14 53.333 -14 88v332v0z" />
    <glyph glyph-name="v" unicode="v" horiz-adv-x="480" 
d="M309 57c-7.33301 -26.667 -16.8301 -43.834 -28.4971 -51.501s-24.834 -11.5 -39.501 -11.5c-14 0 -27.333 3.83301 -40 11.5s-22.667 24.834 -30 51.501l-131 455c-2 7.33301 -1.66699 13.333 1 18s7.33398 7 14.001 7h10c3.33301 0 6.66602 -1.16699 9.99902 -3.5
s6 -7.16602 8 -14.499l128 -451c4.66699 -15.333 9.5 -25.166 14.5 -29.499s10.167 -6.5 15.5 -6.5s10.166 2.16699 14.499 6.5s8.83301 14.166 13.5 29.499l128 451c2 7.33301 4.66699 12.166 8 14.499s6.66602 3.5 9.99902 3.5h12c6.66699 0 11 -2.33301 13 -7
s2 -10.667 0 -18z" />
    <glyph glyph-name="w" unicode="w" horiz-adv-x="752" 
d="M592 48c-4.66699 -19.333 -10.667 -33.167 -18 -41.5s-18.666 -12.5 -33.999 -12.5c-16 0 -27.167 4.83301 -33.5 14.5s-12.166 23.834 -17.499 42.501l-106 380c-1.33301 4 -2.5 6.5 -3.5 7.5s-2.16699 1.5 -3.5 1.5s-2.5 -0.5 -3.5 -1.5s-2.16699 -3.5 -3.5 -7.5
l-106 -380c-5.33301 -18.667 -11.166 -32.834 -17.499 -42.501s-17.5 -14.5 -33.5 -14.5c-15.333 0 -26.666 4.16699 -33.999 12.5s-13.333 22.166 -18 41.499l-110 465c-1.33301 6 -1 11.5 1 16.5s7.66699 7.5 17 7.5h6c6 0 9.83301 -1.5 11.5 -4.5
s3.16699 -6.16699 4.5 -9.5l108 -465c3.33301 -12 5.66602 -19.167 6.99902 -21.5s3.66602 -3.5 6.99902 -3.5c2.66699 0 4.66699 1.33301 6 4s3.66602 9.33398 6.99902 20.001l108 386c3.33301 13.333 9 22.666 17 27.999s16.667 8 26 8s18 -2.66699 26 -8
s13.667 -14.666 17 -27.999l108 -386c3.33301 -10.667 5.83301 -17.334 7.5 -20.001s3.5 -4 5.5 -4s4 1 6 3s4.66699 9.33301 8 22l108 465c1.33301 3.33301 3 6.5 5 9.5s5.66699 4.5 11 4.5h6c9.33301 0 15.166 -2.16699 17.499 -6.5s2.5 -10.166 0.5 -17.499z" />
    <glyph glyph-name="x" unicode="x" horiz-adv-x="493" 
d="M455 14c0 -3.33301 -0.999023 -6.5 -2.99902 -9.5s-5.66699 -4.5 -11 -4.5h-8c-4 0 -7.5 0.5 -10.5 1.5s-5.83301 3.16699 -8.5 6.5l-166 232l-163 -232c-4 -5.33301 -7.66699 -8 -11 -8h-17c-9.33301 0 -14 4 -14 12c0 4.66699 1.66699 9.33398 5 14.001l176 249
l-170 238c-2.66699 4 -4 7.66699 -4 11c0 8.66699 6 13 18 13h6c4.66699 0 8.66699 -1 12 -3s5.66602 -3.66699 6.99902 -5l158 -220l153 218c2 3.33301 4.83301 5.83301 8.5 7.5s7.16699 2.5 10.5 2.5h9c10 0 15 -4 15 -12c0 -4.66699 -2.33301 -10.334 -7 -17.001
l-165 -235l177 -248c2 -3.33301 3 -7 3 -11z" />
    <glyph glyph-name="y" unicode="y" horiz-adv-x="486" 
d="M282 -56c-8 -26.667 -16.501 -48.999 -25.501 -66.999s-19.833 -32.333 -32.5 -43s-27.334 -18.167 -44.001 -22.5s-36.667 -6.5 -60 -6.5c-11.333 0 -22.166 0.666992 -32.499 2s-20.166 2.66602 -29.499 3.99902c-6 1.33301 -10.833 2.66602 -14.5 3.99902
s-5.5 4.66602 -5.5 9.99902v11c0 6 1.5 10.167 4.5 12.5s8.5 2.83301 16.5 1.5c7.33301 -1.33301 18 -2.66602 32 -3.99902s25 -2 33 -2c18 0 33.167 1.66699 45.5 5s23 9 32 17s16.667 19 23 33s12.5 32 18.5 54l13 47h-14c-15.333 0 -27.5 3.33301 -36.5 10
s-17.167 22 -24.5 46l-135 457c-2 6.66699 -1.83301 12.334 0.5 17.001s7.5 7 15.5 7h9c5.33301 0 9 -1.5 11 -4.5s3.66699 -6.16699 5 -9.5l135 -460c3.33301 -10.667 7 -17 11 -19s8 -3 12 -3h23l137 483c1.33301 3.33301 3 6.33301 5 9s6.33301 4 13 4h9
c8 0 12.833 -2.5 14.5 -7.5s1.5 -10.833 -0.5 -17.5z" />
    <glyph glyph-name="z" unicode="z" horiz-adv-x="446" 
d="M406 16c0 -5.33301 -2 -9.33301 -6 -12s-8.66699 -4 -14 -4h-286c-21.333 0 -36.666 3.66699 -45.999 11s-14 17.333 -14 30c0 7.33301 1.16699 14.333 3.5 21s7.16602 14.667 14.499 24l293 391c2.66699 3.33301 4 6.66602 4 9.99902c0 6 -4.66699 9 -14 9h-263
c-5.33301 0 -10 1.16699 -14 3.5s-6 6.16602 -6 11.499v10c0 5.33301 2 9.33301 6 12s8.66699 4 14 4h262c17.333 0 31.333 -3 42 -9s16 -17.333 16 -34c0 -6 -0.833008 -12.667 -2.5 -20s-6.16699 -15.666 -13.5 -24.999l-290 -389c-3.33301 -5.33301 -5 -9.33301 -5 -12
c0 -4.66699 3 -7 9 -7h290c5.33301 0 10 -1.16699 14 -3.5s6 -6.16602 6 -11.499v-10v0z" />
    <glyph glyph-name="braceleft" unicode="{" horiz-adv-x="300" 
d="M280 -178c0 -11.333 -6.33105 -17 -18.998 -17h-46c-23.333 0 -42.833 1.83301 -58.5 5.5s-28.334 9.66699 -38.001 18s-16.5 19.5 -20.5 33.5s-6 31.667 -6 53v204c0 18 -0.666992 33.333 -2 46s-4.33301 24.167 -9 34.5s-11 20 -19 29s-18.667 18.167 -32 27.5v36
c13.333 9.33301 24 18.5 32 27.5s14.333 18.667 19 29s7.66699 21.833 9 34.5s2 28 2 46v204c0 42 9.16699 70.833 27.5 86.5s50.166 23.5 95.499 23.5h46c12.667 0 19 -5.66699 19 -17v-8c0 -10.667 -6.33301 -16 -19 -16h-46c-16.667 0 -30.167 -0.833008 -40.5 -2.5
s-18.333 -5 -24 -10s-9.5 -12 -11.5 -21s-3 -20.833 -3 -35.5v-204c0 -35.333 -4.33301 -65 -13 -89s-25.667 -46.333 -51 -67c24.667 -19.333 41.5 -41 50.5 -65s13.5 -53.667 13.5 -89v-204c0 -14.667 1 -26.5 3 -35.5s5.83301 -16 11.5 -21s13.667 -8.33301 24 -10
s23.833 -2.5 40.5 -2.5h46c12.667 0 19 -5.33301 19 -16v-8v0z" />
    <glyph glyph-name="bar" unicode="|" horiz-adv-x="224" 
d="M134 -176c0 -5.33301 -1.5 -9.83301 -4.5 -13.5s-7.16699 -5.5 -12.5 -5.5h-10c-5.33301 0 -9.5 1.83301 -12.5 5.5s-4.5 8.16699 -4.5 13.5v900c0 5.33301 1.5 9.83301 4.5 13.5s7.16699 5.5 12.5 5.5h10c5.33301 0 9.5 -1.83301 12.5 -5.5s4.5 -8.16699 4.5 -13.5v-900
v0z" />
    <glyph glyph-name="braceright" unicode="}" horiz-adv-x="300" 
d="M270 256c-13.333 -9.33301 -23.998 -18.5 -31.998 -27.5s-14.333 -18.667 -19 -29s-7.66699 -21.833 -9 -34.5s-2 -28 -2 -46v-204c0 -21.333 -2 -39 -6 -53s-10.833 -25.167 -20.5 -33.5s-22.334 -14.333 -38.001 -18s-35.167 -5.5 -58.5 -5.5h-46
c-12.667 0 -19 5.66699 -19 17v8c0 10.667 6.33301 16 19 16h46c16.667 0 30.167 0.833008 40.5 2.5s18.333 5 24 10s9.5 12 11.5 21s3 20.833 3 35.5v204c0 35.333 4.5 65 13.5 89s25.833 45.667 50.5 65c-25.333 20.667 -42.333 43 -51 67s-13 53.667 -13 89v204
c0 14.667 -1 26.5 -3 35.5s-5.83301 16 -11.5 21s-13.667 8.33301 -24 10s-23.833 2.5 -40.5 2.5h-46c-12.667 0 -19 5.33301 -19 16v8c0 11.333 6.33301 17 19 17h46c45.333 0 77.166 -7.83301 95.499 -23.5s27.5 -44.5 27.5 -86.5v-204c0 -18 0.666992 -33.333 2 -46
s4.33301 -24.167 9 -34.5s11 -20 19 -29s18.667 -18.167 32 -27.5v-36v0z" />
    <glyph glyph-name="asciitilde" unicode="~" 
d="M476 459c0 -36 -8.00195 -62.334 -24.002 -79.001s-38 -25 -66 -25c-15.333 0 -29.166 2.66699 -41.499 8s-24.166 13.333 -35.499 24l-57 55c-9.33301 9.33301 -18.666 17.5 -27.999 24.5s-19.666 10.5 -30.999 10.5c-14 0 -25.833 -5.16699 -35.5 -15.5
s-14.5 -27.833 -14.5 -52.5v-30c0 -6.66699 -0.5 -11.5 -1.5 -14.5s-4.16699 -4.5 -9.5 -4.5h-15c-8.66699 0 -13 6.33301 -13 19v30c0 36 8.16699 62.667 24.5 80s37.833 26 64.5 26c17.333 0 32.166 -3 44.499 -9s24.166 -14.333 35.499 -25l57 -55
c9.33301 -9.33301 18.5 -16.833 27.5 -22.5s18.167 -8.5 27.5 -8.5c17.333 0 30.333 4.5 39 13.5s13 25.833 13 50.5v31c0 6.66699 0.5 11.334 1.5 14.001s4.16699 4 9.5 4h15c8.66699 0 13 -6 13 -18v-31v0z" />
    <glyph glyph-name="uni00A0" unicode="&#xa0;" horiz-adv-x="215" 
 />
    <glyph glyph-name="exclamdown" unicode="&#xa1;" horiz-adv-x="204" 
d="M124 449c0 -5.33301 -1.83301 -9.83301 -5.5 -13.5s-8.16699 -5.5 -13.5 -5.5h-6c-5.33301 0 -9.83301 1.83301 -13.5 5.5s-5.5 8.16699 -5.5 13.5v74c0 5.33301 1.83301 9.83301 5.5 13.5s8.16699 5.5 13.5 5.5h6c5.33301 0 9.83301 -1.83301 13.5 -5.5
s5.5 -8.16699 5.5 -13.5v-74zM124 -188c0 -5.33301 -1.83301 -9.83301 -5.5 -13.5s-8.16699 -5.5 -13.5 -5.5h-6c-5.33301 0 -9.83301 1.83301 -13.5 5.5s-5.5 8.16699 -5.5 13.5v532c0 5.33301 1.83301 9.83301 5.5 13.5s8.16699 5.5 13.5 5.5h6
c5.33301 0 9.83301 -1.83301 13.5 -5.5s5.5 -8.16699 5.5 -13.5v-532z" />
    <glyph glyph-name="cent" unicode="&#xa2;" 
d="M432 21c0 -5.33301 -1.33301 -9.33203 -4 -11.999s-7.66699 -4.66699 -15 -6c-17.333 -2 -34.5 -3.83301 -51.5 -5.5s-33.167 -2.83398 -48.5 -3.50098v-101c0 -5.33301 -1.33301 -9.83301 -4 -13.5s-6.66699 -5.5 -12 -5.5h-10c-5.33301 0 -9.33301 1.83301 -12 5.5
s-4 8.16699 -4 13.5v102c-32 2.66699 -59.167 10.834 -81.5 24.501s-40.5 31.334 -54.5 53.001s-24.333 46.5 -31 74.5s-10 57.667 -10 89v67c0 31.333 3.33301 61 10 89s17 52.5 31 73.5s32.167 38.167 54.5 51.5s49.5 21.333 81.5 24v102
c0 5.33301 1.33301 9.83301 4 13.5s6.66699 5.5 12 5.5h10c5.33301 0 9.33301 -1.83301 12 -5.5s4 -8.16699 4 -13.5v-101c15.333 -0.666992 31.5 -1.83398 48.5 -3.50098s34.167 -3.5 51.5 -5.5c7.33301 -1.33301 12.333 -3.33301 15 -6s4 -6.66699 4 -12v-7
c0 -9.33301 -5.33301 -14 -16 -14h-5c-47.333 6 -87 9 -119 9c-28.667 0 -52.834 -4.66699 -72.501 -14s-35.5 -22.833 -47.5 -40.5s-20.667 -38.834 -26 -63.501s-8 -52 -8 -82v-67c0 -30 2.66699 -57.5 8 -82.5s14 -46.5 26 -64.5s27.833 -31.833 47.5 -41.5
s43.834 -14.5 72.501 -14.5c32 0 71.667 3 119 9h5c10.667 0 16 -4.66699 16 -14v-7v0z" />
    <glyph glyph-name="sterling" unicode="&#xa3;" 
d="M510 16c0 -5.33301 -2.00098 -9.33496 -6.00098 -12.002s-8.66699 -4 -14 -4h-372c-7.33301 0 -12.5 2.16699 -15.5 6.5s-4.5 8.83301 -4.5 13.5c0 4 1 7.66699 3 11c13.333 22 23.5 43 30.5 63s10.5 45 10.5 75v200h-53c-12 0 -18 5.66699 -18 17v9
c0 5.33301 2 9.5 6 12.5s8.66699 4.5 14 4.5h51v74c0 40.667 3.16699 77.167 9.5 109.5s17.166 59.833 32.499 82.5s35.833 40 61.5 52s57.5 18 95.5 18c26.667 0 52.834 -0.833008 78.501 -2.5s48.834 -3.83398 69.501 -6.50098c7.33301 -1.33301 12.333 -3 15 -5
s4 -5.66699 4 -11v-8c0 -5.33301 -1 -9.16602 -3 -11.499s-6 -3.5 -12 -3.5h-6c-22 2.66699 -46 4.66699 -72 6s-50.667 2 -74 2c-32 0 -58 -5.16699 -78 -15.5s-35.5 -25.166 -46.5 -44.499s-18.5 -42.666 -22.5 -69.999s-6 -58 -6 -92v-74h245c12 0 18 -5.66699 18 -17v-9
c0 -5.33301 -2 -9.5 -6 -12.5s-8.66699 -4.5 -14 -4.5h-243v-200c0 -28 -3 -52.167 -9 -72.5s-13.667 -38.833 -23 -55.5h334c5.33301 0 10 -1 14 -3s6 -5.66699 6 -11v-11v0z" />
    <glyph glyph-name="currency" unicode="&#xa4;" 
d="M525 161c0 -4.66699 -1.66406 -8.66406 -4.99707 -11.9971l-7 -7c-3.33301 -3.33301 -7 -5 -11 -5c-5.33301 0 -10.333 2.33301 -15 7l-81 82c-17.333 -13.333 -36 -23.5 -56 -30.5s-40.333 -10.5 -61 -10.5s-40.834 3.33301 -60.501 10s-38.167 16.667 -55.5 30l-80 -80
c-4.66699 -4.66699 -9.66699 -7 -15 -7c-4 0 -7.66699 1.66699 -11 5l-7 7c-3.33301 3.33301 -5 7 -5 11c0 5.33301 2.33301 10.333 7 15l79 79c-14 17.333 -24.5 36.166 -31.5 56.499s-10.5 41.166 -10.5 62.499c0 43.333 13.667 82.333 41 117l-78 78
c-4.66699 4.66699 -7 9.66699 -7 15c0 4.66699 1.66699 8.66699 5 12l7 7c2.66699 2.66699 6 4 10 4c6 0 11.333 -2.33301 16 -7l78 -78c34.667 27.333 73.667 41 117 41c21.333 0 42.166 -3.5 62.499 -10.5s39.166 -17.5 56.499 -31.5l80 80
c4.66699 4.66699 9.66699 7 15 7c4 0 7.66699 -1.66699 11 -5l7 -7c3.33301 -3.33301 5 -7 5 -11c0 -5.33301 -2.33301 -10.333 -7 -15l-80 -80c13.333 -17.333 23.333 -35.833 30 -55.5s10 -39.834 10 -60.501s-3.5 -41 -10.5 -61s-17.167 -38.667 -30.5 -56l81 -81
c4.66699 -4.66699 7 -9.66699 7 -15zM437.003 374.003c0 20.667 -3.83203 39.834 -11.499 57.501s-18.334 33.167 -32.001 46.5s-29.5 23.833 -47.5 31.5s-37 11.5 -57 11.5c-20.667 0 -40 -3.83301 -58 -11.5s-33.667 -18.167 -47 -31.5s-23.833 -28.833 -31.5 -46.5
s-11.5 -36.834 -11.5 -57.501s3.83301 -40 11.5 -58s18.167 -33.667 31.5 -47s29 -23.833 47 -31.5s37.333 -11.5 58 -11.5s40 3.83301 58 11.5s33.667 18.167 47 31.5s23.833 29 31.5 47s11.5 37.333 11.5 58z" />
    <glyph glyph-name="yen" unicode="&#xa5;" 
d="M535 254c0 -5.33301 -1.99414 -9.33301 -5.99414 -12s-8.66699 -4 -14 -4h-203v-219c0 -5.33301 -1.5 -9.83301 -4.5 -13.5s-7.16699 -5.5 -12.5 -5.5h-10c-5.33301 -0 -9.5 1.83301 -12.5 5.5s-4.5 8.16699 -4.5 13.5v219h-205c-12 0 -18 5.33301 -18 16v9
c0 5.33301 2 9.33301 6 12s8.66699 4 14 4h203v30l-61 121h-144c-12 0 -18 5.33301 -18 16v9c0 5.33301 2 9.33301 6 12s8.66699 4 14 4h121l-123 245c-4.66699 9.33301 -5.33398 16.166 -2.00098 20.499s8.66602 6.5 15.999 6.5h12c3.33301 0 6.16602 -0.666992 8.49902 -2
s4.83301 -4.66602 7.5 -9.99902l186 -370l185 370c2.66699 5.33301 5.16699 8.66602 7.5 9.99902s5.16602 2 8.49902 2h11c7.33301 0 12.666 -2.16699 15.999 -6.5s2.66602 -11.166 -2.00098 -20.499l-123 -245h123c12 0 18 -5.33301 18 -16v-9
c0 -5.33301 -2 -9.33301 -6 -12s-8.66699 -4 -14 -4h-142l-61 -121v-30h205c12 0 18 -5.33301 18 -16v-9v0z" />
    <glyph glyph-name="brokenbar" unicode="&#xa6;" horiz-adv-x="224" 
d="M134 361c0 -5.33301 -1.5 -9.83301 -4.5 -13.5s-7.16699 -5.5 -12.5 -5.5h-10c-5.33301 0 -9.5 1.83301 -12.5 5.5s-4.5 8.16699 -4.5 13.5v348c0 5.33301 1.5 9.83301 4.5 13.5s7.16699 5.5 12.5 5.5h10c5.33301 0 9.5 -1.83301 12.5 -5.5s4.5 -8.16699 4.5 -13.5v-348z
M134 -192c0 -5.33301 -1.5 -9.83301 -4.5 -13.5s-7.16699 -5.5 -12.5 -5.5h-10c-5.33301 0 -9.5 1.83301 -12.5 5.5s-4.5 8.16699 -4.5 13.5v348c0 5.33301 1.5 9.83301 4.5 13.5s7.16699 5.5 12.5 5.5h10c5.33301 0 9.5 -1.83301 12.5 -5.5s4.5 -8.16699 4.5 -13.5v-348z
" />
    <glyph glyph-name="section" unicode="&#xa7;" horiz-adv-x="521" 
d="M469 -29c0 -23.333 -2.99902 -46.3359 -8.99902 -69.0029s-17.5 -42.667 -34.5 -60s-40.667 -31.333 -71 -42s-69.5 -16 -117.5 -16c-32.667 0 -61.334 0.666992 -86.001 2s-47 3.33301 -67 6c-8 1.33301 -13 3.5 -15 6.5s-3 7.16699 -3 12.5v6
c0 7.33301 1.83301 12 5.5 14s8.16699 3 13.5 3h2l73.5 -5.5c23 -1.66699 48.5 -2.5 76.5 -2.5c38 0 69.167 3.5 93.5 10.5s43.5 16.667 57.5 29s23.667 27.5 29 45.5s8 38 8 60c0 16.667 -2 31.5 -6 44.5s-11 25.5 -21 37.5s-23.833 24.333 -41.5 37
s-39.834 27.334 -66.501 44.001l-100 61c-27.333 16.667 -50 32 -68 46s-32.167 27.833 -42.5 41.5s-17.5 27.834 -21.5 42.501s-6 31.667 -6 51c0 46 11.667 81.667 35 107c-13.333 15.333 -22.5 31 -27.5 47s-7.5 34.667 -7.5 56c0 55.333 17.833 96.166 53.5 122.499
s94.5 39.5 176.5 39.5c11.333 0 24.5 -0.166992 39.5 -0.5s29.833 -0.833008 44.5 -1.5s28.167 -1.5 40.5 -2.5s21.5 -1.83301 27.5 -2.5s10.333 -2.33398 13 -5.00098s4 -8 4 -16v-3c0 -13.333 -7 -19.666 -21 -18.999c-5.33301 0 -13.666 0.5 -24.999 1.5s-24 2 -38 3
s-28.5 1.83301 -43.5 2.5s-28.833 1 -41.5 1c-66 0 -113.5 -9.66699 -142.5 -29s-43.5 -49.666 -43.5 -90.999c0 -14.667 1.83301 -27.667 5.5 -39s10.167 -22.5 19.5 -33.5s21.833 -22.167 37.5 -33.5s35.5 -24.333 59.5 -39l98 -60c32 -19.333 58 -37.333 78 -54
s35.5 -32.667 46.5 -48s18.5 -31 22.5 -47s6 -33 6 -51c0 -19.333 -2 -38.666 -6 -57.999s-11.667 -37 -23 -53c11.333 -15.333 19 -31 23 -47s6 -33.333 6 -52zM425.001 180.997c0 16.667 -2 31.501 -6 44.501s-11 25.5 -21 37.5s-23.833 24.333 -41.5 37
s-39.834 27.334 -66.501 44.001l-100 61l-38 24.5c-11.333 7.66699 -21.666 15.167 -30.999 22.5c-16.667 -18.667 -25 -44 -25 -76c0 -14.667 1.83301 -27.667 5.5 -39s10.167 -22.5 19.5 -33.5s21.833 -22.167 37.5 -33.5s35.5 -24.333 59.5 -39l98 -60
c20.667 -12.667 38.5 -24.334 53.5 -35.001s28.167 -21.334 39.5 -32.001c10.667 21.333 16 47 16 77z" />
    <glyph glyph-name="dieresis" unicode="&#xa8;" horiz-adv-x="330" 
d="M262 661c0 -5.33301 -1.83301 -9.83301 -5.5 -13.5s-8.16699 -5.5 -13.5 -5.5h-6c-5.33301 0 -9.83301 1.83301 -13.5 5.5s-5.5 8.16699 -5.5 13.5v74c0 5.33301 1.83301 9.83301 5.5 13.5s8.16699 5.5 13.5 5.5h6c5.33301 0 9.83301 -1.83301 13.5 -5.5
s5.5 -8.16699 5.5 -13.5v-74zM112 661c0 -5.33301 -1.83301 -9.83301 -5.5 -13.5s-8.16699 -5.5 -13.5 -5.5h-6c-5.33301 0 -9.83301 1.83301 -13.5 5.5s-5.5 8.16699 -5.5 13.5v74c0 5.33301 1.83301 9.83301 5.5 13.5s8.16699 5.5 13.5 5.5h6
c5.33301 0 9.83301 -1.83301 13.5 -5.5s5.5 -8.16699 5.5 -13.5v-74z" />
    <glyph glyph-name="copyright" unicode="&#xa9;" horiz-adv-x="730" 
d="M685 374c0 -44 -8.5 -85.5 -25.5 -124.5s-40 -72.833 -69 -101.5s-63 -51.334 -102 -68.001s-80.5 -25 -124.5 -25s-85.5 8.33301 -124.5 25s-72.833 39.334 -101.5 68.001s-51.334 62.5 -68.001 101.5s-25 80.5 -25 124.5s8.33301 85.667 25 125
s39.334 73.5 68.001 102.5s62.5 52 101.5 69s80.5 25.5 124.5 25.5s85.5 -8.5 124.5 -25.5s73 -40 102 -69s52 -63.167 69 -102.5s25.5 -81 25.5 -125zM646 374c0 38.667 -7.33301 75.334 -22 110.001s-34.834 64.667 -60.501 90s-55.667 45.5 -90 60.5
s-70.833 22.5 -109.5 22.5c-39.333 0 -76 -7.5 -110 -22.5s-63.833 -35.167 -89.5 -60.5s-45.834 -55.333 -60.501 -90s-22 -71.334 -22 -110.001c0 -39.333 7.33301 -76 22 -110s34.834 -63.667 60.501 -89s55.5 -45.333 89.5 -60s70.667 -22 110 -22
c38.667 0 75.167 7.33301 109.5 22s64.333 34.667 90 60s45.834 55 60.501 89s22 70.667 22 110zM465 183c0 -5.33301 -1.83301 -9.17188 -5.5 -11.5049s-7.16699 -3.83301 -10.5 -4.5c-7.33301 -1.33301 -18.833 -2.66602 -34.5 -3.99902s-36.5 -2 -62.5 -2
c-18 0 -35.667 3 -53 9s-32.666 16 -45.999 30s-24 32.5 -32 55.5s-12 51.5 -12 85.5v72c0 34 4 62.5 12 85.5s18.667 41.5 32 55.5s28.666 24 45.999 30s35 9 53 9c26 0 46.833 -0.666992 62.5 -2s27.167 -2.66602 34.5 -3.99902c3.33301 -0.666992 6.83301 -2 10.5 -4
s5.5 -5.66699 5.5 -11v-8c0 -5.33301 -1.5 -8.66602 -4.5 -9.99902s-6.16699 -2 -9.5 -2h-4c-10 1.33301 -24 2.5 -42 3.5s-35.667 1.5 -53 1.5c-14.667 0 -28.334 -2.5 -41.001 -7.5s-23.834 -13.167 -33.501 -24.5s-17.167 -26.166 -22.5 -44.499s-8 -40.833 -8 -67.5v-72
c0 -26.667 2.66699 -49.167 8 -67.5s12.833 -33.166 22.5 -44.499s20.834 -19.5 33.501 -24.5s26.334 -7.5 41.001 -7.5c17.333 0 35 0.5 53 1.5s32 2.16699 42 3.5h2c3.33301 0 6.83301 -1 10.5 -3s5.5 -5.66699 5.5 -11v-5z" />
    <glyph glyph-name="ordfeminine" unicode="&#xaa;" horiz-adv-x="268" 
d="M230 469c0 -9.33301 -3.66797 -14.668 -11.001 -16.001c-26 -7.33301 -53 -11 -81 -11c-41.333 0 -70 7.33301 -86 22s-24 37.334 -24 68.001v7c0 30 10 52 30 66s54 21 102 21h37v14c0 27.333 -4.33301 46.333 -13 57s-24.667 16 -48 16c-17.333 0 -31 -0.5 -41 -1.5
s-21 -2.16699 -33 -3.5h-2c-3.33301 0 -6.66602 0.833008 -9.99902 2.5s-5 5.16699 -5 10.5v3c0 5.33301 1.66699 8.83301 5 10.5s7 2.83398 11 3.50098c11.333 1.33301 22.333 2.5 33 3.5s24.667 1.5 42 1.5c18.667 0 34 -2.66699 46 -8s21.5 -12.5 28.5 -21.5
s12 -19.833 15 -32.5s4.5 -26.334 4.5 -41.001v-171zM196.999 594.998l-36 0.000976562c-39.333 0 -66 -4.16699 -80 -12.5s-21 -22.833 -21 -43.5v-7c0 -10 1 -18.833 3 -26.5s5.83301 -14 11.5 -19s13.5 -8.66699 23.5 -11s23.333 -3.5 40 -3.5
c11.333 0 22.5 0.666992 33.5 2s19.5 2.66602 25.5 3.99902v117z" />
    <glyph glyph-name="guillemotleft" unicode="&#xab;" horiz-adv-x="535" 
d="M482 92c0 -4 -1.66699 -7.66699 -5 -11l-7 -7c-2.66699 -2.66699 -6 -4 -10 -4c-4.66699 0 -10 2.33301 -16 7l-178 163c-9.33301 8 -14 17.667 -14 29c0 10 4.66699 19.667 14 29l178 163c6 4.66699 11.333 7 16 7c4 0 7.33301 -1.33301 10 -4l7 -7
c3.33301 -3.33301 5 -7 5 -11c0 -6 -2.66699 -11 -8 -15l-177 -162l177 -162c5.33301 -4 8 -9 8 -15zM252 92c0 -4 -1.66699 -7.66699 -5 -11l-7 -7c-2.66699 -2.66699 -6 -4 -10 -4c-4.66699 0 -10 2.33301 -16 7l-178 163c-9.33301 8 -14 17.667 -14 29
c0 10 4.66699 19.667 14 29l178 163c6 4.66699 11.333 7 16 7c4 0 7.33301 -1.33301 10 -4l7 -7c3.33301 -3.33301 5 -7 5 -11c0 -6 -2.66699 -11 -8 -15l-177 -162l177 -162c5.33301 -4 8 -9 8 -15z" />
    <glyph glyph-name="logicalnot" unicode="&#xac;" 
d="M493 290c0 -5.33301 -1.33301 -9.99902 -4 -13.999s-6.66699 -6 -12 -6h-10c-5.33301 0 -9.33301 2 -12 6s-4 8.66699 -4 14v180h-343c-5.33301 0 -10 1.33301 -14 4s-6 6.66699 -6 12v10c0 5.33301 2 9.33301 6 12s8.66699 4 14 4h369
c5.33301 0 9.33301 -1.83301 12 -5.5s4 -7.83398 4 -12.501v-204v0z" />
    <glyph glyph-name="uni00AD" unicode="&#xad;" horiz-adv-x="344" 
d="M292 273c0 -10.667 -6.33301 -16 -19 -16h-202c-12.667 0 -19 5.33301 -19 16v8c0 5.33301 1.83301 9.66602 5.5 12.999s8.16699 5 13.5 5h202c5.33301 0 9.83301 -1.66699 13.5 -5s5.5 -7.66602 5.5 -12.999v-8v0z" />
    <glyph glyph-name="registered" unicode="&#xae;" horiz-adv-x="616" 
d="M571 484c0 -36 -6.83301 -70 -20.5 -102s-32.5 -59.833 -56.5 -83.5s-52 -42.334 -84 -56.001s-66 -20.5 -102 -20.5s-70 6.83301 -102 20.5s-60 32.334 -84 56.001s-42.833 51.5 -56.5 83.5s-20.5 66 -20.5 102s6.83301 70 20.5 102s32.5 60 56.5 84s52 42.833 84 56.5
s66 20.5 102 20.5s70 -6.83301 102 -20.5s60 -32.5 84 -56.5s42.833 -52 56.5 -84s20.5 -66 20.5 -102zM536 484c0 31.333 -6 60.833 -18 88.5s-28.333 51.834 -49 72.501s-44.834 37 -72.501 49s-57.167 18 -88.5 18s-60.833 -6 -88.5 -18s-51.834 -28.333 -72.501 -49
s-36.834 -44.834 -48.501 -72.501s-17.5 -57.167 -17.5 -88.5s5.83301 -60.833 17.5 -88.5s27.834 -51.834 48.501 -72.501s44.834 -36.834 72.501 -48.501s57.167 -17.5 88.5 -17.5s60.833 5.83301 88.5 17.5s51.834 27.834 72.501 48.501s37 44.834 49 72.501
s18 57.167 18 88.5zM427 330c0 -3.33301 -0.999023 -6.33398 -2.99902 -9.00098s-5.66699 -4 -11 -4h-5c-2.66699 0 -5.16699 0.833008 -7.5 2.5s-4.16602 3.16699 -5.49902 4.5l-91 139c-3.33301 0 -5.83301 0.166992 -7.5 0.5s-4.16699 0.5 -7.5 0.5h-49v-131
c0 -3.33301 -1.33301 -6.83301 -4 -10.5s-6.33398 -5.5 -11.001 -5.5h-4c-4.66699 0 -8.33398 1.83301 -11.001 5.5s-4 7.16699 -4 10.5v308c0 3.33301 1.33301 6.66602 4 9.99902s6 5.33301 10 6c7.33301 0.666992 18.333 1.16699 33 1.5s26.667 0.5 36 0.5
c40 0 71 -7 93 -21s33 -39.333 33 -76v-2c0 -27.333 -6.16699 -48.166 -18.5 -62.499s-30.5 -24.166 -54.5 -29.499l82 -127c2 -3.33301 3 -7 3 -11zM381.001 561.999c0 24 -7.33301 40.667 -22 50s-38 14 -70 14h-24.5c-9 0 -17.167 -0.333008 -24.5 -1v-128
c7.33301 0 16 -0.166992 26 -0.5s17.667 -0.5 23 -0.5c34 0 57.833 4.5 71.5 13.5s20.5 25.833 20.5 50.5v2z" />
    <glyph glyph-name="macron" unicode="&#xaf;" horiz-adv-x="330" 
d="M318 704c0 -5.33301 -2 -9.33301 -6 -12s-8.66699 -4 -14 -4h-266c-5.33301 0 -10 1.33301 -14 4s-6 6.66699 -6 12v11c0 5.33301 2 9.16602 6 11.499s8.66699 3.5 14 3.5h266c5.33301 0 10 -1.16699 14 -3.5s6 -6.16602 6 -11.499v-11v0z" />
    <glyph glyph-name="degree" unicode="&#xb0;" horiz-adv-x="331" 
d="M301 613c0 -18.667 -3.5 -36.167 -10.5 -52.5s-16.667 -30.666 -29 -42.999s-26.666 -22 -42.999 -29s-33.833 -10.5 -52.5 -10.5s-36.167 3.5 -52.5 10.5s-30.666 16.667 -42.999 29s-22.166 26.666 -29.499 42.999s-11 33.833 -11 52.5s3.66699 36.167 11 52.5
s17.166 30.666 29.499 42.999s26.666 22 42.999 29s33.833 10.5 52.5 10.5s36.167 -3.5 52.5 -10.5s30.666 -16.667 42.999 -29s22 -26.666 29 -42.999s10.5 -33.833 10.5 -52.5zM263 613c0 13.333 -2.5 25.833 -7.5 37.5s-12 22 -21 31s-19.333 16.167 -31 21.5
s-24.167 8 -37.5 8s-26 -2.66699 -38 -8s-22.333 -12.5 -31 -21.5s-15.5 -19.333 -20.5 -31s-7.5 -24.167 -7.5 -37.5s2.5 -25.833 7.5 -37.5s12 -22 21 -31s19.333 -16 31 -21s24.167 -7.5 37.5 -7.5s25.833 2.5 37.5 7.5s22 12 31 21s16 19.333 21 31s7.5 24.167 7.5 37.5
z" />
    <glyph glyph-name="plusminus" unicode="&#xb1;" 
d="M513 386c0 -5.33301 -2 -9.33301 -6 -12s-8.66699 -4 -14 -4h-182v-181c0 -5.33301 -1.33301 -10 -4 -14s-6.66699 -6 -12 -6h-10c-5.33301 0 -9.33301 2 -12 6s-4 8.66699 -4 14v181h-181c-5.33301 0 -10 1.33301 -14 4s-6 6.66699 -6 12v10c0 5.33301 2 9.33301 6 12
s8.66699 4 14 4h181v182c0 5.33301 1.33301 10 4 14s6.66699 6 12 6h10c5.33301 0 9.33301 -2 12 -6s4 -8.66699 4 -14v-182h182c5.33301 0 10 -1.33301 14 -4s6 -6.66699 6 -12v-10zM513 16c0 -5.33301 -2 -9.33301 -6 -12s-8.66699 -4 -14 -4h-405
c-5.33301 -0 -10 1.33301 -14 4s-6 6.66699 -6 12v10c0 5.33301 2 9.33301 6 12s8.66699 4 14 4h405c5.33301 0 10 -1.33301 14 -4s6 -6.66699 6 -12v-10z" />
    <glyph glyph-name="two.superior" unicode="&#xb2;" horiz-adv-x="319" 
d="M67 709c-5.33301 -0.666992 -9.99902 -0.499023 -13.999 0.500977s-6 4.83301 -6 11.5v3c0 6 1.16699 10.333 3.5 13s7.5 4.66699 15.5 6c13.333 2 27.166 3.5 41.499 4.5s27.5 1.5 39.5 1.5c43.333 0 76.333 -7.5 99 -22.5s34 -38.5 34 -70.5
c0 -20 -4.83301 -39.5 -14.5 -58.5s-30.167 -38.833 -61.5 -59.5l-55 -37c-16 -10.667 -28.667 -20.667 -38 -30s-16.333 -18.666 -21 -27.999s-7.66699 -18.833 -9 -28.5s-2 -19.834 -2 -30.501v-14h178c5.33301 0 9.66602 -1.33301 12.999 -4s5 -6.66699 5 -12v-6
c0 -6 -1.66699 -10.167 -5 -12.5s-7.66602 -3.5 -12.999 -3.5h-200c-5.33301 0 -9.66602 2 -12.999 6s-5 8.33301 -5 13v33c0 13.333 1 26.166 3 38.499s6.16699 24.5 12.5 36.5s15.166 23.833 26.499 35.5s26.333 24.167 45 37.5l55 38c22 14.667 37.167 27.667 45.5 39
s12.5 27 12.5 47c0 18 -6.83301 32.167 -20.5 42.5s-37.5 15.5 -71.5 15.5c-11.333 0 -24 -0.5 -38 -1.5s-28 -2.16699 -42 -3.5z" />
    <glyph glyph-name="three.superior" unicode="&#xb3;" horiz-adv-x="319" 
d="M237 461c0 7.33301 -0.831055 15.002 -2.49805 23.002s-4.83398 15.5 -9.50098 22.5s-11.5 12.833 -20.5 17.5s-20.833 7 -35.5 7h-101c-12 0 -18 5.66699 -18 17v4c0 11.333 6 17 18 17h101c14.667 0 26.5 2.33301 35.5 7s15.833 10.5 20.5 17.5
s7.83398 14.5 9.50098 22.5s2.5 15 2.5 21v7c0 28 -8.16699 46.667 -24.5 56s-41.5 14 -75.5 14c-12 0 -24.5 -0.666992 -37.5 -2l-39.5 -4c-5.33301 -0.666992 -9.83301 -0.5 -13.5 0.5s-5.5 4.83301 -5.5 11.5v4c0 4.66699 0.833008 8.5 2.5 11.5
s6.16699 5.16699 13.5 6.5c11.333 2 24.5 3.66699 39.5 5s28.5 2 40.5 2c22 0 41.667 -1.5 59 -4.5s32.166 -8.5 44.499 -16.5s21.666 -18.833 27.999 -32.5s9.5 -30.834 9.5 -51.501v-7c0 -16.667 -3.5 -32.834 -10.5 -48.501s-19.167 -29.167 -36.5 -40.5
c19.333 -10.667 32 -24.5 38 -41.5s9 -32.167 9 -45.5v-11c0 -45.333 -12.5 -76.833 -37.5 -94.5s-59.5 -26.5 -103.5 -26.5c-12 0 -25.5 0.666992 -40.5 2s-28.167 3 -39.5 5c-7.33301 1.33301 -11.833 3.5 -13.5 6.5s-2.5 6.83301 -2.5 11.5v4
c0 6.66699 1.83301 10.5 5.5 11.5s8.16699 1.16699 13.5 0.5l39.5 -4c13 -1.33301 25.5 -2 37.5 -2c34 0 59.167 6.33301 75.5 19s24.5 35 24.5 67v11z" />
    <glyph glyph-name="acute" unicode="&#xb4;" horiz-adv-x="330" 
d="M282 771c0 -2.66699 -1.33496 -5.33203 -4.00195 -7.99902l-107 -128c-4.66699 -5.33301 -8.16699 -9.5 -10.5 -12.5s-6.16602 -4.5 -11.499 -4.5h-22c-6 0 -9 2.33301 -9 7c0 4 1.33301 7.33301 4 10l100 128c4.66699 5.33301 8.33398 9.16602 11.001 11.499
s6.66699 3.5 12 3.5h26c7.33301 0 11 -2.33301 11 -7z" />
    <glyph glyph-name="mu" unicode="&#xb5;" horiz-adv-x="521" 
d="M451 38c0 -4 -1.33398 -7.66797 -4.00098 -11.001s-5.66699 -5.66602 -9 -6.99902c-24.667 -8 -52.667 -14.333 -84 -19s-60.333 -7 -87 -7c-36 0 -66.5 5.16699 -91.5 15.5s-45.5 24.5 -61.5 42.5v-228c0 -5.33301 -1.5 -9.83301 -4.5 -13.5s-7.16699 -5.5 -12.5 -5.5
h-10c-5.33301 0 -9.5 1.83301 -12.5 5.5s-4.5 8.16699 -4.5 13.5v694c0 5.33301 1.83301 9.83301 5.5 13.5s8.16699 5.5 13.5 5.5h7c5.33301 0 9.66602 -1.83301 12.999 -5.5s5 -8.16699 5 -13.5v-333c0 -50 12.333 -87.833 37 -113.5s63.334 -38.5 116.001 -38.5
c10.667 0 22.167 0.5 34.5 1.5s24.833 2.33301 37.5 4s24.834 3.66699 36.501 6s22.167 4.83301 31.5 7.5v466c0 5.33301 1.83301 9.83301 5.5 13.5s8.16699 5.5 13.5 5.5h6c5.33301 0 9.83301 -1.83301 13.5 -5.5s5.5 -8.16699 5.5 -13.5v-480v0z" />
    <glyph glyph-name="paragraph" unicode="&#xb6;" horiz-adv-x="599" 
d="M529 -176c0 -5.33301 -1.5 -9.83301 -4.5 -13.5s-7.16699 -5.5 -12.5 -5.5h-10c-5.33301 0 -9.5 1.83301 -12.5 5.5s-4.5 8.16699 -4.5 13.5v878h-56v-878c0 -5.33301 -1.5 -9.83301 -4.5 -13.5s-7.16699 -5.5 -12.5 -5.5h-10c-5.33301 0 -9.5 1.83301 -12.5 5.5
s-4.5 8.16699 -4.5 13.5v451h-109c-34.667 0 -66.167 4.83301 -94.5 14.5s-52.666 24 -72.999 43s-36 42.333 -47 70s-16.5 59.5 -16.5 95.5v22c0 36 5.5 67.833 16.5 95.5s26.667 51 47 70s44.666 33.333 72.999 43s59.833 14.5 94.5 14.5h237c10.667 0 16 -6.33301 16 -19
v-900v0z" />
    <glyph glyph-name="periodcentered" unicode="&#xb7;" horiz-adv-x="168" 
d="M106 360c0 -5.33301 -1.83301 -9.83301 -5.5 -13.5s-8.16699 -5.5 -13.5 -5.5h-6c-5.33301 0 -9.83301 1.83301 -13.5 5.5s-5.5 8.16699 -5.5 13.5v74c0 5.33301 1.83301 9.83301 5.5 13.5s8.16699 5.5 13.5 5.5h6c5.33301 0 9.83301 -1.83301 13.5 -5.5
s5.5 -8.16699 5.5 -13.5v-74v0z" />
    <glyph glyph-name="cedilla" unicode="&#xb8;" horiz-adv-x="330" 
d="M195 -62c0 -2.66699 -1.33496 -5.33203 -4.00195 -7.99902l-91 -108c-4.66699 -5.33301 -8.16699 -9.5 -10.5 -12.5s-6.16602 -4.5 -11.499 -4.5h-22c-6 0 -9 2.33301 -9 7c0 4 1.33301 7.33301 4 10l84 108c4.66699 5.33301 8.33398 9.16602 11.001 11.499
s6.66699 3.5 12 3.5h26c7.33301 0 11 -2.33301 11 -7z" />
    <glyph glyph-name="one.superior" unicode="&#xb9;" horiz-adv-x="210" 
d="M92 707l-54.998 -8.00391c-8 -1.33301 -13.333 -0.166016 -16 3.50098s-4 8.83398 -4 15.501c0 7.33301 1.66699 12 5 14s7.66602 3.66699 12.999 5l76 11c9.33301 1.33301 15.166 0 17.499 -4s3.5 -9 3.5 -15v-379c0 -5.33301 -1.16699 -9.66602 -3.5 -12.999
s-6.5 -5 -12.5 -5h-8c-6 0 -10.167 1.83301 -12.5 5.5s-3.5 7.83398 -3.5 12.501v357z" />
    <glyph glyph-name="ordmasculine" unicode="&#xba;" horiz-adv-x="287" 
d="M257 574c0 -41.333 -9.33301 -73.666 -28 -96.999s-47 -35 -85 -35s-66.5 11.667 -85.5 35s-28.5 55.666 -28.5 96.999v37c0 41.333 9.5 73.666 28.5 96.999s47.5 35 85.5 35s66.333 -11.667 85 -35s28 -55.666 28 -96.999v-37zM224 611c0 32 -6 57 -18 75
s-32.667 27 -62 27s-50.166 -9 -62.499 -27s-18.5 -43 -18.5 -75v-37c0 -32 6.16699 -57 18.5 -75s33.166 -27 62.499 -27s50 9 62 27s18 43 18 75v37z" />
    <glyph glyph-name="guillemotright" unicode="&#xbb;" horiz-adv-x="535" 
d="M513 269c0 -11.333 -4.66699 -21 -14 -29l-178 -163c-6 -4.66699 -11.333 -7 -16 -7c-4 0 -7.33301 1.33301 -10 4l-7 7c-3.33301 3.33301 -5 7 -5 11c0 6 2.66699 11 8 15l177 162l-177 162c-5.33301 4 -8 9 -8 15c0 4 1.66699 7.66699 5 11l7 7
c2.66699 2.66699 6 4 10 4c4.66699 0 10 -2.33301 16 -7l178 -163c9.33301 -9.33301 14 -19 14 -29zM283 269c0 -11.333 -4.66699 -21 -14 -29l-178 -163c-6 -4.66699 -11.333 -7 -16 -7c-4 0 -7.33301 1.33301 -10 4l-7 7c-3.33301 3.33301 -5 7 -5 11c0 6 2.66699 11 8 15
l177 162l-177 162c-5.33301 4 -8 9 -8 15c0 4 1.66699 7.66699 5 11l7 7c2.66699 2.66699 6 4 10 4c4.66699 0 10 -2.33301 16 -7l178 -163c9.33301 -9.33301 14 -19 14 -29z" />
    <glyph glyph-name="onequarter" unicode="&#xbc;" horiz-adv-x="632" 
d="M518 738c0 -3.33301 -2 -7.99902 -6 -13.999l-412 -705c-4 -7.33301 -7.16699 -12.333 -9.5 -15s-6.16602 -4 -11.499 -4h-27c-5.33301 0 -8 2 -8 6c0 3.33301 1.66699 7.66602 5 12.999l412 705c4 7.33301 7.16699 12.333 9.5 15s6.16602 4 11.499 4h28
c5.33301 0 8 -1.66699 8 -5zM105 707.001l-54.998 -8.00391c-8 -1.33301 -13.333 -0.166016 -16 3.50098s-4 8.83398 -4 15.501c0 7.33301 1.66699 12 5 14s7.66602 3.66699 12.999 5l76 11c9.33301 1.33301 15.166 0 17.499 -4s3.5 -9 3.5 -15v-379
c0 -5.33301 -1.16699 -9.66602 -3.5 -12.999s-6.5 -5 -12.5 -5h-8c-6 0 -10.167 1.83301 -12.5 5.5s-3.5 7.83398 -3.5 12.501v357zM498.002 153.997l0.000976562 207.001c0 5.33301 -1.66699 5.66602 -5 0.999023l-134 -201c-2.66699 -4.66699 -1.33398 -7 3.99902 -7h135z
M514.003 -0.00195312c-6 0 -10.167 1.83301 -12.5 5.5s-3.5 7.83398 -3.5 12.501v99h-141c-13.333 0 -23.666 3.33301 -30.999 10s-11 15.334 -11 26.001c0 5.33301 0.666992 10 2 14s4.33301 9.33301 9 16l147 215c5.33301 8.66699 11.166 14 17.499 16s12.5 3 18.5 3
c8.66699 0 15.667 -2.33301 21 -7s8 -13.334 8 -26.001v-230h46c4.66699 0 8.83398 -1.33301 12.501 -4s5.5 -6.66699 5.5 -12v-4c0 -5.33301 -1.83301 -9.5 -5.5 -12.5s-7.83398 -4.5 -12.501 -4.5h-46v-99c0 -4.66699 -1.16699 -8.83398 -3.5 -12.501
s-6.5 -5.5 -12.5 -5.5h-8z" />
    <glyph glyph-name="onehalf" unicode="&#xbd;" horiz-adv-x="663" 
d="M518 738c0 -3.33301 -2 -7.99902 -6 -13.999l-412 -705c-4 -7.33301 -7.16699 -12.333 -9.5 -15s-6.16602 -4 -11.499 -4h-27c-5.33301 0 -8 2 -8 6c0 3.33301 1.66699 7.66602 5 12.999l412 705c4 7.33301 7.16699 12.333 9.5 15s6.16602 4 11.499 4h28
c5.33301 0 8 -1.66699 8 -5zM105 707.001l-54.998 -8.00391c-8 -1.33301 -13.333 -0.166016 -16 3.50098s-4 8.83398 -4 15.501c0 7.33301 1.66699 12 5 14s7.66602 3.66699 12.999 5l76 11c9.33301 1.33301 15.166 0 17.499 -4s3.5 -9 3.5 -15v-379
c0 -5.33301 -1.16699 -9.66602 -3.5 -12.999s-6.5 -5 -12.5 -5h-8c-6 0 -10.167 1.83301 -12.5 5.5s-3.5 7.83398 -3.5 12.501v357zM420.002 376.997c-5.33301 -0.666992 -9.99902 -0.499023 -13.999 0.500977s-6 4.83301 -6 11.5v3c0 6 1.16699 10.333 3.5 13
s7.5 4.66699 15.5 6c13.333 2 27.166 3.5 41.499 4.5s27.5 1.5 39.5 1.5c43.333 0 76.333 -7.5 99 -22.5s34 -38.5 34 -70.5c0 -20 -4.83301 -39.5 -14.5 -58.5s-30.167 -38.833 -61.5 -59.5l-55 -37c-16 -10.667 -28.667 -20.667 -38 -30s-16.333 -18.666 -21 -27.999
s-7.66699 -18.833 -9 -28.5s-2 -19.834 -2 -30.501v-14h178c5.33301 0 9.66602 -1.33301 12.999 -4s5 -6.66699 5 -12v-6c0 -6 -1.66699 -10.167 -5 -12.5s-7.66602 -3.5 -12.999 -3.5h-200c-5.33301 0 -9.66602 2 -12.999 6s-5 8.33301 -5 13v33
c0 13.333 1 26.166 3 38.499s6.16699 24.5 12.5 36.5s15.166 23.833 26.499 35.5s26.333 24.167 45 37.5l55 38c22 14.667 37.167 27.667 45.5 39s12.5 27 12.5 47c0 18 -6.83301 32.167 -20.5 42.5s-37.5 15.5 -71.5 15.5c-11.333 0 -24 -0.5 -38 -1.5
s-28 -2.16699 -42 -3.5z" />
    <glyph glyph-name="threequarters" unicode="&#xbe;" horiz-adv-x="713" 
d="M599 738c0 -3.33301 -2 -7.99902 -6 -13.999l-412 -705c-4 -7.33301 -7.16699 -12.333 -9.5 -15s-6.16602 -4 -11.499 -4h-27c-5.33301 0 -8 2 -8 6c0 3.33301 1.66699 7.66602 5 12.999l412 705c4 7.33301 7.16699 12.333 9.5 15s6.16602 4 11.499 4h28
c5.33301 0 8 -1.66699 8 -5zM579 154.001l0.000976562 207.001c0 5.33301 -1.66699 5.66602 -5 0.999023l-134 -201c-2.66699 -4.66699 -1.33398 -7 3.99902 -7h135zM595.001 0.00195312c-6 0 -10.167 1.83301 -12.5 5.5s-3.5 7.83398 -3.5 12.501v99h-141
c-13.333 0 -23.666 3.33301 -30.999 10s-11 15.334 -11 26.001c0 5.33301 0.666992 10 2 14s4.33301 9.33301 9 16l147 215c5.33301 8.66699 11.166 14 17.499 16s12.5 3 18.5 3c8.66699 0 15.667 -2.33301 21 -7s8 -13.334 8 -26.001v-230h46
c4.66699 0 8.83398 -1.33301 12.501 -4s5.5 -6.66699 5.5 -12v-4c0 -5.33301 -1.83301 -9.5 -5.5 -12.5s-7.83398 -4.5 -12.501 -4.5h-46v-99c0 -4.66699 -1.16699 -8.83398 -3.5 -12.501s-6.5 -5.5 -12.5 -5.5h-8zM226.001 461.002
c0 7.33301 -0.831055 15.002 -2.49805 23.002s-4.83398 15.5 -9.50098 22.5s-11.5 12.833 -20.5 17.5s-20.833 7 -35.5 7h-101c-12 0 -18 5.66699 -18 17v4c0 11.333 6 17 18 17h101c14.667 0 26.5 2.33301 35.5 7s15.833 10.5 20.5 17.5s7.83398 14.5 9.50098 22.5
s2.5 15 2.5 21v7c0 28 -8.16699 46.667 -24.5 56s-41.5 14 -75.5 14c-12 0 -24.5 -0.666992 -37.5 -2l-39.5 -4c-5.33301 -0.666992 -9.83301 -0.5 -13.5 0.5s-5.5 4.83301 -5.5 11.5v4c0 4.66699 0.833008 8.5 2.5 11.5s6.16699 5.16699 13.5 6.5
c11.333 2 24.5 3.66699 39.5 5s28.5 2 40.5 2c22 0 41.667 -1.5 59 -4.5s32.166 -8.5 44.499 -16.5s21.666 -18.833 27.999 -32.5s9.5 -30.834 9.5 -51.501v-7c0 -16.667 -3.5 -32.834 -10.5 -48.501s-19.167 -29.167 -36.5 -40.5c19.333 -10.667 32 -24.5 38 -41.5
s9 -32.167 9 -45.5v-11c0 -45.333 -12.5 -76.833 -37.5 -94.5s-59.5 -26.5 -103.5 -26.5c-12 0 -25.5 0.666992 -40.5 2s-28.167 3 -39.5 5c-7.33301 1.33301 -11.833 3.5 -13.5 6.5s-2.5 6.83301 -2.5 11.5v4c0 6.66699 1.83301 10.5 5.5 11.5s8.16699 1.16699 13.5 0.5
l39.5 -4c13 -1.33301 25.5 -2 37.5 -2c34 0 59.167 6.33301 75.5 19s24.5 35 24.5 67v11z" />
    <glyph glyph-name="questiondown" unicode="&#xbf;" horiz-adv-x="424" 
d="M305 449c0 -5.33301 -1.83301 -9.83301 -5.5 -13.5s-8.16699 -5.5 -13.5 -5.5h-6c-5.33301 0 -9.83301 1.83301 -13.5 5.5s-5.5 8.16699 -5.5 13.5v74c0 5.33301 1.83301 9.83301 5.5 13.5s8.16699 5.5 13.5 5.5h6c5.33301 0 9.83301 -1.83301 13.5 -5.5
s5.5 -8.16699 5.5 -13.5v-74zM389 -186c0 -4.66699 -0.999023 -8.66895 -2.99902 -12.002s-6.66699 -5.66602 -14 -6.99902c-20.667 -2.66699 -40.834 -4.5 -60.501 -5.5s-39.167 -1.5 -58.5 -1.5c-24.667 0 -48.5 2.33301 -71.5 7s-43.5 12.667 -61.5 24
s-32.5 26.333 -43.5 45s-16.5 41.667 -16.5 69v8c0 14.667 1.66699 28.834 5 42.501s9.16602 27.667 17.499 42s19.5 29.833 33.5 46.5s32 36 54 58l30 30c12.667 12.667 22.834 23.667 30.501 33s13.667 18.5 18 27.5s7.33301 18.333 9 28s2.5 21.5 2.5 35.5v60
c0 5.33301 1.83301 9.83301 5.5 13.5s8.16699 5.5 13.5 5.5h6c5.33301 0 9.83301 -1.83301 13.5 -5.5s5.5 -8.16699 5.5 -13.5v-60c0 -16 -1.16699 -30.5 -3.5 -43.5s-6.33301 -25.333 -12 -37s-13.167 -23.5 -22.5 -35.5s-21.333 -25.333 -36 -40l-28 -28
c-20 -20 -36 -37.167 -48 -51.5s-21.5 -27.5 -28.5 -39.5s-11.667 -23.333 -14 -34s-3.5 -22 -3.5 -34v-8c0 -38 12 -65.167 36 -81.5s60.333 -24.5 109 -24.5c23.333 0 43.5 0.666992 60.5 2s37.167 3 60.5 5h2c8.66699 0 13 -4 13 -12v-8z" />
    <glyph glyph-name="Agrave" unicode="&#xc0;" horiz-adv-x="619" 
d="M579 22c2 -7.33301 2 -13.334 0 -18.001s-6.66699 -7 -14 -7h-12c-8 0 -13.333 4.33301 -16 13l-84 271h-288l-82 -271c-1.33301 -3.33301 -3.5 -6.33301 -6.5 -9s-6.16699 -4 -9.5 -4h-13c-6.66699 0 -11.167 2.33301 -13.5 7s-2.5 10.667 -0.5 18l205 677
c4.66699 15.333 12.5 27.333 23.5 36s24.833 13 41.5 13c16 0 29.5 -4.16699 40.5 -12.5s18.833 -20.166 23.5 -35.499zM333 687.999c-1.33301 5.33301 -3.66992 10 -7.00293 14s-8.66602 6 -15.999 6s-12.666 -1.83301 -15.999 -5.5s-5.66602 -8.16699 -6.99902 -13.5
l-110 -364h265zM366.996 800.999c0 -4.66699 -3.00195 -7.00195 -9.00195 -7.00195h-22c-5.33301 0 -9.16602 1.5 -11.499 4.5s-5.83301 7.16699 -10.5 12.5l-107 128c-2.66699 2.66699 -4 5.33398 -4 8.00098c0 4.66699 3.66699 7 11 7h26
c5.33301 0 9.33301 -1.16699 12 -3.5s6.33398 -6.16602 11.001 -11.499l100 -128c2.66699 -2.66699 4 -6 4 -10z" />
    <glyph glyph-name="Aacute" unicode="&#xc1;" horiz-adv-x="619" 
d="M579 22c2 -7.33301 2 -13.334 0 -18.001s-6.66699 -7 -14 -7h-12c-8 0 -13.333 4.33301 -16 13l-84 271h-288l-82 -271c-1.33301 -3.33301 -3.5 -6.33301 -6.5 -9s-6.16699 -4 -9.5 -4h-13c-6.66699 0 -11.167 2.33301 -13.5 7s-2.5 10.667 -0.5 18l205 677
c4.66699 15.333 12.5 27.333 23.5 36s24.833 13 41.5 13c16 0 29.5 -4.16699 40.5 -12.5s18.833 -20.166 23.5 -35.499zM333 687.999c-1.33301 5.33301 -3.66992 10 -7.00293 14s-8.66602 6 -15.999 6s-12.666 -1.83301 -15.999 -5.5s-5.66602 -8.16699 -6.99902 -13.5
l-110 -364h265zM414.996 945.999c0 -2.66699 -1.33496 -5.33203 -4.00195 -7.99902l-107 -128c-4.66699 -5.33301 -8.16699 -9.5 -10.5 -12.5s-6.16602 -4.5 -11.499 -4.5h-22c-6 0 -9 2.33301 -9 7c0 4 1.33301 7.33301 4 10l100 128
c4.66699 5.33301 8.33398 9.16602 11.001 11.499s6.66699 3.5 12 3.5h26c7.33301 0 11 -2.33301 11 -7z" />
    <glyph glyph-name="Acircumflex" unicode="&#xc2;" horiz-adv-x="619" 
d="M579 22c2 -7.33301 2 -13.334 0 -18.001s-6.66699 -7 -14 -7h-12c-8 0 -13.333 4.33301 -16 13l-84 271h-288l-82 -271c-1.33301 -3.33301 -3.5 -6.33301 -6.5 -9s-6.16699 -4 -9.5 -4h-13c-6.66699 0 -11.167 2.33301 -13.5 7s-2.5 10.667 -0.5 18l205 677
c4.66699 15.333 12.5 27.333 23.5 36s24.833 13 41.5 13c16 0 29.5 -4.16699 40.5 -12.5s18.833 -20.166 23.5 -35.499zM333 687.999c-1.33301 5.33301 -3.66992 10 -7.00293 14s-8.66602 6 -15.999 6s-12.666 -1.83301 -15.999 -5.5s-5.66602 -8.16699 -6.99902 -13.5
l-110 -364h265zM455.996 800.999c0 -4.66699 -3.00391 -7 -9.00391 -7h-22c-5.33301 0 -9.16602 1.5 -11.499 4.5s-5.83301 7.16699 -10.5 12.5l-94 113l-94 -113c-4.66699 -5.33301 -8.16699 -9.5 -10.5 -12.5s-6.16602 -4.5 -11.499 -4.5h-22c-6 0 -9 2.33301 -9 7
c0 4 1.33301 7.33301 4 10l100 128c4.66699 5.33301 8.33398 9.16602 11.001 11.499s6.66699 3.5 12 3.5h40c5.33301 0 9.33301 -1.16699 12 -3.5s6.33398 -6.16602 11.001 -11.499l100 -128c2.66699 -2.66699 4 -6 4 -10z" />
    <glyph glyph-name="Atilde" unicode="&#xc3;" horiz-adv-x="619" 
d="M579 22c2 -7.33301 2 -13.334 0 -18.001s-6.66699 -7 -14 -7h-12c-8 0 -13.333 4.33301 -16 13l-84 271h-288l-82 -271c-1.33301 -3.33301 -3.5 -6.33301 -6.5 -9s-6.16699 -4 -9.5 -4h-13c-6.66699 0 -11.167 2.33301 -13.5 7s-2.5 10.667 -0.5 18l205 677
c4.66699 15.333 12.5 27.333 23.5 36s24.833 13 41.5 13c16 0 29.5 -4.16699 40.5 -12.5s18.833 -20.166 23.5 -35.499zM333 687.999c-1.33301 5.33301 -3.66992 10 -7.00293 14s-8.66602 6 -15.999 6s-12.666 -1.83301 -15.999 -5.5s-5.66602 -8.16699 -6.99902 -13.5
l-110 -364h265zM468.996 878.999c0 -30.667 -7 -53.5 -21 -68.5s-33 -22.5 -57 -22.5c-26.667 0 -49 8.66699 -67 26l-48 47c-8 8 -15.5 14.667 -22.5 20s-15.5 8 -25.5 8c-12 0 -21.833 -3.5 -29.5 -10.5s-11.5 -21.167 -11.5 -42.5v-26c0 -5.33301 -0.5 -9.33301 -1.5 -12
s-3.83301 -4 -8.5 -4h-17c-7.33301 0 -11 5.33301 -11 16v26c0 30.667 7.16699 53.5 21.5 68.5s33.5 22.5 57.5 22.5c26 0 48 -8.66699 66 -26l48 -47c8 -8 16.167 -14.667 24.5 -20s16.5 -8 24.5 -8c12 0 21.667 3.5 29 10.5s11 21.167 11 42.5v26
c0 5.33301 0.5 9.33301 1.5 12s3.83301 4 8.5 4h17c7.33301 0 11 -5.33301 11 -16v-26z" />
    <glyph glyph-name="Adieresis" unicode="&#xc4;" horiz-adv-x="619" 
d="M579 22c2 -7.33301 2 -13.334 0 -18.001s-6.66699 -7 -14 -7h-12c-8 0 -13.333 4.33301 -16 13l-84 271h-288l-82 -271c-1.33301 -3.33301 -3.5 -6.33301 -6.5 -9s-6.16699 -4 -9.5 -4h-13c-6.66699 0 -11.167 2.33301 -13.5 7s-2.5 10.667 -0.5 18l205 677
c4.66699 15.333 12.5 27.333 23.5 36s24.833 13 41.5 13c16 0 29.5 -4.16699 40.5 -12.5s18.833 -20.166 23.5 -35.499zM333 687.999c-1.33301 5.33301 -3.66992 10 -7.00293 14s-8.66602 6 -15.999 6s-12.666 -1.83301 -15.999 -5.5s-5.66602 -8.16699 -6.99902 -13.5
l-110 -364h265zM405.996 832.999c0 -5.33301 -1.83301 -9.83301 -5.5 -13.5s-8.16699 -5.5 -13.5 -5.5h-6c-5.33301 0 -9.83301 1.83301 -13.5 5.5s-5.5 8.16699 -5.5 13.5v74c0 5.33301 1.83301 9.83301 5.5 13.5s8.16699 5.5 13.5 5.5h6
c5.33301 0 9.83301 -1.83301 13.5 -5.5s5.5 -8.16699 5.5 -13.5v-74zM255.996 832.999c0 -5.33301 -1.83301 -9.83301 -5.5 -13.5s-8.16699 -5.5 -13.5 -5.5h-6c-5.33301 0 -9.83301 1.83301 -13.5 5.5s-5.5 8.16699 -5.5 13.5v74c0 5.33301 1.83301 9.83301 5.5 13.5
s8.16699 5.5 13.5 5.5h6c5.33301 0 9.83301 -1.83301 13.5 -5.5s5.5 -8.16699 5.5 -13.5v-74z" />
    <glyph glyph-name="Aring" unicode="&#xc5;" horiz-adv-x="619" 
d="M579 22c2 -7.33301 2 -13.334 0 -18.001s-6.66699 -7 -14 -7h-12c-8 0 -13.333 4.33301 -16 13l-84 271h-288l-82 -271c-1.33301 -3.33301 -3.5 -6.33301 -6.5 -9s-6.16699 -4 -9.5 -4h-13c-6.66699 0 -11.167 2.33301 -13.5 7s-2.5 10.667 -0.5 18l205 677
c4.66699 15.333 12.5 27.333 23.5 36s24.833 13 41.5 13c16 0 29.5 -4.16699 40.5 -12.5s18.833 -20.166 23.5 -35.499zM333 687.999c-1.33301 5.33301 -3.66992 10 -7.00293 14s-8.66602 6 -15.999 6s-12.666 -1.83301 -15.999 -5.5s-5.66602 -8.16699 -6.99902 -13.5
l-110 -364h265zM401.996 886.999c0 -12.667 -2.5 -24.667 -7.5 -36s-11.667 -21.166 -20 -29.499s-18.166 -15 -29.499 -20s-23.333 -7.5 -36 -7.5s-24.667 2.5 -36 7.5s-21.166 11.667 -29.499 20s-15 18.166 -20 29.499s-7.5 23.333 -7.5 36s2.5 24.667 7.5 36
s11.667 21.166 20 29.499s18.166 15 29.499 20s23.333 7.5 36 7.5s24.667 -2.5 36 -7.5s21.166 -11.667 29.499 -20s15 -18.166 20 -29.499s7.5 -23.333 7.5 -36zM366.996 886.999c0 16 -5.66699 29.667 -17 41s-25 17 -41 17s-29.5 -5.66699 -40.5 -17s-16.5 -25 -16.5 -41
s5.5 -29.667 16.5 -41s24.5 -17 40.5 -17s29.667 5.66699 41 17s17 25 17 41z" />
    <glyph glyph-name="AE" unicode="&#xc6;" horiz-adv-x="879" 
d="M822 17c0 -11.333 -6.33203 -17 -18.999 -17h-296c-29.333 0 -50.5 6.5 -63.5 19.5s-19.5 33.5 -19.5 61.5v200h-268l-82 -271c-1.33301 -3.33301 -3.5 -6.33301 -6.5 -9s-6.16699 -4 -9.5 -4h-13c-6.66699 0 -11.167 2.33301 -13.5 7s-2.5 10.667 -0.5 18l205 672
c4.66699 15.333 12.5 27.333 23.5 36s24.833 13 41.5 13h502c12.667 0 19 -5.66699 19 -17v-8c0 -10.667 -6.33301 -16 -19 -16h-335v-291h335c12.667 0 19 -5.33301 19 -16v-10c0 -11.333 -6.33301 -17 -19 -17h-335v-287c0 -13.333 2.16699 -23.333 6.5 -30
s15.166 -10 32.499 -10h296c12.667 0 19 -5.33301 19 -16v-8zM424.001 702h-123c-12 0 -19.667 -6.33301 -23 -19l-110 -358h256v377z" />
    <glyph glyph-name="Ccedilla" unicode="&#xc7;" horiz-adv-x="537" 
d="M497 21c0 -5.33301 -2 -9.33301 -6 -12s-8.33301 -4.33398 -13 -5.00098l-62 -6c-28 -2.66699 -65 -4 -111 -4c-31.333 0 -61.666 5 -90.999 15s-55.5 27 -78.5 51s-41.333 55.833 -55 95.5s-20.5 89.5 -20.5 149.5v132c0 60 6.83301 109.833 20.5 149.5s32 71.5 55 95.5
s49.167 41 78.5 51s59.666 15 90.999 15c46 0 83 -1.33301 111 -4l62 -6c4.66699 -0.666992 9 -2.33398 13 -5.00098s6 -6.66699 6 -12v-12c0 -6 -1.83301 -9.66699 -5.5 -11s-8.16699 -1.66602 -13.5 -0.999023c-9.33301 0.666992 -20.666 1.66699 -33.999 3
s-27.666 2.33301 -42.999 3l-48 2c-16.667 0.666992 -32.667 1 -48 1c-28 0 -54.167 -4.83301 -78.5 -14.5s-45.666 -25.167 -63.999 -46.5s-32.666 -49 -42.999 -83s-15.5 -75.667 -15.5 -125v-132c0 -49.333 5.16699 -91 15.5 -125s24.666 -61.667 42.999 -83
s39.666 -36.833 63.999 -46.5s50.5 -14.5 78.5 -14.5c15.333 0 31.333 0.333008 48 1l48 2c15.333 0.666992 29.666 1.5 42.999 2.5s24.666 2.16699 33.999 3.5c5.33301 0.666992 9.83301 0.333984 13.5 -0.999023s5.5 -5 5.5 -11v-12zM342 -62
c0 -2.66699 -1.33496 -5.33203 -4.00195 -7.99902l-91 -108c-4.66699 -5.33301 -8.16699 -9.5 -10.5 -12.5s-6.16602 -4.5 -11.499 -4.5h-22c-6 0 -9 2.33301 -9 7c0 4 1.33301 7.33301 4 10l84 108c4.66699 5.33301 8.33398 9.16602 11.001 11.499s6.66699 3.5 12 3.5h26
c7.33301 0 11 -2.33301 11 -7z" />
    <glyph glyph-name="Egrave" unicode="&#xc8;" horiz-adv-x="533" 
d="M478 17c0 -11.333 -6.33301 -17.002 -19 -17.002h-258c-38 0 -67.667 8.16699 -89 24.5s-32 45.5 -32 87.5v519c0 42 10.667 71.167 32 87.5s51 24.5 89 24.5h258c12.667 0 19 -5.66699 19 -17v-8c0 -10.667 -6.33301 -16 -19 -16h-258
c-12 0 -22.833 -0.833008 -32.5 -2.5s-17.667 -5 -24 -10s-11.333 -12.167 -15 -21.5s-5.5 -21.666 -5.5 -36.999v-220h335c12.667 0 19 -5.33301 19 -16v-10c0 -11.333 -6.33301 -17 -19 -17h-335v-256c0 -15.333 1.83301 -27.666 5.5 -36.999s8.66699 -16.5 15 -21.5
s14.333 -8.33301 24 -10s20.5 -2.5 32.5 -2.5h258c12.667 0 19 -5.33301 19 -16v-8zM335 800.998c0 -4.66699 -3.00195 -7.00195 -9.00195 -7.00195h-22c-5.33301 0 -9.16602 1.5 -11.499 4.5s-5.83301 7.16699 -10.5 12.5l-107 128c-2.66699 2.66699 -4 5.33398 -4 8.00098
c0 4.66699 3.66699 7 11 7h26c5.33301 0 9.33301 -1.16699 12 -3.5s6.33398 -6.16602 11.001 -11.499l100 -128c2.66699 -2.66699 4 -6 4 -10z" />
    <glyph glyph-name="Eacute" unicode="&#xc9;" horiz-adv-x="533" 
d="M478 17c0 -11.333 -6.33301 -17.002 -19 -17.002h-258c-38 0 -67.667 8.16699 -89 24.5s-32 45.5 -32 87.5v519c0 42 10.667 71.167 32 87.5s51 24.5 89 24.5h258c12.667 0 19 -5.66699 19 -17v-8c0 -10.667 -6.33301 -16 -19 -16h-258
c-12 0 -22.833 -0.833008 -32.5 -2.5s-17.667 -5 -24 -10s-11.333 -12.167 -15 -21.5s-5.5 -21.666 -5.5 -36.999v-220h335c12.667 0 19 -5.33301 19 -16v-10c0 -11.333 -6.33301 -17 -19 -17h-335v-256c0 -15.333 1.83301 -27.666 5.5 -36.999s8.66699 -16.5 15 -21.5
s14.333 -8.33301 24 -10s20.5 -2.5 32.5 -2.5h258c12.667 0 19 -5.33301 19 -16v-8zM405 946.998c0 -2.66699 -1.33496 -5.33203 -4.00195 -7.99902l-107 -128c-4.66699 -5.33301 -8.16699 -9.5 -10.5 -12.5s-6.16602 -4.5 -11.499 -4.5h-22c-6 0 -9 2.33301 -9 7
c0 4 1.33301 7.33301 4 10l100 128c4.66699 5.33301 8.33398 9.16602 11.001 11.499s6.66699 3.5 12 3.5h26c7.33301 0 11 -2.33301 11 -7z" />
    <glyph glyph-name="Ecircumflex" unicode="&#xca;" horiz-adv-x="533" 
d="M478 17c0 -11.333 -6.33301 -17.002 -19 -17.002h-258c-38 0 -67.667 8.16699 -89 24.5s-32 45.5 -32 87.5v519c0 42 10.667 71.167 32 87.5s51 24.5 89 24.5h258c12.667 0 19 -5.66699 19 -17v-8c0 -10.667 -6.33301 -16 -19 -16h-258
c-12 0 -22.833 -0.833008 -32.5 -2.5s-17.667 -5 -24 -10s-11.333 -12.167 -15 -21.5s-5.5 -21.666 -5.5 -36.999v-220h335c12.667 0 19 -5.33301 19 -16v-10c0 -11.333 -6.33301 -17 -19 -17h-335v-256c0 -15.333 1.83301 -27.666 5.5 -36.999s8.66699 -16.5 15 -21.5
s14.333 -8.33301 24 -10s20.5 -2.5 32.5 -2.5h258c12.667 0 19 -5.33301 19 -16v-8zM425 800.998c0 -4.66699 -3.00391 -7 -9.00391 -7h-22c-5.33301 0 -9.16602 1.5 -11.499 4.5s-5.83301 7.16699 -10.5 12.5l-94 113l-94 -113
c-4.66699 -5.33301 -8.16699 -9.5 -10.5 -12.5s-6.16602 -4.5 -11.499 -4.5h-22c-6 0 -9 2.33301 -9 7c0 4 1.33301 7.33301 4 10l100 128c4.66699 5.33301 8.33398 9.16602 11.001 11.499s6.66699 3.5 12 3.5h40c5.33301 0 9.33301 -1.16699 12 -3.5
s6.33398 -6.16602 11.001 -11.499l100 -128c2.66699 -2.66699 4 -6 4 -10z" />
    <glyph glyph-name="Edieresis" unicode="&#xcb;" horiz-adv-x="533" 
d="M478 17c0 -11.333 -6.33301 -17.002 -19 -17.002h-258c-38 0 -67.667 8.16699 -89 24.5s-32 45.5 -32 87.5v519c0 42 10.667 71.167 32 87.5s51 24.5 89 24.5h258c12.667 0 19 -5.66699 19 -17v-8c0 -10.667 -6.33301 -16 -19 -16h-258
c-12 0 -22.833 -0.833008 -32.5 -2.5s-17.667 -5 -24 -10s-11.333 -12.167 -15 -21.5s-5.5 -21.666 -5.5 -36.999v-220h335c12.667 0 19 -5.33301 19 -16v-10c0 -11.333 -6.33301 -17 -19 -17h-335v-256c0 -15.333 1.83301 -27.666 5.5 -36.999s8.66699 -16.5 15 -21.5
s14.333 -8.33301 24 -10s20.5 -2.5 32.5 -2.5h258c12.667 0 19 -5.33301 19 -16v-8zM381 832.998c0 -5.33301 -1.83301 -9.83301 -5.5 -13.5s-8.16699 -5.5 -13.5 -5.5h-6c-5.33301 0 -9.83301 1.83301 -13.5 5.5s-5.5 8.16699 -5.5 13.5v74
c0 5.33301 1.83301 9.83301 5.5 13.5s8.16699 5.5 13.5 5.5h6c5.33301 0 9.83301 -1.83301 13.5 -5.5s5.5 -8.16699 5.5 -13.5v-74zM231 832.998c0 -5.33301 -1.83301 -9.83301 -5.5 -13.5s-8.16699 -5.5 -13.5 -5.5h-6c-5.33301 0 -9.83301 1.83301 -13.5 5.5
s-5.5 8.16699 -5.5 13.5v74c0 5.33301 1.83301 9.83301 5.5 13.5s8.16699 5.5 13.5 5.5h6c5.33301 0 9.83301 -1.83301 13.5 -5.5s5.5 -8.16699 5.5 -13.5v-74z" />
    <glyph glyph-name="Igrave" unicode="&#xcc;" horiz-adv-x="224" 
d="M134 19c0 -5.33301 -1.5 -9.83301 -4.5 -13.5s-7.16699 -5.5 -12.5 -5.5h-10c-5.33301 -0 -9.5 1.83301 -12.5 5.5s-4.5 8.16699 -4.5 13.5v705c0 5.33301 1.5 9.83301 4.5 13.5s7.16699 5.5 12.5 5.5h10c5.33301 0 9.5 -1.83301 12.5 -5.5s4.5 -8.16699 4.5 -13.5v-705z
M176 801c0 -4.66699 -3.00195 -7.00195 -9.00195 -7.00195h-22c-5.33301 0 -9.16602 1.5 -11.499 4.5s-5.83301 7.16699 -10.5 12.5l-107 128c-2.66699 2.66699 -4 5.33398 -4 8.00098c0 4.66699 3.66699 7 11 7h26c5.33301 0 9.33301 -1.16699 12 -3.5
s6.33398 -6.16602 11.001 -11.499l100 -128c2.66699 -2.66699 4 -6 4 -10z" />
    <glyph glyph-name="Iacute" unicode="&#xcd;" horiz-adv-x="224" 
d="M134 19c0 -5.33301 -1.5 -9.83301 -4.5 -13.5s-7.16699 -5.5 -12.5 -5.5h-10c-5.33301 -0 -9.5 1.83301 -12.5 5.5s-4.5 8.16699 -4.5 13.5v705c0 5.33301 1.5 9.83301 4.5 13.5s7.16699 5.5 12.5 5.5h10c5.33301 0 9.5 -1.83301 12.5 -5.5s4.5 -8.16699 4.5 -13.5v-705z
M214 947c0 -2.66699 -1.33496 -5.33203 -4.00195 -7.99902l-107 -128c-4.66699 -5.33301 -8.16699 -9.5 -10.5 -12.5s-6.16602 -4.5 -11.499 -4.5h-22c-6 0 -9 2.33301 -9 7c0 4 1.33301 7.33301 4 10l100 128c4.66699 5.33301 8.33398 9.16602 11.001 11.499
s6.66699 3.5 12 3.5h26c7.33301 0 11 -2.33301 11 -7z" />
    <glyph glyph-name="Icircumflex" unicode="&#xce;" horiz-adv-x="224" 
d="M134 19c0 -5.33301 -1.5 -9.83301 -4.5 -13.5s-7.16699 -5.5 -12.5 -5.5h-10c-5.33301 -0 -9.5 1.83301 -12.5 5.5s-4.5 8.16699 -4.5 13.5v705c0 5.33301 1.5 9.83301 4.5 13.5s7.16699 5.5 12.5 5.5h10c5.33301 0 9.5 -1.83301 12.5 -5.5s4.5 -8.16699 4.5 -13.5v-705z
M259 801c0 -4.66699 -3.00391 -7 -9.00391 -7h-22c-5.33301 0 -9.16602 1.5 -11.499 4.5s-5.83301 7.16699 -10.5 12.5l-94 113l-94 -113c-4.66699 -5.33301 -8.16699 -9.5 -10.5 -12.5s-6.16602 -4.5 -11.499 -4.5h-22c-6 0 -9 2.33301 -9 7c0 4 1.33301 7.33301 4 10
l100 128c4.66699 5.33301 8.33398 9.16602 11.001 11.499s6.66699 3.5 12 3.5h40c5.33301 0 9.33301 -1.16699 12 -3.5s6.33398 -6.16602 11.001 -11.499l100 -128c2.66699 -2.66699 4 -6 4 -10z" />
    <glyph glyph-name="Idieresis" unicode="&#xcf;" horiz-adv-x="224" 
d="M134 19c0 -5.33301 -1.5 -9.83301 -4.5 -13.5s-7.16699 -5.5 -12.5 -5.5h-10c-5.33301 -0 -9.5 1.83301 -12.5 5.5s-4.5 8.16699 -4.5 13.5v705c0 5.33301 1.5 9.83301 4.5 13.5s7.16699 5.5 12.5 5.5h10c5.33301 0 9.5 -1.83301 12.5 -5.5s4.5 -8.16699 4.5 -13.5v-705z
M209 833c0 -5.33301 -1.83301 -9.83301 -5.5 -13.5s-8.16699 -5.5 -13.5 -5.5h-6c-5.33301 0 -9.83301 1.83301 -13.5 5.5s-5.5 8.16699 -5.5 13.5v74c0 5.33301 1.83301 9.83301 5.5 13.5s8.16699 5.5 13.5 5.5h6c5.33301 0 9.83301 -1.83301 13.5 -5.5
s5.5 -8.16699 5.5 -13.5v-74zM59 833c0 -5.33301 -1.83301 -9.83301 -5.5 -13.5s-8.16699 -5.5 -13.5 -5.5h-6c-5.33301 0 -9.83301 1.83301 -13.5 5.5s-5.5 8.16699 -5.5 13.5v74c0 5.33301 1.83301 9.83301 5.5 13.5s8.16699 5.5 13.5 5.5h6
c5.33301 0 9.83301 -1.83301 13.5 -5.5s5.5 -8.16699 5.5 -13.5v-74z" />
    <glyph glyph-name="Eth" unicode="&#xd0;" horiz-adv-x="613" 
d="M553 309c0 -57.333 -7.16699 -105.998 -21.5 -145.998s-34.5 -72.5 -60.5 -97.5s-56.833 -43.167 -92.5 -54.5s-74.834 -17 -117.501 -17c-78.667 0 -133.334 2.66699 -164.001 8c-4.66699 1.33301 -8.66699 3.66602 -12 6.99902s-5 7.33301 -5 12v347h-71
c-12.667 0 -19 5.66699 -19 17v10c0 10.667 6.33301 16 19 16h71v310c0 4.66699 1.66699 8.66699 5 12s7.33301 5.66602 12 6.99902c30.667 5.33301 85.334 8 164.001 8c42.667 0 81.834 -5.5 117.501 -16.5s66.5 -28.833 92.5 -53.5s46.167 -57 60.5 -97
s21.5 -89.333 21.5 -148v-124zM509 433.002c0 53.333 -6.33301 97.6689 -19 133.002s-30.167 63.666 -52.5 84.999s-48.666 36.333 -78.999 45s-62.833 13 -97.5 13c-29.333 0 -54 -0.666992 -74 -2l-63 -4v-292h85c12.667 0 19 -5.33301 19 -16v-10
c0 -11.333 -6.33301 -17 -19 -17h-85v-331c22 -1.33301 43 -2.33301 63 -3s44.667 -1 74 -1c34.667 0 67.167 4.5 97.5 13.5s56.666 24.167 78.999 45.5s39.833 49.666 52.5 84.999s19 79.333 19 132v124z" />
    <glyph glyph-name="Ntilde" unicode="&#xd1;" horiz-adv-x="651" 
d="M571 45c0 -16 -4.33301 -28.5 -13 -37.5s-19.334 -13.5 -32.001 -13.5c-7.33301 0 -13.666 0.333008 -18.999 1s-10.333 2.66699 -15 6c-7.33301 6 -13.333 13.667 -18 23l-337 675c-2.66699 4.66699 -5.33398 7 -8.00098 7c-3.33301 0 -5 -2.33301 -5 -7v-680
c0 -5.33301 -1.5 -9.83301 -4.5 -13.5s-7.16699 -5.5 -12.5 -5.5h-10c-5.33301 -0 -9.5 1.83301 -12.5 5.5s-4.5 8.16699 -4.5 13.5v680c0 15.333 4.5 27.333 13.5 36s20.833 13 35.5 13c14 0 24.333 -2.83301 31 -8.5s12.334 -13.167 17.001 -22.5l336 -674
c2 -4.66699 4.66699 -7 8 -7c2 0 3.33301 1 4 3s1 4 1 6v679c0 5.33301 1.33301 9.83301 4 13.5s6.66699 5.5 12 5.5h12c5.33301 0 9.5 -1.83301 12.5 -5.5s4.5 -8.16699 4.5 -13.5v-679zM485 879c0 -30.667 -7 -53.5 -21 -68.5s-33 -22.5 -57 -22.5
c-26.667 0 -49 8.66699 -67 26l-48 47c-8 8 -15.5 14.667 -22.5 20s-15.5 8 -25.5 8c-12 0 -21.833 -3.5 -29.5 -10.5s-11.5 -21.167 -11.5 -42.5v-26c0 -5.33301 -0.5 -9.33301 -1.5 -12s-3.83301 -4 -8.5 -4h-17c-7.33301 0 -11 5.33301 -11 16v26
c0 30.667 7.16699 53.5 21.5 68.5s33.5 22.5 57.5 22.5c26 0 48 -8.66699 66 -26l48 -47c8 -8 16.167 -14.667 24.5 -20s16.5 -8 24.5 -8c12 0 21.667 3.5 29 10.5s11 21.167 11 42.5v26c0 5.33301 0.5 9.33301 1.5 12s3.83301 4 8.5 4h17c7.33301 0 11 -5.33301 11 -16v-26
z" />
    <glyph glyph-name="Ograve" unicode="&#xd2;" horiz-adv-x="632" 
d="M572 309c0 -56 -6.33301 -103.833 -19 -143.5s-30.334 -72.167 -53.001 -97.5s-49.667 -44 -81 -56s-65.666 -18 -102.999 -18s-71.666 6 -102.999 18s-58.333 30.667 -81 56s-40.334 57.833 -53.001 97.5s-19 87.5 -19 143.5v124c0 56 6.33301 103.833 19 143.5
s30.334 72.167 53.001 97.5s49.667 44 81 56s65.666 18 102.999 18s71.666 -6 102.999 -18s58.333 -30.667 81 -56s40.334 -57.833 53.001 -97.5s19 -87.5 19 -143.5v-124zM528 433c0 50.667 -5.33301 93.5 -16 128.5s-25.5 63.167 -44.5 84.5s-41.5 36.666 -67.5 45.999
s-54 14 -84 14s-58 -4.66699 -84 -14s-48.5 -24.666 -67.5 -45.999s-33.833 -49.5 -44.5 -84.5s-16 -77.833 -16 -128.5v-124c0 -51.333 5.33301 -94.333 16 -129s25.5 -62.667 44.5 -84s41.5 -36.666 67.5 -45.999s54 -14 84 -14s58 4.66699 84 14s48.5 24.666 67.5 45.999
s33.833 49.333 44.5 84s16 77.667 16 129v124zM370 801c0 -4.66699 -3.00195 -7.00195 -9.00195 -7.00195h-22c-5.33301 0 -9.16602 1.5 -11.499 4.5s-5.83301 7.16699 -10.5 12.5l-107 128c-2.66699 2.66699 -4 5.33398 -4 8.00098c0 4.66699 3.66699 7 11 7h26
c5.33301 0 9.33301 -1.16699 12 -3.5s6.33398 -6.16602 11.001 -11.499l100 -128c2.66699 -2.66699 4 -6 4 -10z" />
    <glyph glyph-name="Oacute" unicode="&#xd3;" horiz-adv-x="632" 
d="M572 309c0 -56 -6.33301 -103.833 -19 -143.5s-30.334 -72.167 -53.001 -97.5s-49.667 -44 -81 -56s-65.666 -18 -102.999 -18s-71.666 6 -102.999 18s-58.333 30.667 -81 56s-40.334 57.833 -53.001 97.5s-19 87.5 -19 143.5v124c0 56 6.33301 103.833 19 143.5
s30.334 72.167 53.001 97.5s49.667 44 81 56s65.666 18 102.999 18s71.666 -6 102.999 -18s58.333 -30.667 81 -56s40.334 -57.833 53.001 -97.5s19 -87.5 19 -143.5v-124zM528 433c0 50.667 -5.33301 93.5 -16 128.5s-25.5 63.167 -44.5 84.5s-41.5 36.666 -67.5 45.999
s-54 14 -84 14s-58 -4.66699 -84 -14s-48.5 -24.666 -67.5 -45.999s-33.833 -49.5 -44.5 -84.5s-16 -77.833 -16 -128.5v-124c0 -51.333 5.33301 -94.333 16 -129s25.5 -62.667 44.5 -84s41.5 -36.666 67.5 -45.999s54 -14 84 -14s58 4.66699 84 14s48.5 24.666 67.5 45.999
s33.833 49.333 44.5 84s16 77.667 16 129v124zM417 947c0 -2.66699 -1.33496 -5.33203 -4.00195 -7.99902l-107 -128c-4.66699 -5.33301 -8.16699 -9.5 -10.5 -12.5s-6.16602 -4.5 -11.499 -4.5h-22c-6 0 -9 2.33301 -9 7c0 4 1.33301 7.33301 4 10l100 128
c4.66699 5.33301 8.33398 9.16602 11.001 11.499s6.66699 3.5 12 3.5h26c7.33301 0 11 -2.33301 11 -7z" />
    <glyph glyph-name="Ocircumflex" unicode="&#xd4;" horiz-adv-x="632" 
d="M572 309c0 -56 -6.33301 -103.833 -19 -143.5s-30.334 -72.167 -53.001 -97.5s-49.667 -44 -81 -56s-65.666 -18 -102.999 -18s-71.666 6 -102.999 18s-58.333 30.667 -81 56s-40.334 57.833 -53.001 97.5s-19 87.5 -19 143.5v124c0 56 6.33301 103.833 19 143.5
s30.334 72.167 53.001 97.5s49.667 44 81 56s65.666 18 102.999 18s71.666 -6 102.999 -18s58.333 -30.667 81 -56s40.334 -57.833 53.001 -97.5s19 -87.5 19 -143.5v-124zM528 433c0 50.667 -5.33301 93.5 -16 128.5s-25.5 63.167 -44.5 84.5s-41.5 36.666 -67.5 45.999
s-54 14 -84 14s-58 -4.66699 -84 -14s-48.5 -24.666 -67.5 -45.999s-33.833 -49.5 -44.5 -84.5s-16 -77.833 -16 -128.5v-124c0 -51.333 5.33301 -94.333 16 -129s25.5 -62.667 44.5 -84s41.5 -36.666 67.5 -45.999s54 -14 84 -14s58 4.66699 84 14s48.5 24.666 67.5 45.999
s33.833 49.333 44.5 84s16 77.667 16 129v124zM463 801c0 -4.66699 -3.00391 -7 -9.00391 -7h-22c-5.33301 0 -9.16602 1.5 -11.499 4.5s-5.83301 7.16699 -10.5 12.5l-94 113l-94 -113c-4.66699 -5.33301 -8.16699 -9.5 -10.5 -12.5s-6.16602 -4.5 -11.499 -4.5h-22
c-6 0 -9 2.33301 -9 7c0 4 1.33301 7.33301 4 10l100 128c4.66699 5.33301 8.33398 9.16602 11.001 11.499s6.66699 3.5 12 3.5h40c5.33301 0 9.33301 -1.16699 12 -3.5s6.33398 -6.16602 11.001 -11.499l100 -128c2.66699 -2.66699 4 -6 4 -10z" />
    <glyph glyph-name="Otilde" unicode="&#xd5;" horiz-adv-x="632" 
d="M572 309c0 -56 -6.33301 -103.833 -19 -143.5s-30.334 -72.167 -53.001 -97.5s-49.667 -44 -81 -56s-65.666 -18 -102.999 -18s-71.666 6 -102.999 18s-58.333 30.667 -81 56s-40.334 57.833 -53.001 97.5s-19 87.5 -19 143.5v124c0 56 6.33301 103.833 19 143.5
s30.334 72.167 53.001 97.5s49.667 44 81 56s65.666 18 102.999 18s71.666 -6 102.999 -18s58.333 -30.667 81 -56s40.334 -57.833 53.001 -97.5s19 -87.5 19 -143.5v-124zM528 433c0 50.667 -5.33301 93.5 -16 128.5s-25.5 63.167 -44.5 84.5s-41.5 36.666 -67.5 45.999
s-54 14 -84 14s-58 -4.66699 -84 -14s-48.5 -24.666 -67.5 -45.999s-33.833 -49.5 -44.5 -84.5s-16 -77.833 -16 -128.5v-124c0 -51.333 5.33301 -94.333 16 -129s25.5 -62.667 44.5 -84s41.5 -36.666 67.5 -45.999s54 -14 84 -14s58 4.66699 84 14s48.5 24.666 67.5 45.999
s33.833 49.333 44.5 84s16 77.667 16 129v124zM476 879c0 -30.667 -7 -53.5 -21 -68.5s-33 -22.5 -57 -22.5c-26.667 0 -49 8.66699 -67 26l-48 47c-8 8 -15.5 14.667 -22.5 20s-15.5 8 -25.5 8c-12 0 -21.833 -3.5 -29.5 -10.5s-11.5 -21.167 -11.5 -42.5v-26
c0 -5.33301 -0.5 -9.33301 -1.5 -12s-3.83301 -4 -8.5 -4h-17c-7.33301 0 -11 5.33301 -11 16v26c0 30.667 7.16699 53.5 21.5 68.5s33.5 22.5 57.5 22.5c26 0 48 -8.66699 66 -26l48 -47c8 -8 16.167 -14.667 24.5 -20s16.5 -8 24.5 -8c12 0 21.667 3.5 29 10.5
s11 21.167 11 42.5v26c0 5.33301 0.5 9.33301 1.5 12s3.83301 4 8.5 4h17c7.33301 0 11 -5.33301 11 -16v-26z" />
    <glyph glyph-name="Odieresis" unicode="&#xd6;" horiz-adv-x="632" 
d="M572 309c0 -56 -6.33301 -103.833 -19 -143.5s-30.334 -72.167 -53.001 -97.5s-49.667 -44 -81 -56s-65.666 -18 -102.999 -18s-71.666 6 -102.999 18s-58.333 30.667 -81 56s-40.334 57.833 -53.001 97.5s-19 87.5 -19 143.5v124c0 56 6.33301 103.833 19 143.5
s30.334 72.167 53.001 97.5s49.667 44 81 56s65.666 18 102.999 18s71.666 -6 102.999 -18s58.333 -30.667 81 -56s40.334 -57.833 53.001 -97.5s19 -87.5 19 -143.5v-124zM528 433c0 50.667 -5.33301 93.5 -16 128.5s-25.5 63.167 -44.5 84.5s-41.5 36.666 -67.5 45.999
s-54 14 -84 14s-58 -4.66699 -84 -14s-48.5 -24.666 -67.5 -45.999s-33.833 -49.5 -44.5 -84.5s-16 -77.833 -16 -128.5v-124c0 -51.333 5.33301 -94.333 16 -129s25.5 -62.667 44.5 -84s41.5 -36.666 67.5 -45.999s54 -14 84 -14s58 4.66699 84 14s48.5 24.666 67.5 45.999
s33.833 49.333 44.5 84s16 77.667 16 129v124zM413 833c0 -5.33301 -1.83301 -9.83301 -5.5 -13.5s-8.16699 -5.5 -13.5 -5.5h-6c-5.33301 0 -9.83301 1.83301 -13.5 5.5s-5.5 8.16699 -5.5 13.5v74c0 5.33301 1.83301 9.83301 5.5 13.5s8.16699 5.5 13.5 5.5h6
c5.33301 0 9.83301 -1.83301 13.5 -5.5s5.5 -8.16699 5.5 -13.5v-74zM263 833c0 -5.33301 -1.83301 -9.83301 -5.5 -13.5s-8.16699 -5.5 -13.5 -5.5h-6c-5.33301 0 -9.83301 1.83301 -13.5 5.5s-5.5 8.16699 -5.5 13.5v74c0 5.33301 1.83301 9.83301 5.5 13.5
s8.16699 5.5 13.5 5.5h6c5.33301 0 9.83301 -1.83301 13.5 -5.5s5.5 -8.16699 5.5 -13.5v-74z" />
    <glyph glyph-name="multiply" unicode="&#xd7;" 
d="M470 548c0 -4.66699 -2.66699 -9.66602 -8 -14.999l-143 -142l143 -143c5.33301 -5.33301 8 -10.333 8 -15c0 -4 -1.66699 -7.66699 -5 -11l-7 -7c-3.33301 -3.33301 -7 -5 -11 -5c-4.66699 0 -9.66699 2.66699 -15 8l-142 143l-142 -142
c-5.33301 -5.33301 -10.333 -8 -15 -8c-4 0 -7.66699 1.66699 -11 5l-7 7c-3.33301 3.33301 -5 7 -5 11c0 4.66699 2.66699 9.66699 8 15l142 142l-142 142c-5.33301 5.33301 -8 10.333 -8 15c0 3.33301 1.66699 6.66602 5 9.99902l7 7c3.33301 3.33301 7 5 11 5
c4.66699 0 9.66699 -2.66699 15 -8l142 -142l142 143c5.33301 5.33301 10.333 8 15 8c4 0 7.66699 -1.66699 11 -5l7 -7c3.33301 -3.33301 5 -7 5 -11z" />
    <glyph glyph-name="Oslash" unicode="&#xd8;" horiz-adv-x="632" 
d="M596 732c0 -2.66699 -0.999023 -5.33398 -2.99902 -8.00098l-65 -90c14 -24.667 24.833 -53.5 32.5 -86.5s11.5 -71.167 11.5 -114.5v-124c0 -56 -6.33301 -103.833 -19 -143.5s-30.334 -72.167 -53.001 -97.5s-49.667 -44 -81 -56s-65.666 -18 -102.999 -18
c-38.667 0 -74 6.33301 -106 19s-59.667 33 -83 61l-44 -61c-3.33301 -4 -7.16602 -8.16699 -11.499 -12.5s-9.16602 -6.5 -14.499 -6.5h-10c-7.33301 0 -11 3.66699 -11 11c0 2 1 4.66699 3 8l66 92c-14.667 24.667 -25.834 53.834 -33.501 87.501s-11.5 72.5 -11.5 116.5
v124c0 56 6.33301 103.833 19 143.5s30.334 72.167 53.001 97.5s49.667 44 81 56s65.666 18 102.999 18c40 0 76 -6.5 108 -19.5s59.667 -33.833 83 -62.5l42 58c3.33301 4 7.16602 8.16699 11.499 12.5s9.16602 6.5 14.499 6.5h10c7.33301 0 11 -3.66699 11 -11z
M481.001 629c-19.333 28 -43.167 47.833 -71.5 59.5s-59.5 17.5 -93.5 17.5c-30 0 -58 -4.66699 -84 -14s-48.5 -24.666 -67.5 -45.999s-33.833 -49.5 -44.5 -84.5s-16 -77.833 -16 -128.5v-124c0 -35.333 2.5 -66.333 7.5 -93s12.167 -50.334 21.5 -71.001zM528 433
c0 34 -2.33301 64.335 -7 91.002s-11.667 50 -21 70l-347 -483c19.333 -26.667 42.833 -45.834 70.5 -57.501s58.5 -17.5 92.5 -17.5c30 0 58 4.66699 84 14s48.5 24.666 67.5 45.999s33.833 49.333 44.5 84s16 77.667 16 129v124z" />
    <glyph glyph-name="Ugrave" unicode="&#xd9;" horiz-adv-x="633" 
d="M553 264c0 -84.667 -19.001 -150.834 -57.001 -198.501s-97.667 -71.5 -179 -71.5s-141.166 23.833 -179.499 71.5s-57.5 113.834 -57.5 198.501v460c0 5.33301 1.5 9.83301 4.5 13.5s7.16699 5.5 12.5 5.5h10c5.33301 0 9.5 -1.83301 12.5 -5.5s4.5 -8.16699 4.5 -13.5
v-460c0 -72.667 14.667 -129 44 -169s79 -60 149 -60s119.5 20 148.5 60s43.5 96.333 43.5 169v460c0 5.33301 1.5 9.83301 4.5 13.5s7.16699 5.5 12.5 5.5h10c5.33301 0 9.5 -1.83301 12.5 -5.5s4.5 -8.16699 4.5 -13.5v-460zM367.999 801
c0 -4.66699 -3.00195 -7.00195 -9.00195 -7.00195h-22c-5.33301 0 -9.16602 1.5 -11.499 4.5s-5.83301 7.16699 -10.5 12.5l-107 128c-2.66699 2.66699 -4 5.33398 -4 8.00098c0 4.66699 3.66699 7 11 7h26c5.33301 0 9.33301 -1.16699 12 -3.5
s6.33398 -6.16602 11.001 -11.499l100 -128c2.66699 -2.66699 4 -6 4 -10z" />
    <glyph glyph-name="Uacute" unicode="&#xda;" horiz-adv-x="633" 
d="M553 264c0 -84.667 -19.001 -150.834 -57.001 -198.501s-97.667 -71.5 -179 -71.5s-141.166 23.833 -179.499 71.5s-57.5 113.834 -57.5 198.501v460c0 5.33301 1.5 9.83301 4.5 13.5s7.16699 5.5 12.5 5.5h10c5.33301 0 9.5 -1.83301 12.5 -5.5s4.5 -8.16699 4.5 -13.5
v-460c0 -72.667 14.667 -129 44 -169s79 -60 149 -60s119.5 20 148.5 60s43.5 96.333 43.5 169v460c0 5.33301 1.5 9.83301 4.5 13.5s7.16699 5.5 12.5 5.5h10c5.33301 0 9.5 -1.83301 12.5 -5.5s4.5 -8.16699 4.5 -13.5v-460zM427.999 947
c0 -2.66699 -1.33496 -5.33203 -4.00195 -7.99902l-107 -128c-4.66699 -5.33301 -8.16699 -9.5 -10.5 -12.5s-6.16602 -4.5 -11.499 -4.5h-22c-6 0 -9 2.33301 -9 7c0 4 1.33301 7.33301 4 10l100 128c4.66699 5.33301 8.33398 9.16602 11.001 11.499s6.66699 3.5 12 3.5h26
c7.33301 0 11 -2.33301 11 -7z" />
    <glyph glyph-name="Ucircumflex" unicode="&#xdb;" horiz-adv-x="633" 
d="M553 264c0 -84.667 -19.001 -150.834 -57.001 -198.501s-97.667 -71.5 -179 -71.5s-141.166 23.833 -179.499 71.5s-57.5 113.834 -57.5 198.501v460c0 5.33301 1.5 9.83301 4.5 13.5s7.16699 5.5 12.5 5.5h10c5.33301 0 9.5 -1.83301 12.5 -5.5s4.5 -8.16699 4.5 -13.5
v-460c0 -72.667 14.667 -129 44 -169s79 -60 149 -60s119.5 20 148.5 60s43.5 96.333 43.5 169v460c0 5.33301 1.5 9.83301 4.5 13.5s7.16699 5.5 12.5 5.5h10c5.33301 0 9.5 -1.83301 12.5 -5.5s4.5 -8.16699 4.5 -13.5v-460zM462.999 801
c0 -4.66699 -3.00391 -7 -9.00391 -7h-22c-5.33301 0 -9.16602 1.5 -11.499 4.5s-5.83301 7.16699 -10.5 12.5l-94 113l-94 -113c-4.66699 -5.33301 -8.16699 -9.5 -10.5 -12.5s-6.16602 -4.5 -11.499 -4.5h-22c-6 0 -9 2.33301 -9 7c0 4 1.33301 7.33301 4 10l100 128
c4.66699 5.33301 8.33398 9.16602 11.001 11.499s6.66699 3.5 12 3.5h40c5.33301 0 9.33301 -1.16699 12 -3.5s6.33398 -6.16602 11.001 -11.499l100 -128c2.66699 -2.66699 4 -6 4 -10z" />
    <glyph glyph-name="Udieresis" unicode="&#xdc;" horiz-adv-x="633" 
d="M553 264c0 -84.667 -19.001 -150.834 -57.001 -198.501s-97.667 -71.5 -179 -71.5s-141.166 23.833 -179.499 71.5s-57.5 113.834 -57.5 198.501v460c0 5.33301 1.5 9.83301 4.5 13.5s7.16699 5.5 12.5 5.5h10c5.33301 0 9.5 -1.83301 12.5 -5.5s4.5 -8.16699 4.5 -13.5
v-460c0 -72.667 14.667 -129 44 -169s79 -60 149 -60s119.5 20 148.5 60s43.5 96.333 43.5 169v460c0 5.33301 1.5 9.83301 4.5 13.5s7.16699 5.5 12.5 5.5h10c5.33301 0 9.5 -1.83301 12.5 -5.5s4.5 -8.16699 4.5 -13.5v-460zM412.999 833
c0 -5.33301 -1.83301 -9.83301 -5.5 -13.5s-8.16699 -5.5 -13.5 -5.5h-6c-5.33301 0 -9.83301 1.83301 -13.5 5.5s-5.5 8.16699 -5.5 13.5v74c0 5.33301 1.83301 9.83301 5.5 13.5s8.16699 5.5 13.5 5.5h6c5.33301 0 9.83301 -1.83301 13.5 -5.5s5.5 -8.16699 5.5 -13.5v-74
zM262.999 833c0 -5.33301 -1.83301 -9.83301 -5.5 -13.5s-8.16699 -5.5 -13.5 -5.5h-6c-5.33301 0 -9.83301 1.83301 -13.5 5.5s-5.5 8.16699 -5.5 13.5v74c0 5.33301 1.83301 9.83301 5.5 13.5s8.16699 5.5 13.5 5.5h6c5.33301 0 9.83301 -1.83301 13.5 -5.5
s5.5 -8.16699 5.5 -13.5v-74z" />
    <glyph glyph-name="Yacute" unicode="&#xdd;" horiz-adv-x="551" 
d="M344 367c-8.66699 -18.667 -16.834 -32.167 -24.501 -40.5s-15.167 -14.166 -22.5 -17.499v-290c0 -5.33301 -1.5 -9.83301 -4.5 -13.5s-7.16699 -5.5 -12.5 -5.5h-10c-5.33301 0 -9.5 1.83301 -12.5 5.5s-4.5 8.16699 -4.5 13.5v290
c-7.33301 3.33301 -14.833 9.16602 -22.5 17.499s-15.834 21.833 -24.501 40.5l-158 349c-4 9.33301 -4.5 16.166 -1.5 20.499s8.16699 6.5 15.5 6.5h10c3.33301 0 6.5 -1.16699 9.5 -3.5s5.16699 -5.16602 6.5 -8.49902l157 -350
c6.66699 -14.667 11.834 -24.167 15.501 -28.5s8.5 -6.5 14.5 -6.5s10.833 2.16699 14.5 6.5s8.83398 13.833 15.501 28.5l157 350c1.33301 3.33301 3.5 6.16602 6.5 8.49902s6.16699 3.5 9.5 3.5h10c7.33301 0 12.5 -2.16699 15.5 -6.5s2.5 -11.166 -1.5 -20.499zM391 947
c0 -2.66699 -1.33496 -5.33203 -4.00195 -7.99902l-107 -128c-4.66699 -5.33301 -8.16699 -9.5 -10.5 -12.5s-6.16602 -4.5 -11.499 -4.5h-22c-6 0 -9 2.33301 -9 7c0 4 1.33301 7.33301 4 10l100 128c4.66699 5.33301 8.33398 9.16602 11.001 11.499s6.66699 3.5 12 3.5h26
c7.33301 0 11 -2.33301 11 -7z" />
    <glyph glyph-name="Thorn" unicode="&#xde;" horiz-adv-x="540" 
d="M505 432c0 -39.333 -6.16602 -72.499 -18.499 -99.499s-30.166 -49 -53.499 -66s-51.833 -29.333 -85.5 -37s-71.834 -11.5 -114.501 -11.5c-19.333 0 -38.833 0.333008 -58.5 1s-36.5 1.66699 -50.5 3v-203c0 -5.33301 -1.5 -9.83301 -4.5 -13.5
s-7.16699 -5.5 -12.5 -5.5h-10c-5.33301 0 -9.5 1.83301 -12.5 5.5s-4.5 8.16699 -4.5 13.5v705c0 5.33301 1.5 9.83301 4.5 13.5s7.16699 5.5 12.5 5.5h10c5.33301 0 9.5 -1.83301 12.5 -5.5s4.5 -8.16699 4.5 -13.5v-75c17.333 1.33301 35.666 2.16602 54.999 2.49902
s37.333 0.5 54 0.5c42.667 0 80.834 -3.83301 114.501 -11.5s62.167 -19.667 85.5 -36s41.166 -37.333 53.499 -63s18.5 -56.5 18.5 -92.5v-17zM461.001 449.001c0 30.667 -4.83496 56.499 -14.502 77.499s-24.167 38 -43.5 51s-43.166 22.167 -71.499 27.5
s-61.166 8 -98.499 8c-21.333 0 -41.166 -0.166992 -59.499 -0.5s-34.833 -1.16602 -49.5 -2.49902v-349c15.333 -1.33301 33 -2.33301 53 -3s38.667 -1 56 -1c77.333 0 134.666 13.333 171.999 40s56 71.667 56 135v17z" />
    <glyph glyph-name="germandbls" unicode="&#xdf;" horiz-adv-x="543" 
d="M488 209c0 -39.333 -6.33398 -72.666 -19.001 -99.999s-29.667 -49.5 -51 -66.5s-46 -29.333 -74 -37s-57.667 -11.5 -89 -11.5c-6.66699 0 -12.5 0.333008 -17.5 1s-12.5 1.33398 -22.5 2.00098c-5.33301 0 -10 1.66699 -14 5s-6 7.66602 -6 12.999v8
c0 5.33301 1.66699 8.66602 5 9.99902s7.33301 2 12 2h3c12 -0.666992 20 -1.16699 24 -1.5s9.33301 -0.5 16 -0.5c60.667 0 107.334 13.833 140.001 41.5s49 72.5 49 134.5v8c0 21.333 -4 41.333 -12 60s-19.833 34.834 -35.5 48.501s-34.834 24.5 -57.501 32.5
s-48.667 12 -78 12h-41c-5.33301 0 -10 1.33301 -14 4s-6 6.66699 -6 12v9c0 5.33301 2 9.33301 6 12s8.66699 4 14 4h41c29.333 0 54.333 4.16699 75 12.5s37.667 19.166 51 32.499s23.166 28.833 29.499 46.5s9.5 35.834 9.5 54.501v7c0 45.333 -12 80.833 -36 106.5
s-62.333 38.5 -115 38.5c-20.667 0 -40.5 -3.16699 -59.5 -9.5s-35.667 -17 -50 -32s-25.666 -35 -33.999 -60s-12.5 -56.167 -12.5 -93.5v-494c0 -5.33301 -1.5 -10 -4.5 -14s-7.16699 -6 -12.5 -6h-12c-5.33301 0 -9.16602 2 -11.499 6s-3.5 8.66699 -3.5 14v493
c0 40 5 74.667 15 104s23.833 53.833 41.5 73.5s38.667 34.167 63 43.5s51.166 14 80.499 14c28.667 0 54.834 -3.83301 78.501 -11.5s44.167 -19.334 61.5 -35.001s30.833 -35 40.5 -58s14.5 -49.5 14.5 -79.5v-7c0 -20.667 -3.33301 -39.834 -10 -57.501
s-15.5 -33.667 -26.5 -48s-23.667 -26.5 -38 -36.5s-28.833 -18 -43.5 -24c39.333 -11.333 71.833 -32.166 97.5 -62.499s38.5 -67.5 38.5 -111.5v-8v0z" />
    <glyph glyph-name="agrave" unicode="&#xe0;" horiz-adv-x="488" 
d="M418 20c0 -5.33301 -2.00098 -10 -6.00098 -14s-8.66699 -6 -14 -6h-5c-5.33301 0 -10 2 -14 6s-6 8.66699 -6 14v25c-24.667 -13.333 -51.334 -25.166 -80.001 -35.499s-58.667 -15.5 -90 -15.5c-18.667 0 -37.167 2.5 -55.5 7.5s-34.666 13.667 -48.999 26
s-26 28.833 -35 49.5s-13.5 46.667 -13.5 78v13c0 26 4.33301 48.5 13 67.5s22.667 35 42 48s44.833 22.667 76.5 29s70.167 9.5 115.5 9.5h77v36c0 26 -2 48.167 -6 66.5s-10.833 33.333 -20.5 45s-22.667 20.167 -39 25.5s-36.5 8 -60.5 8
c-16.667 0 -31.167 -0.166992 -43.5 -0.5s-23.833 -1 -34.5 -2l-31 -3c-10 -1 -21 -2.16699 -33 -3.5c-5.33301 -0.666992 -10.5 -0.166992 -15.5 1.5s-7.5 6.16699 -7.5 13.5v6c0 6.66699 2 11 6 13s9.66699 3.66699 17 5c10.667 1.33301 20.834 2.5 30.501 3.5s20 2 31 3
s23 1.66699 36 2s27.833 0.5 44.5 0.5c34 0 61.833 -4.5 83.5 -13.5s39 -21.667 52 -38s22 -35.833 27 -58.5s7.5 -47.334 7.5 -74.001v-338zM373.999 283h-76.999c-38 0 -69.833 -2 -95.5 -6s-46.5 -10.5 -62.5 -19.5s-27.5 -20.833 -34.5 -35.5s-10.5 -32.667 -10.5 -54
v-13c0 -23.333 2.83301 -42.833 8.5 -58.5s13.5 -28.167 23.5 -37.5s21.5 -16 34.5 -20s27.167 -6 42.5 -6c28 0 55.167 4 81.5 12s56.166 21 89.499 39v199zM292 625c0 -4.66699 -3.00195 -7.00195 -9.00195 -7.00195h-22c-5.33301 0 -9.16602 1.5 -11.499 4.5
s-5.83301 7.16699 -10.5 12.5l-107 128c-2.66699 2.66699 -4 5.33398 -4 8.00098c0 4.66699 3.66699 7 11 7h26c5.33301 0 9.33301 -1.16699 12 -3.5s6.33398 -6.16602 11.001 -11.499l100 -128c2.66699 -2.66699 4 -6 4 -10z" />
    <glyph glyph-name="aacute" unicode="&#xe1;" horiz-adv-x="488" 
d="M418 20c0 -5.33301 -2.00098 -10 -6.00098 -14s-8.66699 -6 -14 -6h-5c-5.33301 0 -10 2 -14 6s-6 8.66699 -6 14v25c-24.667 -13.333 -51.334 -25.166 -80.001 -35.499s-58.667 -15.5 -90 -15.5c-18.667 0 -37.167 2.5 -55.5 7.5s-34.666 13.667 -48.999 26
s-26 28.833 -35 49.5s-13.5 46.667 -13.5 78v13c0 26 4.33301 48.5 13 67.5s22.667 35 42 48s44.833 22.667 76.5 29s70.167 9.5 115.5 9.5h77v36c0 26 -2 48.167 -6 66.5s-10.833 33.333 -20.5 45s-22.667 20.167 -39 25.5s-36.5 8 -60.5 8
c-16.667 0 -31.167 -0.166992 -43.5 -0.5s-23.833 -1 -34.5 -2l-31 -3c-10 -1 -21 -2.16699 -33 -3.5c-5.33301 -0.666992 -10.5 -0.166992 -15.5 1.5s-7.5 6.16699 -7.5 13.5v6c0 6.66699 2 11 6 13s9.66699 3.66699 17 5c10.667 1.33301 20.834 2.5 30.501 3.5s20 2 31 3
s23 1.66699 36 2s27.833 0.5 44.5 0.5c34 0 61.833 -4.5 83.5 -13.5s39 -21.667 52 -38s22 -35.833 27 -58.5s7.5 -47.334 7.5 -74.001v-338zM373.999 283h-76.999c-38 0 -69.833 -2 -95.5 -6s-46.5 -10.5 -62.5 -19.5s-27.5 -20.833 -34.5 -35.5s-10.5 -32.667 -10.5 -54
v-13c0 -23.333 2.83301 -42.833 8.5 -58.5s13.5 -28.167 23.5 -37.5s21.5 -16 34.5 -20s27.167 -6 42.5 -6c28 0 55.167 4 81.5 12s56.166 21 89.499 39v199zM362 771c0 -2.66699 -1.33496 -5.33203 -4.00195 -7.99902l-107 -128
c-4.66699 -5.33301 -8.16699 -9.5 -10.5 -12.5s-6.16602 -4.5 -11.499 -4.5h-22c-6 0 -9 2.33301 -9 7c0 4 1.33301 7.33301 4 10l100 128c4.66699 5.33301 8.33398 9.16602 11.001 11.499s6.66699 3.5 12 3.5h26c7.33301 0 11 -2.33301 11 -7z" />
    <glyph glyph-name="acircumflex" unicode="&#xe2;" horiz-adv-x="488" 
d="M418 20c0 -5.33301 -2.00098 -10 -6.00098 -14s-8.66699 -6 -14 -6h-5c-5.33301 0 -10 2 -14 6s-6 8.66699 -6 14v25c-24.667 -13.333 -51.334 -25.166 -80.001 -35.499s-58.667 -15.5 -90 -15.5c-18.667 0 -37.167 2.5 -55.5 7.5s-34.666 13.667 -48.999 26
s-26 28.833 -35 49.5s-13.5 46.667 -13.5 78v13c0 26 4.33301 48.5 13 67.5s22.667 35 42 48s44.833 22.667 76.5 29s70.167 9.5 115.5 9.5h77v36c0 26 -2 48.167 -6 66.5s-10.833 33.333 -20.5 45s-22.667 20.167 -39 25.5s-36.5 8 -60.5 8
c-16.667 0 -31.167 -0.166992 -43.5 -0.5s-23.833 -1 -34.5 -2l-31 -3c-10 -1 -21 -2.16699 -33 -3.5c-5.33301 -0.666992 -10.5 -0.166992 -15.5 1.5s-7.5 6.16699 -7.5 13.5v6c0 6.66699 2 11 6 13s9.66699 3.66699 17 5c10.667 1.33301 20.834 2.5 30.501 3.5s20 2 31 3
s23 1.66699 36 2s27.833 0.5 44.5 0.5c34 0 61.833 -4.5 83.5 -13.5s39 -21.667 52 -38s22 -35.833 27 -58.5s7.5 -47.334 7.5 -74.001v-338zM373.999 283h-76.999c-38 0 -69.833 -2 -95.5 -6s-46.5 -10.5 -62.5 -19.5s-27.5 -20.833 -34.5 -35.5s-10.5 -32.667 -10.5 -54
v-13c0 -23.333 2.83301 -42.833 8.5 -58.5s13.5 -28.167 23.5 -37.5s21.5 -16 34.5 -20s27.167 -6 42.5 -6c28 0 55.167 4 81.5 12s56.166 21 89.499 39v199zM391 625c0 -4.66699 -3.00391 -7 -9.00391 -7h-22c-5.33301 0 -9.16602 1.5 -11.499 4.5
s-5.83301 7.16699 -10.5 12.5l-94 113l-94 -113c-4.66699 -5.33301 -8.16699 -9.5 -10.5 -12.5s-6.16602 -4.5 -11.499 -4.5h-22c-6 0 -9 2.33301 -9 7c0 4 1.33301 7.33301 4 10l100 128c4.66699 5.33301 8.33398 9.16602 11.001 11.499s6.66699 3.5 12 3.5h40
c5.33301 0 9.33301 -1.16699 12 -3.5s6.33398 -6.16602 11.001 -11.499l100 -128c2.66699 -2.66699 4 -6 4 -10z" />
    <glyph glyph-name="atilde" unicode="&#xe3;" horiz-adv-x="488" 
d="M418 20c0 -5.33301 -2.00098 -10 -6.00098 -14s-8.66699 -6 -14 -6h-5c-5.33301 0 -10 2 -14 6s-6 8.66699 -6 14v25c-24.667 -13.333 -51.334 -25.166 -80.001 -35.499s-58.667 -15.5 -90 -15.5c-18.667 0 -37.167 2.5 -55.5 7.5s-34.666 13.667 -48.999 26
s-26 28.833 -35 49.5s-13.5 46.667 -13.5 78v13c0 26 4.33301 48.5 13 67.5s22.667 35 42 48s44.833 22.667 76.5 29s70.167 9.5 115.5 9.5h77v36c0 26 -2 48.167 -6 66.5s-10.833 33.333 -20.5 45s-22.667 20.167 -39 25.5s-36.5 8 -60.5 8
c-16.667 0 -31.167 -0.166992 -43.5 -0.5s-23.833 -1 -34.5 -2l-31 -3c-10 -1 -21 -2.16699 -33 -3.5c-5.33301 -0.666992 -10.5 -0.166992 -15.5 1.5s-7.5 6.16699 -7.5 13.5v6c0 6.66699 2 11 6 13s9.66699 3.66699 17 5c10.667 1.33301 20.834 2.5 30.501 3.5s20 2 31 3
s23 1.66699 36 2s27.833 0.5 44.5 0.5c34 0 61.833 -4.5 83.5 -13.5s39 -21.667 52 -38s22 -35.833 27 -58.5s7.5 -47.334 7.5 -74.001v-338zM373.999 283h-76.999c-38 0 -69.833 -2 -95.5 -6s-46.5 -10.5 -62.5 -19.5s-27.5 -20.833 -34.5 -35.5s-10.5 -32.667 -10.5 -54
v-13c0 -23.333 2.83301 -42.833 8.5 -58.5s13.5 -28.167 23.5 -37.5s21.5 -16 34.5 -20s27.167 -6 42.5 -6c28 0 55.167 4 81.5 12s56.166 21 89.499 39v199zM404 719c0 -30.667 -7 -53.5 -21 -68.5s-33 -22.5 -57 -22.5c-26.667 0 -49 8.66699 -67 26l-48 47
c-8 8 -15.5 14.667 -22.5 20s-15.5 8 -25.5 8c-12 0 -21.833 -3.5 -29.5 -10.5s-11.5 -21.167 -11.5 -42.5v-26c0 -5.33301 -0.5 -9.33301 -1.5 -12s-3.83301 -4 -8.5 -4h-17c-7.33301 0 -11 5.33301 -11 16v26c0 30.667 7.16699 53.5 21.5 68.5s33.5 22.5 57.5 22.5
c26 0 48 -8.66699 66 -26l48 -47c8 -8 16.167 -14.667 24.5 -20s16.5 -8 24.5 -8c12 0 21.667 3.5 29 10.5s11 21.167 11 42.5v26c0 5.33301 0.5 9.33301 1.5 12s3.83301 4 8.5 4h17c7.33301 0 11 -5.33301 11 -16v-26z" />
    <glyph glyph-name="adieresis" unicode="&#xe4;" horiz-adv-x="488" 
d="M418 20c0 -5.33301 -2.00098 -10 -6.00098 -14s-8.66699 -6 -14 -6h-5c-5.33301 0 -10 2 -14 6s-6 8.66699 -6 14v25c-24.667 -13.333 -51.334 -25.166 -80.001 -35.499s-58.667 -15.5 -90 -15.5c-18.667 0 -37.167 2.5 -55.5 7.5s-34.666 13.667 -48.999 26
s-26 28.833 -35 49.5s-13.5 46.667 -13.5 78v13c0 26 4.33301 48.5 13 67.5s22.667 35 42 48s44.833 22.667 76.5 29s70.167 9.5 115.5 9.5h77v36c0 26 -2 48.167 -6 66.5s-10.833 33.333 -20.5 45s-22.667 20.167 -39 25.5s-36.5 8 -60.5 8
c-16.667 0 -31.167 -0.166992 -43.5 -0.5s-23.833 -1 -34.5 -2l-31 -3c-10 -1 -21 -2.16699 -33 -3.5c-5.33301 -0.666992 -10.5 -0.166992 -15.5 1.5s-7.5 6.16699 -7.5 13.5v6c0 6.66699 2 11 6 13s9.66699 3.66699 17 5c10.667 1.33301 20.834 2.5 30.501 3.5s20 2 31 3
s23 1.66699 36 2s27.833 0.5 44.5 0.5c34 0 61.833 -4.5 83.5 -13.5s39 -21.667 52 -38s22 -35.833 27 -58.5s7.5 -47.334 7.5 -74.001v-338zM373.999 283h-76.999c-38 0 -69.833 -2 -95.5 -6s-46.5 -10.5 -62.5 -19.5s-27.5 -20.833 -34.5 -35.5s-10.5 -32.667 -10.5 -54
v-13c0 -23.333 2.83301 -42.833 8.5 -58.5s13.5 -28.167 23.5 -37.5s21.5 -16 34.5 -20s27.167 -6 42.5 -6c28 0 55.167 4 81.5 12s56.166 21 89.499 39v199zM341 661c0 -5.33301 -1.83301 -9.83301 -5.5 -13.5s-8.16699 -5.5 -13.5 -5.5h-6
c-5.33301 0 -9.83301 1.83301 -13.5 5.5s-5.5 8.16699 -5.5 13.5v74c0 5.33301 1.83301 9.83301 5.5 13.5s8.16699 5.5 13.5 5.5h6c5.33301 0 9.83301 -1.83301 13.5 -5.5s5.5 -8.16699 5.5 -13.5v-74zM191 661c0 -5.33301 -1.83301 -9.83301 -5.5 -13.5
s-8.16699 -5.5 -13.5 -5.5h-6c-5.33301 0 -9.83301 1.83301 -13.5 5.5s-5.5 8.16699 -5.5 13.5v74c0 5.33301 1.83301 9.83301 5.5 13.5s8.16699 5.5 13.5 5.5h6c5.33301 0 9.83301 -1.83301 13.5 -5.5s5.5 -8.16699 5.5 -13.5v-74z" />
    <glyph glyph-name="aring" unicode="&#xe5;" horiz-adv-x="488" 
d="M418 20c0 -5.33301 -2.00098 -10 -6.00098 -14s-8.66699 -6 -14 -6h-5c-5.33301 0 -10 2 -14 6s-6 8.66699 -6 14v25c-24.667 -13.333 -51.334 -25.166 -80.001 -35.499s-58.667 -15.5 -90 -15.5c-18.667 0 -37.167 2.5 -55.5 7.5s-34.666 13.667 -48.999 26
s-26 28.833 -35 49.5s-13.5 46.667 -13.5 78v13c0 26 4.33301 48.5 13 67.5s22.667 35 42 48s44.833 22.667 76.5 29s70.167 9.5 115.5 9.5h77v36c0 26 -2 48.167 -6 66.5s-10.833 33.333 -20.5 45s-22.667 20.167 -39 25.5s-36.5 8 -60.5 8
c-16.667 0 -31.167 -0.166992 -43.5 -0.5s-23.833 -1 -34.5 -2l-31 -3c-10 -1 -21 -2.16699 -33 -3.5c-5.33301 -0.666992 -10.5 -0.166992 -15.5 1.5s-7.5 6.16699 -7.5 13.5v6c0 6.66699 2 11 6 13s9.66699 3.66699 17 5c10.667 1.33301 20.834 2.5 30.501 3.5s20 2 31 3
s23 1.66699 36 2s27.833 0.5 44.5 0.5c34 0 61.833 -4.5 83.5 -13.5s39 -21.667 52 -38s22 -35.833 27 -58.5s7.5 -47.334 7.5 -74.001v-338zM373.999 283h-76.999c-38 0 -69.833 -2 -95.5 -6s-46.5 -10.5 -62.5 -19.5s-27.5 -20.833 -34.5 -35.5s-10.5 -32.667 -10.5 -54
v-13c0 -23.333 2.83301 -42.833 8.5 -58.5s13.5 -28.167 23.5 -37.5s21.5 -16 34.5 -20s27.167 -6 42.5 -6c28 0 55.167 4 81.5 12s56.166 21 89.499 39v199zM337 698c0 -12.667 -2.5 -24.667 -7.5 -36s-11.667 -21.166 -20 -29.499s-18.166 -15 -29.499 -20
s-23.333 -7.5 -36 -7.5s-24.667 2.5 -36 7.5s-21.166 11.667 -29.499 20s-15 18.166 -20 29.499s-7.5 23.333 -7.5 36s2.5 24.667 7.5 36s11.667 21.166 20 29.499s18.166 15 29.499 20s23.333 7.5 36 7.5s24.667 -2.5 36 -7.5s21.166 -11.667 29.499 -20
s15 -18.166 20 -29.499s7.5 -23.333 7.5 -36zM302 698c0 16 -5.66699 29.667 -17 41s-25 17 -41 17s-29.5 -5.66699 -40.5 -17s-16.5 -25 -16.5 -41s5.5 -29.667 16.5 -41s24.5 -17 40.5 -17s29.667 5.66699 41 17s17 25 17 41z" />
    <glyph glyph-name="ae" unicode="&#xe6;" horiz-adv-x="830" 
d="M775 277c0 -5.33301 -1.83301 -9.83398 -5.5 -13.501s-8.16699 -5.5 -13.5 -5.5h-338v-54c0 -23.333 1 -42.666 3 -57.999s5 -28 9 -38s8.66699 -18 14 -24s11 -11.333 17 -16c19.333 -14.667 41 -24.167 65 -28.5s48.333 -6.5 73 -6.5c22 0 46 1.5 72 4.5
s51.333 7.16699 76 12.5c1.33301 0 2.33301 0.166992 3 0.5s1.66699 0.5 3 0.5c4 0 7.5 -1 10.5 -3s4.5 -5.66699 4.5 -11v-7c0 -5.33301 -1.33301 -9.5 -4 -12.5s-7.66699 -5.16699 -15 -6.5c-24 -5.33301 -49.333 -9.5 -76 -12.5s-51.334 -4.5 -74.001 -4.5
c-19.333 0 -39 1.16699 -59 3.5s-39.167 6.83301 -57.5 13.5s-35.166 15.834 -50.499 27.501s-28 26.834 -38 45.501c-8 -10.667 -16.833 -21.334 -26.5 -32.001s-21.834 -20.334 -36.501 -29.001s-32.334 -15.667 -53.001 -21s-45.667 -8 -75 -8
c-18.667 0 -37.167 2.5 -55.5 7.5s-34.666 13.667 -48.999 26s-26 28.833 -35 49.5s-13.5 46.667 -13.5 78v13c0 26 4.33301 48.5 13 67.5s22.667 35 42 48s44.833 22.667 76.5 29s70.167 9.5 115.5 9.5h77v36c0 26 -2 48.167 -6 66.5s-10.833 33.333 -20.5 45
s-22.667 20.167 -39 25.5s-36.5 8 -60.5 8c-16 0 -30.167 -0.166992 -42.5 -0.5s-24 -1 -35 -2l-31.5 -3c-10 -1 -21 -2.16699 -33 -3.5h-4c-4.66699 0 -9 1.16699 -13 3.5s-6 6.16602 -6 11.499v6c0 10 7.66699 16 23 18c10.667 1.33301 20.834 2.5 30.501 3.5s20 2 31 3
s23 1.66699 36 2s27.833 0.5 44.5 0.5c48 0 84 -8.66699 108 -26s40.667 -41 50 -71c17.333 31.333 40 55.333 68 72s62 25 102 25c34.667 0 64.5 -5.66699 89.5 -17s45.667 -27.5 62 -48.5s28.333 -46.167 36 -75.5s11.5 -61.666 11.5 -96.999v-27zM731 303.999
c0 63.333 -11.667 112.332 -35 146.999s-63.333 52 -120 52c-28 0 -51.833 -4.83301 -71.5 -14.5s-36 -23.167 -49 -40.5s-22.5 -38.166 -28.5 -62.499s-9 -51.5 -9 -81.5v-6h313v6zM374 281.998l-77.001 -0.000976562c-38 0 -69.833 -2 -95.5 -6s-46.5 -10.5 -62.5 -19.5
s-27.5 -20.667 -34.5 -35s-10.5 -32.166 -10.5 -53.499v-13c0 -23.333 2.83301 -42.833 8.5 -58.5s13.5 -28.167 23.5 -37.5s21.5 -16 34.5 -20s27.167 -6 42.5 -6c58.667 0 101.834 13 129.501 39s41.5 70 41.5 132v78z" />
    <glyph glyph-name="ccedilla" unicode="&#xe7;" horiz-adv-x="437" 
d="M393 21c0 -5.33301 -1.33301 -9.32812 -4 -11.9951s-7.66699 -4.66699 -15 -6c-21.333 -2.66699 -42.833 -4.83398 -64.5 -6.50098s-40.5 -2.5 -56.5 -2.5c-36 0 -66.5 6.5 -91.5 19.5s-45.333 30.5 -61 52.5s-27.167 47.667 -34.5 77s-11 60.333 -11 93v67
c0 33.333 3.66699 64.5 11 93.5s18.833 54.333 34.5 76s36 38.667 61 51s55.5 18.5 91.5 18.5c16 0 34.833 -0.833008 56.5 -2.5s43.167 -3.83398 64.5 -6.50098c7.33301 -1.33301 12.333 -3.33301 15 -6s4 -6.66699 4 -12v-7c0 -5.33301 -2 -9.33301 -6 -12
s-9 -3.33398 -15 -2.00098c-47.333 6 -87 9 -119 9c-28.667 0 -52.834 -4.66699 -72.501 -14s-35.5 -22.833 -47.5 -40.5s-20.667 -38.834 -26 -63.501s-8 -52 -8 -82v-67c0 -30 2.66699 -57.5 8 -82.5s14 -46.5 26 -64.5s27.833 -31.833 47.5 -41.5
s43.834 -14.5 72.501 -14.5c32 0 71.667 3 119 9c6 1.33301 11 0.666016 15 -2.00098s6 -6.66699 6 -12v-7zM292 -61.9951c0 -2.66699 -1.33496 -5.33203 -4.00195 -7.99902l-91 -108c-4.66699 -5.33301 -8.16699 -9.5 -10.5 -12.5s-6.16602 -4.5 -11.499 -4.5h-22
c-6 0 -9 2.33301 -9 7c0 4 1.33301 7.33301 4 10l84 108c4.66699 5.33301 8.33398 9.16602 11.001 11.499s6.66699 3.5 12 3.5h26c7.33301 0 11 -2.33301 11 -7z" />
    <glyph glyph-name="egrave" unicode="&#xe8;" horiz-adv-x="511" 
d="M456 277c0 -5.33301 -1.83105 -9.83008 -5.49805 -13.4971s-8.16699 -5.5 -13.5 -5.5h-338v-21c0 -42 4.66699 -76.333 14 -103s22.333 -47.5 39 -62.5s35.834 -25.167 57.501 -30.5s45.167 -8 70.5 -8c22 0 46 1.5 72 4.5s51.333 7.16699 76 12.5
c5.33301 1.33301 10.166 1.16602 14.499 -0.500977s6.5 -5.83398 6.5 -12.501v-7c0 -5.33301 -1.33301 -9.5 -4 -12.5s-7.66699 -5.16699 -15 -6.5c-24 -5.33301 -49.333 -9.5 -76 -12.5s-51.334 -4.5 -74.001 -4.5c-31.333 0 -60.5 3.83301 -87.5 11.5
s-50.833 20.667 -71.5 39s-36.834 43.166 -48.501 74.499s-17.5 70.666 -17.5 117.999v66c0 34.667 4.33301 66.5 13 95.5s21.5 54.167 38.5 75.5s38 38 63 50s54.167 18 87.5 18c34.667 0 64.5 -5.66699 89.5 -17s45.667 -27.5 62 -48.5s28.333 -46.167 36 -75.5
s11.5 -61.666 11.5 -96.999v-27zM412.002 304.003c0 63.333 -11.667 112.334 -35 147.001s-63.333 52 -120 52c-28 0 -51.833 -4.83301 -71.5 -14.5s-36 -23.334 -49 -41.001s-22.5 -38.667 -28.5 -63s-9 -51.5 -9 -81.5v-5h313v6zM302.002 625.004
c0 -4.66699 -3.00195 -7.00195 -9.00195 -7.00195h-22c-5.33301 0 -9.16602 1.5 -11.499 4.5s-5.83301 7.16699 -10.5 12.5l-107 128c-2.66699 2.66699 -4 5.33398 -4 8.00098c0 4.66699 3.66699 7 11 7h26c5.33301 0 9.33301 -1.16699 12 -3.5
s6.33398 -6.16602 11.001 -11.499l100 -128c2.66699 -2.66699 4 -6 4 -10z" />
    <glyph glyph-name="eacute" unicode="&#xe9;" horiz-adv-x="511" 
d="M456 277c0 -5.33301 -1.83105 -9.83008 -5.49805 -13.4971s-8.16699 -5.5 -13.5 -5.5h-338v-21c0 -42 4.66699 -76.333 14 -103s22.333 -47.5 39 -62.5s35.834 -25.167 57.501 -30.5s45.167 -8 70.5 -8c22 0 46 1.5 72 4.5s51.333 7.16699 76 12.5
c5.33301 1.33301 10.166 1.16602 14.499 -0.500977s6.5 -5.83398 6.5 -12.501v-7c0 -5.33301 -1.33301 -9.5 -4 -12.5s-7.66699 -5.16699 -15 -6.5c-24 -5.33301 -49.333 -9.5 -76 -12.5s-51.334 -4.5 -74.001 -4.5c-31.333 0 -60.5 3.83301 -87.5 11.5
s-50.833 20.667 -71.5 39s-36.834 43.166 -48.501 74.499s-17.5 70.666 -17.5 117.999v66c0 34.667 4.33301 66.5 13 95.5s21.5 54.167 38.5 75.5s38 38 63 50s54.167 18 87.5 18c34.667 0 64.5 -5.66699 89.5 -17s45.667 -27.5 62 -48.5s28.333 -46.167 36 -75.5
s11.5 -61.666 11.5 -96.999v-27zM412.002 304.003c0 63.333 -11.667 112.334 -35 147.001s-63.333 52 -120 52c-28 0 -51.833 -4.83301 -71.5 -14.5s-36 -23.334 -49 -41.001s-22.5 -38.667 -28.5 -63s-9 -51.5 -9 -81.5v-5h313v6zM373.002 771.004
c0 -2.66699 -1.33496 -5.33203 -4.00195 -7.99902l-107 -128c-4.66699 -5.33301 -8.16699 -9.5 -10.5 -12.5s-6.16602 -4.5 -11.499 -4.5h-22c-6 0 -9 2.33301 -9 7c0 4 1.33301 7.33301 4 10l100 128c4.66699 5.33301 8.33398 9.16602 11.001 11.499s6.66699 3.5 12 3.5h26
c7.33301 0 11 -2.33301 11 -7z" />
    <glyph glyph-name="ecircumflex" unicode="&#xea;" horiz-adv-x="511" 
d="M456 277c0 -5.33301 -1.83105 -9.83008 -5.49805 -13.4971s-8.16699 -5.5 -13.5 -5.5h-338v-21c0 -42 4.66699 -76.333 14 -103s22.333 -47.5 39 -62.5s35.834 -25.167 57.501 -30.5s45.167 -8 70.5 -8c22 0 46 1.5 72 4.5s51.333 7.16699 76 12.5
c5.33301 1.33301 10.166 1.16602 14.499 -0.500977s6.5 -5.83398 6.5 -12.501v-7c0 -5.33301 -1.33301 -9.5 -4 -12.5s-7.66699 -5.16699 -15 -6.5c-24 -5.33301 -49.333 -9.5 -76 -12.5s-51.334 -4.5 -74.001 -4.5c-31.333 0 -60.5 3.83301 -87.5 11.5
s-50.833 20.667 -71.5 39s-36.834 43.166 -48.501 74.499s-17.5 70.666 -17.5 117.999v66c0 34.667 4.33301 66.5 13 95.5s21.5 54.167 38.5 75.5s38 38 63 50s54.167 18 87.5 18c34.667 0 64.5 -5.66699 89.5 -17s45.667 -27.5 62 -48.5s28.333 -46.167 36 -75.5
s11.5 -61.666 11.5 -96.999v-27zM412.002 304.003c0 63.333 -11.667 112.334 -35 147.001s-63.333 52 -120 52c-28 0 -51.833 -4.83301 -71.5 -14.5s-36 -23.334 -49 -41.001s-22.5 -38.667 -28.5 -63s-9 -51.5 -9 -81.5v-5h313v6zM402.002 625.004
c0 -4.66699 -3.00391 -7 -9.00391 -7h-22c-5.33301 0 -9.16602 1.5 -11.499 4.5s-5.83301 7.16699 -10.5 12.5l-94 113l-94 -113c-4.66699 -5.33301 -8.16699 -9.5 -10.5 -12.5s-6.16602 -4.5 -11.499 -4.5h-22c-6 0 -9 2.33301 -9 7c0 4 1.33301 7.33301 4 10l100 128
c4.66699 5.33301 8.33398 9.16602 11.001 11.499s6.66699 3.5 12 3.5h40c5.33301 0 9.33301 -1.16699 12 -3.5s6.33398 -6.16602 11.001 -11.499l100 -128c2.66699 -2.66699 4 -6 4 -10z" />
    <glyph glyph-name="edieresis" unicode="&#xeb;" horiz-adv-x="511" 
d="M456 277c0 -5.33301 -1.83105 -9.83008 -5.49805 -13.4971s-8.16699 -5.5 -13.5 -5.5h-338v-21c0 -42 4.66699 -76.333 14 -103s22.333 -47.5 39 -62.5s35.834 -25.167 57.501 -30.5s45.167 -8 70.5 -8c22 0 46 1.5 72 4.5s51.333 7.16699 76 12.5
c5.33301 1.33301 10.166 1.16602 14.499 -0.500977s6.5 -5.83398 6.5 -12.501v-7c0 -5.33301 -1.33301 -9.5 -4 -12.5s-7.66699 -5.16699 -15 -6.5c-24 -5.33301 -49.333 -9.5 -76 -12.5s-51.334 -4.5 -74.001 -4.5c-31.333 0 -60.5 3.83301 -87.5 11.5
s-50.833 20.667 -71.5 39s-36.834 43.166 -48.501 74.499s-17.5 70.666 -17.5 117.999v66c0 34.667 4.33301 66.5 13 95.5s21.5 54.167 38.5 75.5s38 38 63 50s54.167 18 87.5 18c34.667 0 64.5 -5.66699 89.5 -17s45.667 -27.5 62 -48.5s28.333 -46.167 36 -75.5
s11.5 -61.666 11.5 -96.999v-27zM412.002 304.003c0 63.333 -11.667 112.334 -35 147.001s-63.333 52 -120 52c-28 0 -51.833 -4.83301 -71.5 -14.5s-36 -23.334 -49 -41.001s-22.5 -38.667 -28.5 -63s-9 -51.5 -9 -81.5v-5h313v6zM352.002 661.004
c0 -5.33301 -1.83301 -9.83301 -5.5 -13.5s-8.16699 -5.5 -13.5 -5.5h-6c-5.33301 0 -9.83301 1.83301 -13.5 5.5s-5.5 8.16699 -5.5 13.5v74c0 5.33301 1.83301 9.83301 5.5 13.5s8.16699 5.5 13.5 5.5h6c5.33301 0 9.83301 -1.83301 13.5 -5.5s5.5 -8.16699 5.5 -13.5v-74
zM202.002 661.004c0 -5.33301 -1.83301 -9.83301 -5.5 -13.5s-8.16699 -5.5 -13.5 -5.5h-6c-5.33301 0 -9.83301 1.83301 -13.5 5.5s-5.5 8.16699 -5.5 13.5v74c0 5.33301 1.83301 9.83301 5.5 13.5s8.16699 5.5 13.5 5.5h6c5.33301 0 9.83301 -1.83301 13.5 -5.5
s5.5 -8.16699 5.5 -13.5v-74z" />
    <glyph glyph-name="igrave" unicode="&#xec;" horiz-adv-x="204" 
d="M124 19c0 -5.33301 -1.83301 -9.83301 -5.5 -13.5s-8.16699 -5.5 -13.5 -5.5h-6c-5.33301 -0 -9.83301 1.83301 -13.5 5.5s-5.5 8.16699 -5.5 13.5v499c0 5.33301 1.83301 9.83301 5.5 13.5s8.16699 5.5 13.5 5.5h6c5.33301 0 9.83301 -1.83301 13.5 -5.5
s5.5 -8.16699 5.5 -13.5v-499zM161 625c0 -4.66699 -3.00195 -7.00195 -9.00195 -7.00195h-22c-5.33301 0 -9.16602 1.5 -11.499 4.5s-5.83301 7.16699 -10.5 12.5l-107 128c-2.66699 2.66699 -4 5.33398 -4 8.00098c0 4.66699 3.66699 7 11 7h26
c5.33301 0 9.33301 -1.16699 12 -3.5s6.33398 -6.16602 11.001 -11.499l100 -128c2.66699 -2.66699 4 -6 4 -10z" />
    <glyph glyph-name="iacute" unicode="&#xed;" horiz-adv-x="204" 
d="M124 19c0 -5.33301 -1.83301 -9.83301 -5.5 -13.5s-8.16699 -5.5 -13.5 -5.5h-6c-5.33301 -0 -9.83301 1.83301 -13.5 5.5s-5.5 8.16699 -5.5 13.5v499c0 5.33301 1.83301 9.83301 5.5 13.5s8.16699 5.5 13.5 5.5h6c5.33301 0 9.83301 -1.83301 13.5 -5.5
s5.5 -8.16699 5.5 -13.5v-499zM207 771c0 -2.66699 -1.33496 -5.33203 -4.00195 -7.99902l-107 -128c-4.66699 -5.33301 -8.16699 -9.5 -10.5 -12.5s-6.16602 -4.5 -11.499 -4.5h-22c-6 0 -9 2.33301 -9 7c0 4 1.33301 7.33301 4 10l100 128
c4.66699 5.33301 8.33398 9.16602 11.001 11.499s6.66699 3.5 12 3.5h26c7.33301 0 11 -2.33301 11 -7z" />
    <glyph glyph-name="icircumflex" unicode="&#xee;" horiz-adv-x="204" 
d="M124 19c0 -5.33301 -1.83301 -9.83301 -5.5 -13.5s-8.16699 -5.5 -13.5 -5.5h-6c-5.33301 -0 -9.83301 1.83301 -13.5 5.5s-5.5 8.16699 -5.5 13.5v499c0 5.33301 1.83301 9.83301 5.5 13.5s8.16699 5.5 13.5 5.5h6c5.33301 0 9.83301 -1.83301 13.5 -5.5
s5.5 -8.16699 5.5 -13.5v-499zM249 625c0 -4.66699 -3.00391 -7 -9.00391 -7h-22c-5.33301 0 -9.16602 1.5 -11.499 4.5s-5.83301 7.16699 -10.5 12.5l-94 113l-94 -113c-4.66699 -5.33301 -8.16699 -9.5 -10.5 -12.5s-6.16602 -4.5 -11.499 -4.5h-22c-6 0 -9 2.33301 -9 7
c0 4 1.33301 7.33301 4 10l100 128c4.66699 5.33301 8.33398 9.16602 11.001 11.499s6.66699 3.5 12 3.5h40c5.33301 0 9.33301 -1.16699 12 -3.5s6.33398 -6.16602 11.001 -11.499l100 -128c2.66699 -2.66699 4 -6 4 -10z" />
    <glyph glyph-name="idieresis" unicode="&#xef;" horiz-adv-x="204" 
d="M124 19c0 -5.33301 -1.83301 -9.83301 -5.5 -13.5s-8.16699 -5.5 -13.5 -5.5h-6c-5.33301 -0 -9.83301 1.83301 -13.5 5.5s-5.5 8.16699 -5.5 13.5v499c0 5.33301 1.83301 9.83301 5.5 13.5s8.16699 5.5 13.5 5.5h6c5.33301 0 9.83301 -1.83301 13.5 -5.5
s5.5 -8.16699 5.5 -13.5v-499zM199 661c0 -5.33301 -1.83301 -9.83301 -5.5 -13.5s-8.16699 -5.5 -13.5 -5.5h-6c-5.33301 0 -9.83301 1.83301 -13.5 5.5s-5.5 8.16699 -5.5 13.5v74c0 5.33301 1.83301 9.83301 5.5 13.5s8.16699 5.5 13.5 5.5h6
c5.33301 0 9.83301 -1.83301 13.5 -5.5s5.5 -8.16699 5.5 -13.5v-74zM49 661c0 -5.33301 -1.83301 -9.83301 -5.5 -13.5s-8.16699 -5.5 -13.5 -5.5h-6c-5.33301 0 -9.83301 1.83301 -13.5 5.5s-5.5 8.16699 -5.5 13.5v74c0 5.33301 1.83301 9.83301 5.5 13.5
s8.16699 5.5 13.5 5.5h6c5.33301 0 9.83301 -1.83301 13.5 -5.5s5.5 -8.16699 5.5 -13.5v-74z" />
    <glyph glyph-name="eth" unicode="&#xf0;" horiz-adv-x="522" 
d="M467 233c0 -76 -17.167 -134.833 -51.5 -176.5s-85.833 -62.5 -154.5 -62.5s-120.167 20.833 -154.5 62.5s-51.5 100.5 -51.5 176.5v70c0 76 17.167 134.833 51.5 176.5s85.833 62.5 154.5 62.5c65.333 0 115.333 -19.333 150 -58c-9.33301 35.333 -26.666 68 -51.999 98
s-63.666 56.333 -114.999 79l-97 -73c-4.66699 -3.33301 -8.83398 -5.5 -12.501 -6.5s-7.5 1.16699 -11.5 6.5l-5 6c-3.33301 4 -4 8.16699 -2 12.5s5 8.16602 9 11.499l77 60c-32.667 11.333 -68.334 21 -107.001 29c-5.33301 1.33301 -9.66602 3.5 -12.999 6.5
s-4 7.5 -2 13.5l3 10c2 6.66699 4.83301 10.334 8.5 11.001s8.16699 0.333984 13.5 -0.999023c53.333 -12 98.666 -25.333 135.999 -40l102 78c9.33301 6.66699 17.666 6.33398 24.999 -0.999023l6 -6c6.66699 -6.66699 4.66699 -14 -6 -22l-87 -66
c48.667 -24.667 85.834 -52.334 111.501 -83.001s44 -62.834 55 -96.501s17 -68.167 18 -103.5s1.5 -70 1.5 -104v-70zM423 303c0 61.333 -12.333 110 -37 146s-66.334 54 -125.001 54s-100.334 -18 -125.001 -54s-37 -84.667 -37 -146v-70c0 -61.333 12.333 -110 37 -146
s66.334 -54 125.001 -54s100.334 18 125.001 54s37 84.667 37 146v70z" />
    <glyph glyph-name="ntilde" unicode="&#xf1;" horiz-adv-x="521" 
d="M451 19c0 -5.33301 -1.83496 -9.83301 -5.50195 -13.5s-8.16699 -5.5 -13.5 -5.5h-7c-5.33301 -0 -9.66602 1.83301 -12.999 5.5s-5 8.16699 -5 13.5v332c0 28.667 -3.5 52.667 -10.5 72s-16.667 35 -29 47s-26.666 20.5 -42.999 25.5s-33.833 7.5 -52.5 7.5
c-25.333 0 -51.666 -3.83301 -78.999 -11.5s-53.666 -17.5 -78.999 -29.5v-443c0 -5.33301 -1.83301 -9.83301 -5.5 -13.5s-8.16699 -5.5 -13.5 -5.5h-6c-5.33301 -0 -9.83301 1.83301 -13.5 5.5s-5.5 8.16699 -5.5 13.5v498c0 5.33301 1.66699 10 5 14s7.66602 6 12.999 6
h8c5.33301 0 9.66602 -2 12.999 -6s5 -8.66699 5 -14v-16c26 12.667 52.833 22.667 80.5 30s54.5 11 80.5 11c24 0 46.667 -3.5 68 -10.5s40 -18 56 -33s28.667 -34.667 38 -59s14 -53.833 14 -88.5v-332zM419.998 704c0 -30.667 -7 -53.5 -21 -68.5s-33 -22.5 -57 -22.5
c-26.667 0 -49 8.66699 -67 26l-48 47c-8 8 -15.5 14.667 -22.5 20s-15.5 8 -25.5 8c-12 0 -21.833 -3.5 -29.5 -10.5s-11.5 -21.167 -11.5 -42.5v-26c0 -5.33301 -0.5 -9.33301 -1.5 -12s-3.83301 -4 -8.5 -4h-17c-7.33301 0 -11 5.33301 -11 16v26
c0 30.667 7.16699 53.5 21.5 68.5s33.5 22.5 57.5 22.5c26 0 48 -8.66699 66 -26l48 -47c8 -8 16.167 -14.667 24.5 -20s16.5 -8 24.5 -8c12 0 21.667 3.5 29 10.5s11 21.167 11 42.5v26c0 5.33301 0.5 9.33301 1.5 12s3.83301 4 8.5 4h17c7.33301 0 11 -5.33301 11 -16v-26
z" />
    <glyph glyph-name="ograve" unicode="&#xf2;" horiz-adv-x="522" 
d="M467 233c0 -76 -17.167 -134.833 -51.5 -176.5s-85.833 -62.5 -154.5 -62.5s-120.167 20.833 -154.5 62.5s-51.5 100.5 -51.5 176.5v70c0 76 17.167 134.833 51.5 176.5s85.833 62.5 154.5 62.5s120.167 -20.833 154.5 -62.5s51.5 -100.5 51.5 -176.5v-70zM423 303
c0 61.333 -12.333 110 -37 146s-66.334 54 -125.001 54s-100.334 -18 -125.001 -54s-37 -84.667 -37 -146v-70c0 -61.333 12.333 -110 37 -146s66.334 -54 125.001 -54s100.334 18 125.001 54s37 84.667 37 146v70zM321 625c0 -4.66699 -3.00195 -7.00195 -9.00195 -7.00195
h-22c-5.33301 0 -9.16602 1.5 -11.499 4.5s-5.83301 7.16699 -10.5 12.5l-107 128c-2.66699 2.66699 -4 5.33398 -4 8.00098c0 4.66699 3.66699 7 11 7h26c5.33301 0 9.33301 -1.16699 12 -3.5s6.33398 -6.16602 11.001 -11.499l100 -128c2.66699 -2.66699 4 -6 4 -10z" />
    <glyph glyph-name="oacute" unicode="&#xf3;" horiz-adv-x="522" 
d="M467 233c0 -76 -17.167 -134.833 -51.5 -176.5s-85.833 -62.5 -154.5 -62.5s-120.167 20.833 -154.5 62.5s-51.5 100.5 -51.5 176.5v70c0 76 17.167 134.833 51.5 176.5s85.833 62.5 154.5 62.5s120.167 -20.833 154.5 -62.5s51.5 -100.5 51.5 -176.5v-70zM423 303
c0 61.333 -12.333 110 -37 146s-66.334 54 -125.001 54s-100.334 -18 -125.001 -54s-37 -84.667 -37 -146v-70c0 -61.333 12.333 -110 37 -146s66.334 -54 125.001 -54s100.334 18 125.001 54s37 84.667 37 146v70zM378 771c0 -2.66699 -1.33496 -5.33203 -4.00195 -7.99902
l-107 -128c-4.66699 -5.33301 -8.16699 -9.5 -10.5 -12.5s-6.16602 -4.5 -11.499 -4.5h-22c-6 0 -9 2.33301 -9 7c0 4 1.33301 7.33301 4 10l100 128c4.66699 5.33301 8.33398 9.16602 11.001 11.499s6.66699 3.5 12 3.5h26c7.33301 0 11 -2.33301 11 -7z" />
    <glyph glyph-name="ocircumflex" unicode="&#xf4;" horiz-adv-x="522" 
d="M467 233c0 -76 -17.167 -134.833 -51.5 -176.5s-85.833 -62.5 -154.5 -62.5s-120.167 20.833 -154.5 62.5s-51.5 100.5 -51.5 176.5v70c0 76 17.167 134.833 51.5 176.5s85.833 62.5 154.5 62.5s120.167 -20.833 154.5 -62.5s51.5 -100.5 51.5 -176.5v-70zM423 303
c0 61.333 -12.333 110 -37 146s-66.334 54 -125.001 54s-100.334 -18 -125.001 -54s-37 -84.667 -37 -146v-70c0 -61.333 12.333 -110 37 -146s66.334 -54 125.001 -54s100.334 18 125.001 54s37 84.667 37 146v70zM408 625c0 -4.66699 -3.00391 -7 -9.00391 -7h-22
c-5.33301 0 -9.16602 1.5 -11.499 4.5s-5.83301 7.16699 -10.5 12.5l-94 113l-94 -113c-4.66699 -5.33301 -8.16699 -9.5 -10.5 -12.5s-6.16602 -4.5 -11.499 -4.5h-22c-6 0 -9 2.33301 -9 7c0 4 1.33301 7.33301 4 10l100 128
c4.66699 5.33301 8.33398 9.16602 11.001 11.499s6.66699 3.5 12 3.5h40c5.33301 0 9.33301 -1.16699 12 -3.5s6.33398 -6.16602 11.001 -11.499l100 -128c2.66699 -2.66699 4 -6 4 -10z" />
    <glyph glyph-name="otilde" unicode="&#xf5;" horiz-adv-x="522" 
d="M467 233c0 -76 -17.167 -134.833 -51.5 -176.5s-85.833 -62.5 -154.5 -62.5s-120.167 20.833 -154.5 62.5s-51.5 100.5 -51.5 176.5v70c0 76 17.167 134.833 51.5 176.5s85.833 62.5 154.5 62.5s120.167 -20.833 154.5 -62.5s51.5 -100.5 51.5 -176.5v-70zM423 303
c0 61.333 -12.333 110 -37 146s-66.334 54 -125.001 54s-100.334 -18 -125.001 -54s-37 -84.667 -37 -146v-70c0 -61.333 12.333 -110 37 -146s66.334 -54 125.001 -54s100.334 18 125.001 54s37 84.667 37 146v70zM421 703c0 -30.667 -7 -53.5 -21 -68.5
s-33 -22.5 -57 -22.5c-26.667 0 -49 8.66699 -67 26l-48 47c-8 8 -15.5 14.667 -22.5 20s-15.5 8 -25.5 8c-12 0 -21.833 -3.5 -29.5 -10.5s-11.5 -21.167 -11.5 -42.5v-26c0 -5.33301 -0.5 -9.33301 -1.5 -12s-3.83301 -4 -8.5 -4h-17c-7.33301 0 -11 5.33301 -11 16v26
c0 30.667 7.16699 53.5 21.5 68.5s33.5 22.5 57.5 22.5c26 0 48 -8.66699 66 -26l48 -47c8 -8 16.167 -14.667 24.5 -20s16.5 -8 24.5 -8c12 0 21.667 3.5 29 10.5s11 21.167 11 42.5v26c0 5.33301 0.5 9.33301 1.5 12s3.83301 4 8.5 4h17c7.33301 0 11 -5.33301 11 -16v-26
z" />
    <glyph glyph-name="odieresis" unicode="&#xf6;" horiz-adv-x="522" 
d="M467 233c0 -76 -17.167 -134.833 -51.5 -176.5s-85.833 -62.5 -154.5 -62.5s-120.167 20.833 -154.5 62.5s-51.5 100.5 -51.5 176.5v70c0 76 17.167 134.833 51.5 176.5s85.833 62.5 154.5 62.5s120.167 -20.833 154.5 -62.5s51.5 -100.5 51.5 -176.5v-70zM423 303
c0 61.333 -12.333 110 -37 146s-66.334 54 -125.001 54s-100.334 -18 -125.001 -54s-37 -84.667 -37 -146v-70c0 -61.333 12.333 -110 37 -146s66.334 -54 125.001 -54s100.334 18 125.001 54s37 84.667 37 146v70zM358 661c0 -5.33301 -1.83301 -9.83301 -5.5 -13.5
s-8.16699 -5.5 -13.5 -5.5h-6c-5.33301 0 -9.83301 1.83301 -13.5 5.5s-5.5 8.16699 -5.5 13.5v74c0 5.33301 1.83301 9.83301 5.5 13.5s8.16699 5.5 13.5 5.5h6c5.33301 0 9.83301 -1.83301 13.5 -5.5s5.5 -8.16699 5.5 -13.5v-74zM208 661
c0 -5.33301 -1.83301 -9.83301 -5.5 -13.5s-8.16699 -5.5 -13.5 -5.5h-6c-5.33301 0 -9.83301 1.83301 -13.5 5.5s-5.5 8.16699 -5.5 13.5v74c0 5.33301 1.83301 9.83301 5.5 13.5s8.16699 5.5 13.5 5.5h6c5.33301 0 9.83301 -1.83301 13.5 -5.5s5.5 -8.16699 5.5 -13.5v-74
z" />
    <glyph glyph-name="divide" unicode="&#xf7;" 
d="M312 511c0 -5.33301 -1.83301 -9.83301 -5.5 -13.5s-8.16699 -5.5 -13.5 -5.5h-6c-5.33301 0 -9.83301 1.83301 -13.5 5.5s-5.5 8.16699 -5.5 13.5v74c0 5.33301 1.83301 9.83301 5.5 13.5s8.16699 5.5 13.5 5.5h6c5.33301 0 9.83301 -1.83301 13.5 -5.5
s5.5 -8.16699 5.5 -13.5v-74zM493 386c0 -5.33301 -2 -9.33301 -6 -12s-8.66699 -4 -14 -4h-365c-5.33301 0 -10 1.33301 -14 4s-6 6.66699 -6 12v10c0 5.33301 2 9.33301 6 12s8.66699 4 14 4h365c5.33301 0 10 -1.33301 14 -4s6 -6.66699 6 -12v-10zM312 197
c0 -5.33301 -1.83301 -9.83301 -5.5 -13.5s-8.16699 -5.5 -13.5 -5.5h-6c-5.33301 0 -9.83301 1.83301 -13.5 5.5s-5.5 8.16699 -5.5 13.5v74c0 5.33301 1.83301 9.83301 5.5 13.5s8.16699 5.5 13.5 5.5h6c5.33301 0 9.83301 -1.83301 13.5 -5.5s5.5 -8.16699 5.5 -13.5v-74
z" />
    <glyph glyph-name="oslash" unicode="&#xf8;" horiz-adv-x="522" 
d="M497 560c0 -4.66699 -1.33301 -8.33203 -4 -10.999l-65 -87c26 -40 39 -93 39 -159v-70c0 -76 -17.167 -134.833 -51.5 -176.5s-85.833 -62.5 -154.5 -62.5c-60 0 -107.333 16.333 -142 49l-50 -68c-3.33301 -4.66699 -6 -7.5 -8 -8.5s-4.66699 -1.5 -8 -1.5h-20
c-5.33301 0 -8 2.66699 -8 8c0 4 1.33301 7.66699 4 11l66 89c-26.667 41.333 -40 94.666 -40 159.999v70c0 76 17.167 134.833 51.5 176.5s85.833 62.5 154.5 62.5c60 0 107.667 -17 143 -51l49 67c3.33301 4.66699 6 7.5 8 8.5s4.66699 1.5 8 1.5h20
c5.33301 0 8 -2.66699 8 -8zM379 458.002c-26.667 30 -65.999 45.001 -117.999 45.001c-58.667 0 -100.334 -18 -125.001 -54s-37 -84.667 -37 -146v-70c0 -24.667 1.83301 -47.334 5.5 -68.001s9.5 -39 17.5 -55zM423.001 303.003c0 49.333 -7.33398 89.667 -22.001 121
l-257 -347c13.333 -14 29.5 -24.833 48.5 -32.5s41.833 -11.5 68.5 -11.5c58.667 0 100.334 18 125.001 54s37 84.667 37 146v70z" />
    <glyph glyph-name="ugrave" unicode="&#xf9;" horiz-adv-x="521" 
d="M70 518c0 5.33301 1.83496 9.83301 5.50195 13.5s8.16699 5.5 13.5 5.5h7c5.33301 0 9.66602 -1.83301 12.999 -5.5s5 -8.16699 5 -13.5v-332c0 -28.667 3.5 -52.667 10.5 -72s16.667 -35 29 -47s26.666 -20.5 42.999 -25.5s33.833 -7.5 52.5 -7.5
c25.333 0 51.666 4 78.999 12s53.666 17.667 78.999 29v443c0 5.33301 1.83301 9.83301 5.5 13.5s8.16699 5.5 13.5 5.5h6c5.33301 0 9.83301 -1.83301 13.5 -5.5s5.5 -8.16699 5.5 -13.5v-498c0 -5.33301 -1.66699 -10 -5 -14s-7.66602 -6 -12.999 -6h-8
c-5.33301 0 -9.66602 2 -12.999 6s-5 8.66699 -5 14v16c-26 -12.667 -52.833 -22.667 -80.5 -30s-54.5 -11 -80.5 -11c-24 0 -46.667 3.5 -68 10.5s-40 18.167 -56 33.5s-28.667 35 -38 59s-14 53.333 -14 88v332zM305.002 625
c0 -4.66699 -3.00195 -7.00195 -9.00195 -7.00195h-22c-5.33301 0 -9.16602 1.5 -11.499 4.5s-5.83301 7.16699 -10.5 12.5l-107 128c-2.66699 2.66699 -4 5.33398 -4 8.00098c0 4.66699 3.66699 7 11 7h26c5.33301 0 9.33301 -1.16699 12 -3.5
s6.33398 -6.16602 11.001 -11.499l100 -128c2.66699 -2.66699 4 -6 4 -10z" />
    <glyph glyph-name="uacute" unicode="&#xfa;" horiz-adv-x="521" 
d="M70 518c0 5.33301 1.83496 9.83301 5.50195 13.5s8.16699 5.5 13.5 5.5h7c5.33301 0 9.66602 -1.83301 12.999 -5.5s5 -8.16699 5 -13.5v-332c0 -28.667 3.5 -52.667 10.5 -72s16.667 -35 29 -47s26.666 -20.5 42.999 -25.5s33.833 -7.5 52.5 -7.5
c25.333 0 51.666 4 78.999 12s53.666 17.667 78.999 29v443c0 5.33301 1.83301 9.83301 5.5 13.5s8.16699 5.5 13.5 5.5h6c5.33301 0 9.83301 -1.83301 13.5 -5.5s5.5 -8.16699 5.5 -13.5v-498c0 -5.33301 -1.66699 -10 -5 -14s-7.66602 -6 -12.999 -6h-8
c-5.33301 0 -9.66602 2 -12.999 6s-5 8.66699 -5 14v16c-26 -12.667 -52.833 -22.667 -80.5 -30s-54.5 -11 -80.5 -11c-24 0 -46.667 3.5 -68 10.5s-40 18.167 -56 33.5s-28.667 35 -38 59s-14 53.333 -14 88v332zM385.002 771
c0 -2.66699 -1.33496 -5.33203 -4.00195 -7.99902l-107 -128c-4.66699 -5.33301 -8.16699 -9.5 -10.5 -12.5s-6.16602 -4.5 -11.499 -4.5h-22c-6 0 -9 2.33301 -9 7c0 4 1.33301 7.33301 4 10l100 128c4.66699 5.33301 8.33398 9.16602 11.001 11.499s6.66699 3.5 12 3.5h26
c7.33301 0 11 -2.33301 11 -7z" />
    <glyph glyph-name="ucircumflex" unicode="&#xfb;" horiz-adv-x="521" 
d="M70 518c0 5.33301 1.83496 9.83301 5.50195 13.5s8.16699 5.5 13.5 5.5h7c5.33301 0 9.66602 -1.83301 12.999 -5.5s5 -8.16699 5 -13.5v-332c0 -28.667 3.5 -52.667 10.5 -72s16.667 -35 29 -47s26.666 -20.5 42.999 -25.5s33.833 -7.5 52.5 -7.5
c25.333 0 51.666 4 78.999 12s53.666 17.667 78.999 29v443c0 5.33301 1.83301 9.83301 5.5 13.5s8.16699 5.5 13.5 5.5h6c5.33301 0 9.83301 -1.83301 13.5 -5.5s5.5 -8.16699 5.5 -13.5v-498c0 -5.33301 -1.66699 -10 -5 -14s-7.66602 -6 -12.999 -6h-8
c-5.33301 0 -9.66602 2 -12.999 6s-5 8.66699 -5 14v16c-26 -12.667 -52.833 -22.667 -80.5 -30s-54.5 -11 -80.5 -11c-24 0 -46.667 3.5 -68 10.5s-40 18.167 -56 33.5s-28.667 35 -38 59s-14 53.333 -14 88v332zM407.002 625c0 -4.66699 -3.00391 -7 -9.00391 -7h-22
c-5.33301 0 -9.16602 1.5 -11.499 4.5s-5.83301 7.16699 -10.5 12.5l-94 113l-94 -113c-4.66699 -5.33301 -8.16699 -9.5 -10.5 -12.5s-6.16602 -4.5 -11.499 -4.5h-22c-6 0 -9 2.33301 -9 7c0 4 1.33301 7.33301 4 10l100 128
c4.66699 5.33301 8.33398 9.16602 11.001 11.499s6.66699 3.5 12 3.5h40c5.33301 0 9.33301 -1.16699 12 -3.5s6.33398 -6.16602 11.001 -11.499l100 -128c2.66699 -2.66699 4 -6 4 -10z" />
    <glyph glyph-name="udieresis" unicode="&#xfc;" horiz-adv-x="521" 
d="M70 518c0 5.33301 1.83496 9.83301 5.50195 13.5s8.16699 5.5 13.5 5.5h7c5.33301 0 9.66602 -1.83301 12.999 -5.5s5 -8.16699 5 -13.5v-332c0 -28.667 3.5 -52.667 10.5 -72s16.667 -35 29 -47s26.666 -20.5 42.999 -25.5s33.833 -7.5 52.5 -7.5
c25.333 0 51.666 4 78.999 12s53.666 17.667 78.999 29v443c0 5.33301 1.83301 9.83301 5.5 13.5s8.16699 5.5 13.5 5.5h6c5.33301 0 9.83301 -1.83301 13.5 -5.5s5.5 -8.16699 5.5 -13.5v-498c0 -5.33301 -1.66699 -10 -5 -14s-7.66602 -6 -12.999 -6h-8
c-5.33301 0 -9.66602 2 -12.999 6s-5 8.66699 -5 14v16c-26 -12.667 -52.833 -22.667 -80.5 -30s-54.5 -11 -80.5 -11c-24 0 -46.667 3.5 -68 10.5s-40 18.167 -56 33.5s-28.667 35 -38 59s-14 53.333 -14 88v332zM357.002 661c0 -5.33301 -1.83301 -9.83301 -5.5 -13.5
s-8.16699 -5.5 -13.5 -5.5h-6c-5.33301 0 -9.83301 1.83301 -13.5 5.5s-5.5 8.16699 -5.5 13.5v74c0 5.33301 1.83301 9.83301 5.5 13.5s8.16699 5.5 13.5 5.5h6c5.33301 0 9.83301 -1.83301 13.5 -5.5s5.5 -8.16699 5.5 -13.5v-74zM207.002 661
c0 -5.33301 -1.83301 -9.83301 -5.5 -13.5s-8.16699 -5.5 -13.5 -5.5h-6c-5.33301 0 -9.83301 1.83301 -13.5 5.5s-5.5 8.16699 -5.5 13.5v74c0 5.33301 1.83301 9.83301 5.5 13.5s8.16699 5.5 13.5 5.5h6c5.33301 0 9.83301 -1.83301 13.5 -5.5s5.5 -8.16699 5.5 -13.5v-74
z" />
    <glyph glyph-name="yacute" unicode="&#xfd;" horiz-adv-x="486" 
d="M282 -56c-8 -26.667 -16.501 -48.999 -25.501 -66.999s-19.833 -32.333 -32.5 -43s-27.334 -18.167 -44.001 -22.5s-36.667 -6.5 -60 -6.5c-11.333 0 -22.166 0.666992 -32.499 2s-20.166 2.66602 -29.499 3.99902c-6 1.33301 -10.833 2.66602 -14.5 3.99902
s-5.5 4.66602 -5.5 9.99902v11c0 6 1.5 10.167 4.5 12.5s8.5 2.83301 16.5 1.5c7.33301 -1.33301 18 -2.66602 32 -3.99902s25 -2 33 -2c18 0 33.167 1.66699 45.5 5s23 9 32 17s16.667 19 23 33s12.5 32 18.5 54l13 47h-14c-15.333 0 -27.5 3.33301 -36.5 10
s-17.167 22 -24.5 46l-135 457c-2 6.66699 -1.83301 12.334 0.5 17.001s7.5 7 15.5 7h9c5.33301 0 9 -1.5 11 -4.5s3.66699 -6.16699 5 -9.5l135 -460c3.33301 -10.667 7 -17 11 -19s8 -3 12 -3h23l137 483c1.33301 3.33301 3 6.33301 5 9s6.33301 4 13 4h9
c8 0 12.833 -2.5 14.5 -7.5s1.5 -10.833 -0.5 -17.5zM368.999 771.001c0 -2.66699 -1.33496 -5.33203 -4.00195 -7.99902l-107 -128c-4.66699 -5.33301 -8.16699 -9.5 -10.5 -12.5s-6.16602 -4.5 -11.499 -4.5h-22c-6 0 -9 2.33301 -9 7c0 4 1.33301 7.33301 4 10l100 128
c4.66699 5.33301 8.33398 9.16602 11.001 11.499s6.66699 3.5 12 3.5h26c7.33301 0 11 -2.33301 11 -7z" />
    <glyph glyph-name="thorn" unicode="&#xfe;" horiz-adv-x="504" 
d="M449 233c0 -159.333 -65.333 -238.998 -196 -238.998c-10 0 -20.833 0.333008 -32.5 1s-23.834 1.66699 -36.501 3s-25 3 -37 5s-23 4 -33 6v-185c0 -5.33301 -1.5 -9.83301 -4.5 -13.5s-7.16699 -5.5 -12.5 -5.5h-10c-5.33301 0 -9.5 1.83301 -12.5 5.5
s-4.5 8.16699 -4.5 13.5v900c0 5.33301 1.5 9.83301 4.5 13.5s7.16699 5.5 12.5 5.5h10c5.33301 0 9.5 -1.83301 12.5 -5.5s4.5 -8.16699 4.5 -13.5v-195c21.333 3.33301 44 6.33301 68 9s47.667 4 71 4c34.667 0 64.334 -5.83301 89.001 -17.5s45 -28.334 61 -50.001
s27.667 -47.334 35 -77.001s11 -62.5 11 -98.5v-66zM405 299.002c0 64.667 -11.333 114.833 -34 150.5s-62 53.5 -118 53.5c-24 0 -48.667 -1.33301 -74 -4s-47 -5.66699 -65 -9v-444c9.33301 -2 20 -3.83301 32 -5.5s24.333 -3 37 -4s25 -1.83301 37 -2.5s23 -1 33 -1
c55.333 0 94.5 16.667 117.5 50s34.5 83.333 34.5 150v66z" />
    <glyph glyph-name="ydieresis" unicode="&#xff;" horiz-adv-x="486" 
d="M282 -56c-8 -26.667 -16.501 -48.999 -25.501 -66.999s-19.833 -32.333 -32.5 -43s-27.334 -18.167 -44.001 -22.5s-36.667 -6.5 -60 -6.5c-11.333 0 -22.166 0.666992 -32.499 2s-20.166 2.66602 -29.499 3.99902c-6 1.33301 -10.833 2.66602 -14.5 3.99902
s-5.5 4.66602 -5.5 9.99902v11c0 6 1.5 10.167 4.5 12.5s8.5 2.83301 16.5 1.5c7.33301 -1.33301 18 -2.66602 32 -3.99902s25 -2 33 -2c18 0 33.167 1.66699 45.5 5s23 9 32 17s16.667 19 23 33s12.5 32 18.5 54l13 47h-14c-15.333 0 -27.5 3.33301 -36.5 10
s-17.167 22 -24.5 46l-135 457c-2 6.66699 -1.83301 12.334 0.5 17.001s7.5 7 15.5 7h9c5.33301 0 9 -1.5 11 -4.5s3.66699 -6.16699 5 -9.5l135 -460c3.33301 -10.667 7 -17 11 -19s8 -3 12 -3h23l137 483c1.33301 3.33301 3 6.33301 5 9s6.33301 4 13 4h9
c8 0 12.833 -2.5 14.5 -7.5s1.5 -10.833 -0.5 -17.5zM339.999 668.001c0 -5.33301 -1.83301 -9.83301 -5.5 -13.5s-8.16699 -5.5 -13.5 -5.5h-6c-5.33301 0 -9.83301 1.83301 -13.5 5.5s-5.5 8.16699 -5.5 13.5v74c0 5.33301 1.83301 9.83301 5.5 13.5s8.16699 5.5 13.5 5.5
h6c5.33301 0 9.83301 -1.83301 13.5 -5.5s5.5 -8.16699 5.5 -13.5v-74zM189.999 668.001c0 -5.33301 -1.83301 -9.83301 -5.5 -13.5s-8.16699 -5.5 -13.5 -5.5h-6c-5.33301 0 -9.83301 1.83301 -13.5 5.5s-5.5 8.16699 -5.5 13.5v74c0 5.33301 1.83301 9.83301 5.5 13.5
s8.16699 5.5 13.5 5.5h6c5.33301 0 9.83301 -1.83301 13.5 -5.5s5.5 -8.16699 5.5 -13.5v-74z" />
    <glyph glyph-name="Amacron" unicode="&#x100;" horiz-adv-x="619" 
d="M579 22c2 -7.33301 2 -13.334 0 -18.001s-6.66699 -7 -14 -7h-12c-8 0 -13.333 4.33301 -16 13l-84 271h-288l-82 -271c-1.33301 -3.33301 -3.5 -6.33301 -6.5 -9s-6.16699 -4 -9.5 -4h-13c-6.66699 0 -11.167 2.33301 -13.5 7s-2.5 10.667 -0.5 18l205 677
c4.66699 15.333 12.5 27.333 23.5 36s24.833 13 41.5 13c16 0 29.5 -4.16699 40.5 -12.5s18.833 -20.166 23.5 -35.499zM333 687.999c-1.33301 5.33301 -3.66992 10 -7.00293 14s-8.66602 6 -15.999 6s-12.666 -1.83301 -15.999 -5.5s-5.66602 -8.16699 -6.99902 -13.5
l-110 -364h265zM459.996 855.999c0 -5.33301 -2 -9.33301 -6 -12s-8.66699 -4 -14 -4h-266c-5.33301 0 -10 1.33301 -14 4s-6 6.66699 -6 12v11c0 5.33301 2 9.16602 6 11.499s8.66699 3.5 14 3.5h266c5.33301 0 10 -1.16699 14 -3.5s6 -6.16602 6 -11.499v-11z" />
    <glyph glyph-name="amacron" unicode="&#x101;" horiz-adv-x="488" 
d="M418 20c0 -5.33301 -2.00098 -10 -6.00098 -14s-8.66699 -6 -14 -6h-5c-5.33301 0 -10 2 -14 6s-6 8.66699 -6 14v25c-24.667 -13.333 -51.334 -25.166 -80.001 -35.499s-58.667 -15.5 -90 -15.5c-18.667 0 -37.167 2.5 -55.5 7.5s-34.666 13.667 -48.999 26
s-26 28.833 -35 49.5s-13.5 46.667 -13.5 78v13c0 26 4.33301 48.5 13 67.5s22.667 35 42 48s44.833 22.667 76.5 29s70.167 9.5 115.5 9.5h77v36c0 26 -2 48.167 -6 66.5s-10.833 33.333 -20.5 45s-22.667 20.167 -39 25.5s-36.5 8 -60.5 8
c-16.667 0 -31.167 -0.166992 -43.5 -0.5s-23.833 -1 -34.5 -2l-31 -3c-10 -1 -21 -2.16699 -33 -3.5c-5.33301 -0.666992 -10.5 0 -15.5 2s-7.5 6.33301 -7.5 13v6c0 10 7.66699 16 23 18c10.667 1.33301 20.834 2.5 30.501 3.5s20 2 31 3s23 1.66699 36 2
s27.833 0.5 44.5 0.5c34 0 61.833 -4.5 83.5 -13.5s39 -21.667 52 -38s22 -35.833 27 -58.5s7.5 -47.334 7.5 -74.001v-338zM373.999 283h-76.999c-38 0 -69.833 -2 -95.5 -6s-46.5 -10.5 -62.5 -19.5s-27.5 -20.833 -34.5 -35.5s-10.5 -32.667 -10.5 -54v-13
c0 -23.333 2.83301 -42.833 8.5 -58.5s13.5 -28.167 23.5 -37.5s21.5 -16 34.5 -20s27.167 -6 42.5 -6c28 0 55.167 4 81.5 12s56.166 21 89.499 39v199zM397 702c0 -5.33301 -2 -9.33301 -6 -12s-8.66699 -4 -14 -4h-266c-5.33301 0 -10 1.33301 -14 4s-6 6.66699 -6 12v11
c0 5.33301 2 9.16602 6 11.499s8.66699 3.5 14 3.5h266c5.33301 0 10 -1.16699 14 -3.5s6 -6.16602 6 -11.499v-11z" />
    <glyph glyph-name="Abreve" unicode="&#x102;" horiz-adv-x="619" 
d="M579 22c2 -7.33301 2 -13.334 0 -18.001s-6.66699 -7 -14 -7h-12c-8 0 -13.333 4.33301 -16 13l-84 271h-288l-82 -271c-1.33301 -3.33301 -3.5 -6.33301 -6.5 -9s-6.16699 -4 -9.5 -4h-13c-6.66699 0 -11.167 2.33301 -13.5 7s-2.5 10.667 -0.5 18l205 677
c4.66699 15.333 12.5 27.333 23.5 36s24.833 13 41.5 13c16 0 29.5 -4.16699 40.5 -12.5s18.833 -20.166 23.5 -35.499zM333 687.999c-1.33301 5.33301 -3.66992 10 -7.00293 14s-8.66602 6 -15.999 6s-12.666 -1.83301 -15.999 -5.5s-5.66602 -8.16699 -6.99902 -13.5
l-110 -364h265zM306.996 792.999c-42 0 -76.167 13 -102.5 39s-39.5 63 -39.5 111c0 6.66699 3.33301 10 10 10h22c5.33301 0 8 -3.33301 8 -10c0 -22 3 -40.167 9 -54.5s13.833 -25.666 23.5 -33.999s20.667 -14.166 33 -17.499s24.5 -5 36.5 -5s24.167 1.66699 36.5 5
s23.333 9.16602 33 17.499s17.5 19.666 23.5 33.999s9 32.5 9 54.5c0 6.66699 2.66699 10 8 10h22c6.66699 0 10 -3.33301 10 -10c0 -48 -13.167 -85 -39.5 -111s-60.5 -39 -102.5 -39z" />
    <glyph glyph-name="abreve" unicode="&#x103;" horiz-adv-x="488" 
d="M418 20c0 -5.33301 -2.00098 -10 -6.00098 -14s-8.66699 -6 -14 -6h-5c-5.33301 0 -10 2 -14 6s-6 8.66699 -6 14v25c-24.667 -13.333 -51.334 -25.166 -80.001 -35.499s-58.667 -15.5 -90 -15.5c-18.667 0 -37.167 2.5 -55.5 7.5s-34.666 13.667 -48.999 26
s-26 28.833 -35 49.5s-13.5 46.667 -13.5 78v13c0 26 4.33301 48.5 13 67.5s22.667 35 42 48s44.833 22.667 76.5 29s70.167 9.5 115.5 9.5h77v36c0 26 -2 48.167 -6 66.5s-10.833 33.333 -20.5 45s-22.667 20.167 -39 25.5s-36.5 8 -60.5 8
c-16.667 0 -31.167 -0.166992 -43.5 -0.5s-23.833 -1 -34.5 -2l-31 -3c-10 -1 -21 -2.16699 -33 -3.5c-5.33301 -0.666992 -10.5 0 -15.5 2s-7.5 6.33301 -7.5 13v6c0 10 7.66699 16 23 18c10.667 1.33301 20.834 2.5 30.501 3.5s20 2 31 3s23 1.66699 36 2
s27.833 0.5 44.5 0.5c34 0 61.833 -4.5 83.5 -13.5s39 -21.667 52 -38s22 -35.833 27 -58.5s7.5 -47.334 7.5 -74.001v-338zM373.999 283h-76.999c-38 0 -69.833 -2 -95.5 -6s-46.5 -10.5 -62.5 -19.5s-27.5 -20.833 -34.5 -35.5s-10.5 -32.667 -10.5 -54v-13
c0 -23.333 2.83301 -42.833 8.5 -58.5s13.5 -28.167 23.5 -37.5s21.5 -16 34.5 -20s27.167 -6 42.5 -6c28 0 55.167 4 81.5 12s56.166 21 89.499 39v199zM244 618c-42 0 -76.167 13 -102.5 39s-39.5 63 -39.5 111c0 6.66699 3.33301 10 10 10h22c5.33301 0 8 -3.33301 8 -10
c0 -22 3 -40.167 9 -54.5s13.833 -25.666 23.5 -33.999s20.667 -14.166 33 -17.499s24.5 -5 36.5 -5s24.167 1.66699 36.5 5s23.333 9.16602 33 17.499s17.5 19.666 23.5 33.999s9 32.5 9 54.5c0 6.66699 2.66699 10 8 10h22c6.66699 0 10 -3.33301 10 -10
c0 -48 -13.167 -85 -39.5 -111s-60.5 -39 -102.5 -39z" />
    <glyph glyph-name="Aogonek" unicode="&#x104;" horiz-adv-x="619" 
d="M522 -24c-32 -16 -55.666 -29.832 -70.999 -41.499s-23 -26.5 -23 -44.5c0 -16 5.5 -27.5 16.5 -34.5s27.5 -10.5 49.5 -10.5c12.667 0 25.5 1.16699 38.5 3.5s25.167 5.16602 36.5 8.49902c1.33301 0.666992 3.66602 1 6.99902 1c4.66699 0 7 -2 7 -6v-19
c0 -5.33301 -3.66699 -9 -11 -11c-6 -2 -16.333 -4.83301 -31 -8.5s-30.667 -5.5 -48 -5.5c-24 0 -43 2.66699 -57 8s-24.667 12.166 -32 20.499s-12 17.333 -14 27s-3 18.5 -3 26.5c0 14 2.5 26.167 7.5 36.5s12 19.666 21 27.999s19.667 15.833 32 22.5
s25.5 13.334 39.5 20.001l48 23l-82 264h-288l-82 -271c-1.33301 -3.33301 -3.5 -6.33301 -6.5 -9s-6.16699 -4 -9.5 -4h-13c-10 0 -15 5.33301 -15 16c0 4 0.333008 7 1 9l205 677c4.66699 15.333 12.5 27.333 23.5 36s24.833 13 41.5 13c16 0 29.5 -4.16699 40.5 -12.5
s18.833 -20.166 23.5 -35.499l205 -678c1.33301 -5.33301 2 -9 2 -11c0 -5.33301 -2.33301 -9.33301 -7 -12zM333.001 691.001c-1.33301 5.33301 -3.66992 10 -7.00293 14s-8.66602 6 -15.999 6s-12.666 -1.83301 -15.999 -5.5s-5.66602 -8.16699 -6.99902 -13.5l-110 -364
h265z" />
    <glyph glyph-name="aogonek" unicode="&#x105;" horiz-adv-x="488" 
d="M373 45c-24.667 -13.333 -51.3359 -25.1631 -80.0029 -35.4961s-58.667 -15.5 -90 -15.5c-18.667 0 -37.167 2.5 -55.5 7.5s-34.666 13.667 -48.999 26s-26 28.833 -35 49.5s-13.5 46.667 -13.5 78v13c0 26 4.33301 48.5 13 67.5s22.667 35 42 48s44.833 22.667 76.5 29
s70.167 9.5 115.5 9.5h77v36c0 26 -2 48.167 -6 66.5s-10.833 33.333 -20.5 45s-22.667 20.167 -39 25.5s-36.5 8 -60.5 8c-16.667 0 -31.167 -0.166992 -43.5 -0.5s-23.833 -1 -34.5 -2l-31 -3c-10 -1 -21 -2.16699 -33 -3.5h-4c-4.66699 0 -9 1.16699 -13 3.5
s-6 6.16602 -6 11.499v6c0 10 7.66699 16 23 18c10.667 1.33301 20.834 2.5 30.501 3.5s20 2 31 3s23 1.66699 36 2s27.833 0.5 44.5 0.5c34 0 61.833 -4.5 83.5 -13.5s39 -21.667 52 -38s22 -35.833 27 -58.5s7.5 -47.334 7.5 -74.001v-332
c0 -6.66699 -1.16699 -11.667 -3.5 -15s-6.83301 -7 -13.5 -11l-54 -31c-15.333 -8.66699 -28 -16.167 -38 -22.5s-18 -12.333 -24 -18s-10.167 -11.667 -12.5 -18s-3.5 -13.833 -3.5 -22.5c0 -16.667 5.16699 -28.5 15.5 -35.5s24.166 -10.5 41.499 -10.5
c12.667 0 26.334 1.5 41.001 4.5s26.334 5.5 35.001 7.5c4 1.33301 7 2 9 2c2.66699 0 4 -2.33301 4 -7v-19c0 -5.33301 -3.66699 -9 -11 -11c-6 -2 -16.333 -4.83301 -31 -8.5s-30.667 -5.5 -48 -5.5c-21.333 0 -38.333 2.66699 -51 8s-22.5 12.166 -29.5 20.499
s-11.5 17.333 -13.5 27s-3 18.834 -3 27.501c0 14 1.83301 25.667 5.5 35s9 17.666 16 24.999s15.833 14.166 26.5 20.499l36 21.5l61 35v20zM373.998 283.003h-76.999c-38 0 -69.833 -2 -95.5 -6s-46.5 -10.5 -62.5 -19.5s-27.5 -20.833 -34.5 -35.5
s-10.5 -32.667 -10.5 -54v-13c0 -23.333 2.83301 -42.833 8.5 -58.5s13.5 -28.167 23.5 -37.5s21.5 -16 34.5 -20s27.167 -6 42.5 -6c28 0 55.167 4 81.5 12s56.166 21 89.499 39v199z" />
    <glyph glyph-name="Cacute" unicode="&#x106;" horiz-adv-x="537" 
d="M497 21c0 -5.33301 -2 -9.33301 -6 -12s-8.33301 -4.33398 -13 -5.00098l-62 -6c-28 -2.66699 -65 -4 -111 -4c-31.333 0 -61.666 5 -90.999 15s-55.5 27 -78.5 51s-41.333 55.833 -55 95.5s-20.5 89.5 -20.5 149.5v132c0 60 6.83301 109.833 20.5 149.5s32 71.5 55 95.5
s49.167 41 78.5 51s59.666 15 90.999 15c46 0 83 -1.33301 111 -4l62 -6c4.66699 -0.666992 9 -2.33398 13 -5.00098s6 -6.66699 6 -12v-12c0 -6 -1.83301 -9.66699 -5.5 -11s-8.16699 -1.66602 -13.5 -0.999023c-9.33301 0.666992 -20.666 1.66699 -33.999 3
s-27.666 2.33301 -42.999 3l-48 2c-16.667 0.666992 -32.667 1 -48 1c-28 0 -54.167 -4.83301 -78.5 -14.5s-45.666 -25.167 -63.999 -46.5s-32.666 -49 -42.999 -83s-15.5 -75.667 -15.5 -125v-132c0 -49.333 5.16699 -91 15.5 -125s24.666 -61.667 42.999 -83
s39.666 -36.833 63.999 -46.5s50.5 -14.5 78.5 -14.5c15.333 0 31.333 0.333008 48 1l48 2c15.333 0.666992 29.666 1.5 42.999 2.5s24.666 2.16699 33.999 3.5c5.33301 0.666992 9.83301 0.333984 13.5 -0.999023s5.5 -5 5.5 -11v-12zM420 946
c0 -2.66699 -1.33496 -5.33203 -4.00195 -7.99902l-107 -128c-4.66699 -5.33301 -8.16699 -9.5 -10.5 -12.5s-6.16602 -4.5 -11.499 -4.5h-22c-6 0 -9 2.33301 -9 7c0 4 1.33301 7.33301 4 10l100 128c4.66699 5.33301 8.33398 9.16602 11.001 11.499s6.66699 3.5 12 3.5h26
c7.33301 0 11 -2.33301 11 -7z" />
    <glyph glyph-name="cacute" unicode="&#x107;" horiz-adv-x="437" 
d="M393 21c0 -5.33301 -1.33301 -9.32812 -4 -11.9951s-7.66699 -4.66699 -15 -6c-21.333 -2.66699 -42.833 -4.83398 -64.5 -6.50098s-40.5 -2.5 -56.5 -2.5c-36 0 -66.5 6.5 -91.5 19.5s-45.333 30.5 -61 52.5s-27.167 47.667 -34.5 77s-11 60.333 -11 93v67
c0 33.333 3.66699 64.5 11 93.5s18.833 54.333 34.5 76s36 38.667 61 51s55.5 18.5 91.5 18.5c16 0 34.833 -0.833008 56.5 -2.5s43.167 -3.83398 64.5 -6.50098c7.33301 -1.33301 12.333 -3.33301 15 -6s4 -6.66699 4 -12v-7c0 -5.33301 -2 -9.33301 -6 -12
s-9 -3.33398 -15 -2.00098c-47.333 6 -87 9 -119 9c-28.667 0 -52.834 -4.66699 -72.501 -14s-35.5 -22.833 -47.5 -40.5s-20.667 -38.834 -26 -63.501s-8 -52 -8 -82v-67c0 -30 2.66699 -57.5 8 -82.5s14 -46.5 26 -64.5s27.833 -31.833 47.5 -41.5
s43.834 -14.5 72.501 -14.5c32 0 71.667 3 119 9c6 1.33301 11 0.666016 15 -2.00098s6 -6.66699 6 -12v-7zM358 771.005c0 -2.66699 -1.33496 -5.33203 -4.00195 -7.99902l-107 -128c-4.66699 -5.33301 -8.16699 -9.5 -10.5 -12.5s-6.16602 -4.5 -11.499 -4.5h-22
c-6 0 -9 2.33301 -9 7c0 4 1.33301 7.33301 4 10l100 128c4.66699 5.33301 8.33398 9.16602 11.001 11.499s6.66699 3.5 12 3.5h26c7.33301 0 11 -2.33301 11 -7z" />
    <glyph glyph-name="Ccircumflex" unicode="&#x108;" horiz-adv-x="537" 
d="M497 21c0 -5.33301 -2 -9.33301 -6 -12s-8.33301 -4.33398 -13 -5.00098l-62 -6c-28 -2.66699 -65 -4 -111 -4c-31.333 0 -61.666 5 -90.999 15s-55.5 27 -78.5 51s-41.333 55.833 -55 95.5s-20.5 89.5 -20.5 149.5v132c0 60 6.83301 109.833 20.5 149.5s32 71.5 55 95.5
s49.167 41 78.5 51s59.666 15 90.999 15c46 0 83 -1.33301 111 -4l62 -6c4.66699 -0.666992 9 -2.33398 13 -5.00098s6 -6.66699 6 -12v-12c0 -6 -1.83301 -9.66699 -5.5 -11s-8.16699 -1.66602 -13.5 -0.999023c-9.33301 0.666992 -20.666 1.66699 -33.999 3
s-27.666 2.33301 -42.999 3l-48 2c-16.667 0.666992 -32.667 1 -48 1c-28 0 -54.167 -4.83301 -78.5 -14.5s-45.666 -25.167 -63.999 -46.5s-32.666 -49 -42.999 -83s-15.5 -75.667 -15.5 -125v-132c0 -49.333 5.16699 -91 15.5 -125s24.666 -61.667 42.999 -83
s39.666 -36.833 63.999 -46.5s50.5 -14.5 78.5 -14.5c15.333 0 31.333 0.333008 48 1l48 2c15.333 0.666992 29.666 1.5 42.999 2.5s24.666 2.16699 33.999 3.5c5.33301 0.666992 9.83301 0.333984 13.5 -0.999023s5.5 -5 5.5 -11v-12zM436 801
c0 -4.66699 -3.00391 -7 -9.00391 -7h-22c-5.33301 0 -9.16602 1.5 -11.499 4.5s-5.83301 7.16699 -10.5 12.5l-94 113l-94 -113c-4.66699 -5.33301 -8.16699 -9.5 -10.5 -12.5s-6.16602 -4.5 -11.499 -4.5h-22c-6 0 -9 2.33301 -9 7c0 4 1.33301 7.33301 4 10l100 128
c4.66699 5.33301 8.33398 9.16602 11.001 11.499s6.66699 3.5 12 3.5h40c5.33301 0 9.33301 -1.16699 12 -3.5s6.33398 -6.16602 11.001 -11.499l100 -128c2.66699 -2.66699 4 -6 4 -10z" />
    </font>
</defs>
</svg>
